AlumniSansPinstripe-Italic.ufo
<glyph name="dollar" format="2">
  <advance width="326"/>
  <unicode hex="0024"/>
  <note>
dollar
</note>
  <outline>
    <contour>
      <point x="60" y="-81" type="line"/>
      <point x="76" y="-81" type="line"/>
      <point x="274" y="659" type="line"/>
      <point x="258" y="659" type="line"/>
    </contour>
    <contour>
      <point x="132" y="54" type="curve" smooth="yes"/>
      <point x="195" y="54"/>
      <point x="260" y="79"/>
      <point x="272" y="156" type="curve" smooth="yes"/>
      <point x="278" y="194" type="line" smooth="yes"/>
      <point x="279" y="201"/>
      <point x="280" y="208"/>
      <point x="280" y="215" type="curve" smooth="yes"/>
      <point x="280" y="281"/>
      <point x="221" y="304"/>
      <point x="171" y="329" type="curve" smooth="yes"/>
      <point x="130" y="350"/>
      <point x="82" y="362"/>
      <point x="82" y="421" type="curve" smooth="yes"/>
      <point x="82" y="428"/>
      <point x="82" y="435"/>
      <point x="84" y="444" type="curve" smooth="yes"/>
      <point x="86" y="455" type="line" smooth="yes"/>
      <point x="96" y="509"/>
      <point x="136" y="546"/>
      <point x="203" y="546" type="curve" smooth="yes"/>
      <point x="255" y="546"/>
      <point x="296" y="528"/>
      <point x="296" y="483" type="curve" smooth="yes"/>
      <point x="296" y="470"/>
      <point x="292" y="454"/>
      <point x="284" y="436" type="curve" smooth="yes"/>
      <point x="270" y="404" type="line"/>
      <point x="288" y="404" type="line"/>
      <point x="306" y="446" type="line" smooth="yes"/>
      <point x="312" y="461"/>
      <point x="315" y="475"/>
      <point x="315" y="487" type="curve" smooth="yes"/>
      <point x="315" y="538"/>
      <point x="262" y="562"/>
      <point x="206" y="562" type="curve" smooth="yes"/>
      <point x="130" y="562"/>
      <point x="80" y="520"/>
      <point x="71" y="464" type="curve" smooth="yes"/>
      <point x="67" y="440" type="line" smooth="yes"/>
      <point x="66" y="432"/>
      <point x="65" y="424"/>
      <point x="65" y="417" type="curve" smooth="yes"/>
      <point x="65" y="359"/>
      <point x="111" y="339"/>
      <point x="164" y="314" type="curve" smooth="yes"/>
      <point x="209" y="293"/>
      <point x="265" y="274"/>
      <point x="265" y="212" type="curve" smooth="yes"/>
      <point x="265" y="204"/>
      <point x="264" y="196"/>
      <point x="262" y="187" type="curve" smooth="yes"/>
      <point x="256" y="156" type="line" smooth="yes"/>
      <point x="246" y="103"/>
      <point x="201" y="70"/>
      <point x="135" y="70" type="curve" smooth="yes"/>
      <point x="80" y="70"/>
      <point x="43" y="92"/>
      <point x="43" y="137" type="curve" smooth="yes"/>
      <point x="43" y="142"/>
      <point x="43" y="146"/>
      <point x="44" y="151" type="curve" smooth="yes"/>
      <point x="49" y="182"/>
      <point x="75" y="213"/>
      <point x="86" y="226" type="curve"/>
      <point x="66" y="226" type="line"/>
      <point x="57" y="213"/>
      <point x="34" y="184"/>
      <point x="29" y="159" type="curve" smooth="yes"/>
      <point x="28" y="151"/>
      <point x="27" y="144"/>
      <point x="27" y="136" type="curve" smooth="yes"/>
      <point x="27" y="81"/>
      <point x="71" y="54"/>
    </contour>
  </outline>
</glyph>
<glyph name="ampersand" format="2">
  <advance width="520"/>
  <unicode hex="0026"/>
  <note>
ampersand
</note>
  <outline>
    <contour>
      <point x="181" y="-6" type="curve" smooth="yes"/>
      <point x="272" y="-6"/>
      <point x="331" y="54"/>
      <point x="339" y="105" type="curve"/>
      <point x="377" y="54"/>
      <point x="419" y="3"/>
      <point x="445" y="-4" type="curve"/>
      <point x="448" y="12" type="line"/>
      <point x="429" y="15"/>
      <point x="365" y="95"/>
      <point x="344" y="127" type="curve"/>
      <point x="368" y="301" type="line"/>
      <point x="480" y="301" type="line"/>
      <point x="482" y="317" type="line"/>
      <point x="354" y="317" type="line"/>
      <point x="331" y="147" type="line"/>
      <point x="290" y="203"/>
      <point x="250" y="260"/>
      <point x="212" y="316" type="curve"/>
      <point x="201" y="335"/>
      <point x="189" y="357"/>
      <point x="189" y="388" type="curve" smooth="yes"/>
      <point x="189" y="394"/>
      <point x="189" y="400"/>
      <point x="190" y="406" type="curve" smooth="yes"/>
      <point x="191" y="413" type="line" smooth="yes"/>
      <point x="198" y="461"/>
      <point x="231" y="490"/>
      <point x="299" y="490" type="curve" smooth="yes"/>
      <point x="342" y="490"/>
      <point x="384" y="477"/>
      <point x="400" y="469" type="curve"/>
      <point x="402" y="487" type="line"/>
      <point x="388" y="494"/>
      <point x="348" y="506"/>
      <point x="301" y="506" type="curve" smooth="yes"/>
      <point x="221" y="506"/>
      <point x="181" y="469"/>
      <point x="172" y="405" type="curve" smooth="yes"/>
      <point x="171" y="398"/>
      <point x="171" y="391"/>
      <point x="171" y="384" type="curve" smooth="yes"/>
      <point x="171" y="357"/>
      <point x="178" y="336"/>
      <point x="192" y="314" type="curve"/>
      <point x="122" y="303"/>
      <point x="70" y="243"/>
      <point x="61" y="178" type="curve" smooth="yes"/>
      <point x="55" y="138" type="line" smooth="yes"/>
      <point x="54" y="128"/>
      <point x="53" y="117"/>
      <point x="53" y="108" type="curve" smooth="yes"/>
      <point x="53" y="43"/>
      <point x="86" y="-6"/>
    </contour>
    <contour>
      <point x="183" y="10" type="curve" smooth="yes"/>
      <point x="109" y="10"/>
      <point x="69" y="44"/>
      <point x="69" y="107" type="curve" smooth="yes"/>
      <point x="69" y="116"/>
      <point x="70" y="125"/>
      <point x="71" y="134" type="curve" smooth="yes"/>
      <point x="77" y="178" type="line" smooth="yes"/>
      <point x="87" y="247"/>
      <point x="154" y="305"/>
      <point x="201" y="301" type="curve"/>
      <point x="240" y="244"/>
      <point x="284" y="184"/>
      <point x="327" y="123" type="curve"/>
      <point x="318" y="58"/>
      <point x="263" y="10"/>
    </contour>
  </outline>
</glyph>
<glyph name="quotesingle" format="2">
  <advance width="136"/>
  <unicode hex="0027"/>
  <note>
quotesingle
</note>
  <outline>
    <contour>
      <point x="86" y="431" type="curve"/>
      <point x="94" y="431" type="line"/>
      <point x="145" y="631" type="line"/>
      <point x="129" y="631" type="line"/>
      <point x="114" y="566"/>
      <point x="99" y="499"/>
    </contour>
  </outline>
</glyph>
<glyph name="parenleft" format="2">
  <advance width="317"/>
  <unicode hex="0028"/>
  <note>
parenleft
</note>
  <outline>
    <contour>
      <point x="223" y="-124" type="curve"/>
      <point x="225" y="-112" type="line"/>
      <point x="122" y="-96"/>
      <point x="73" y="21"/>
      <point x="73" y="160" type="curve" smooth="yes"/>
      <point x="73" y="190"/>
      <point x="76" y="221"/>
      <point x="80" y="252" type="curve" smooth="yes"/>
      <point x="107" y="444"/>
      <point x="222" y="619"/>
      <point x="344" y="655" type="curve"/>
      <point x="346" y="667" type="line"/>
      <point x="211" y="643"/>
      <point x="90" y="441"/>
      <point x="63" y="249" type="curve" smooth="yes"/>
      <point x="59" y="218"/>
      <point x="56" y="187"/>
      <point x="56" y="157" type="curve" smooth="yes"/>
      <point x="56" y="10"/>
      <point x="110" y="-115"/>
    </contour>
  </outline>
</glyph>
<glyph name="parenright" format="2">
  <advance width="317"/>
  <unicode hex="0029"/>
  <note>
parenright
</note>
  <outline>
    <contour>
      <point x="-22" y="-124" type="line"/>
      <point x="113" y="-100"/>
      <point x="234" y="102"/>
      <point x="261" y="294" type="curve" smooth="yes"/>
      <point x="265" y="325"/>
      <point x="268" y="356"/>
      <point x="268" y="386" type="curve" smooth="yes"/>
      <point x="268" y="533"/>
      <point x="214" y="658"/>
      <point x="101" y="667" type="curve"/>
      <point x="99" y="655" type="line"/>
      <point x="202" y="639"/>
      <point x="251" y="522"/>
      <point x="251" y="383" type="curve" smooth="yes"/>
      <point x="251" y="353"/>
      <point x="248" y="322"/>
      <point x="244" y="291" type="curve" smooth="yes"/>
      <point x="217" y="99"/>
      <point x="102" y="-76"/>
      <point x="-20" y="-112" type="curve"/>
    </contour>
  </outline>
</glyph>
<glyph name="hyphen" format="2">
  <advance width="271"/>
  <unicode hex="002D"/>
  <note>
hyphen
</note>
  <outline>
    <contour>
      <point x="45" y="244" type="line"/>
      <point x="224" y="244" type="line"/>
      <point x="228" y="260" type="line"/>
      <point x="49" y="260" type="line"/>
    </contour>
  </outline>
</glyph>
<glyph name="zero" format="2">
  <advance width="412"/>
  <unicode hex="0030"/>
  <note>
zero
</note>
  <outline>
    <contour>
      <point x="168" y="-12" type="curve" smooth="yes"/>
      <point x="247" y="-12"/>
      <point x="318" y="41"/>
      <point x="334" y="158" type="curve" smooth="yes"/>
      <point x="372" y="428" type="line" smooth="yes"/>
      <point x="374" y="442"/>
      <point x="375" y="454"/>
      <point x="375" y="466" type="curve" smooth="yes"/>
      <point x="375" y="556"/>
      <point x="324" y="599"/>
      <point x="256" y="599" type="curve" smooth="yes"/>
      <point x="180" y="599"/>
      <point x="106" y="546"/>
      <point x="90" y="428" type="curve" smooth="yes"/>
      <point x="52" y="158" type="line" smooth="yes"/>
      <point x="50" y="144"/>
      <point x="49" y="132"/>
      <point x="49" y="120" type="curve" smooth="yes"/>
      <point x="49" y="29"/>
      <point x="101" y="-12"/>
    </contour>
    <contour>
      <point x="171" y="4" type="curve" smooth="yes"/>
      <point x="107" y="4"/>
      <point x="66" y="50"/>
      <point x="66" y="128" type="curve" smooth="yes"/>
      <point x="66" y="138"/>
      <point x="66" y="149"/>
      <point x="68" y="161" type="curve" smooth="yes"/>
      <point x="106" y="426" type="line" smooth="yes"/>
      <point x="119" y="524"/>
      <point x="181" y="583"/>
      <point x="253" y="583" type="curve" smooth="yes"/>
      <point x="317" y="583"/>
      <point x="358" y="537"/>
      <point x="358" y="459" type="curve" smooth="yes"/>
      <point x="358" y="449"/>
      <point x="358" y="438"/>
      <point x="356" y="426" type="curve" smooth="yes"/>
      <point x="318" y="161" type="line" smooth="yes"/>
      <point x="305" y="63"/>
      <point x="244" y="4"/>
    </contour>
  </outline>
</glyph>
<glyph name="three" format="2">
  <advance width="389"/>
  <unicode hex="0033"/>
  <note>
three
</note>
  <outline>
    <contour>
      <point x="165" y="-8" type="curve" smooth="yes"/>
      <point x="252" y="-8"/>
      <point x="313" y="41"/>
      <point x="326" y="137" type="curve" smooth="yes"/>
      <point x="330" y="163" type="line" smooth="yes"/>
      <point x="331" y="173"/>
      <point x="332" y="182"/>
      <point x="332" y="192" type="curve" smooth="yes"/>
      <point x="332" y="249"/>
      <point x="307" y="300"/>
      <point x="239" y="309" type="curve"/>
      <point x="305" y="321"/>
      <point x="353" y="373"/>
      <point x="363" y="442" type="curve" smooth="yes"/>
      <point x="365" y="460" type="line" smooth="yes"/>
      <point x="366" y="470"/>
      <point x="367" y="479"/>
      <point x="367" y="488" type="curve" smooth="yes"/>
      <point x="367" y="555"/>
      <point x="328" y="595"/>
      <point x="249" y="595" type="curve" smooth="yes"/>
      <point x="160" y="595"/>
      <point x="107" y="543"/>
      <point x="95" y="460" type="curve" smooth="yes"/>
      <point x="91" y="429" type="line"/>
      <point x="107" y="429" type="line"/>
      <point x="111" y="459" type="line" smooth="yes"/>
      <point x="122" y="534"/>
      <point x="163" y="579"/>
      <point x="247" y="579" type="curve" smooth="yes"/>
      <point x="319" y="579"/>
      <point x="350" y="545"/>
      <point x="350" y="488" type="curve" smooth="yes"/>
      <point x="350" y="479"/>
      <point x="350" y="469"/>
      <point x="348" y="459" type="curve" smooth="yes"/>
      <point x="346" y="440" type="line" smooth="yes"/>
      <point x="336" y="370"/>
      <point x="282" y="317"/>
      <point x="210" y="317" type="curve" smooth="yes"/>
      <point x="146" y="317" type="line"/>
      <point x="144" y="301" type="line"/>
      <point x="208" y="301" type="line" smooth="yes"/>
      <point x="281" y="301"/>
      <point x="316" y="259"/>
      <point x="316" y="192" type="curve" smooth="yes"/>
      <point x="316" y="183"/>
      <point x="315" y="173"/>
      <point x="314" y="163" type="curve" smooth="yes"/>
      <point x="310" y="137" type="line" smooth="yes"/>
      <point x="298" y="51"/>
      <point x="252" y="9"/>
      <point x="167" y="7" type="curve" smooth="yes"/>
      <point x="96" y="9"/>
      <point x="58" y="39"/>
      <point x="58" y="105" type="curve" smooth="yes"/>
      <point x="58" y="115"/>
      <point x="58" y="126"/>
      <point x="60" y="137" type="curve" smooth="yes"/>
      <point x="66" y="183" type="line"/>
      <point x="50" y="183" type="line"/>
      <point x="44" y="137" type="line" smooth="yes"/>
      <point x="43" y="126"/>
      <point x="42" y="116"/>
      <point x="42" y="106" type="curve" smooth="yes"/>
      <point x="42" y="33"/>
      <point x="85" y="-8"/>
    </contour>
  </outline>
</glyph>
<glyph name="four" format="2">
  <advance width="364"/>
  <unicode hex="0034"/>
  <note>
four
</note>
  <outline>
    <contour>
      <point x="226" y="0" type="line"/>
      <point x="242" y="0" type="line"/>
      <point x="259" y="119" type="line"/>
      <point x="311" y="119" type="line"/>
      <point x="313" y="135" type="line"/>
      <point x="261" y="135" type="line"/>
      <point x="326" y="591" type="line"/>
      <point x="313" y="591" type="line"/>
      <point x="19" y="134" type="line"/>
      <point x="17" y="119" type="line"/>
      <point x="243" y="119" type="line"/>
    </contour>
    <contour>
      <point x="245" y="135" type="line"/>
      <point x="37" y="135" type="line"/>
      <point x="304" y="549" type="line"/>
    </contour>
  </outline>
</glyph>
<glyph name="seven" format="2">
  <advance width="275"/>
  <unicode hex="0037"/>
  <note>
seven
</note>
  <outline>
    <contour>
      <point x="24" y="0" type="line"/>
      <point x="41" y="0" type="line"/>
      <point x="291" y="576" type="line"/>
      <point x="294" y="591" type="line"/>
      <point x="61" y="591" type="line"/>
      <point x="58" y="575" type="line"/>
      <point x="274" y="575" type="line"/>
    </contour>
  </outline>
</glyph>
<glyph name="equal" format="2">
  <advance width="375"/>
  <unicode hex="003D"/>
  <note>
equal
</note>
  <outline>
    <contour>
      <point x="70" y="390" type="line"/>
      <point x="345" y="390" type="line"/>
      <point x="347" y="406" type="line"/>
      <point x="72" y="406" type="line"/>
    </contour>
    <contour>
      <point x="40" y="177" type="line"/>
      <point x="315" y="177" type="line"/>
      <point x="317" y="193" type="line"/>
      <point x="42" y="193" type="line"/>
    </contour>
  </outline>
</glyph>
<glyph name="greater" format="2">
  <advance width="328"/>
  <unicode hex="003E"/>
  <note>
greater
</note>
  <outline>
    <contour>
      <point x="39" y="163" type="line"/>
      <point x="299" y="320" type="line"/>
      <point x="301" y="333" type="line"/>
      <point x="85" y="491" type="line"/>
      <point x="82" y="472" type="line"/>
      <point x="282" y="328" type="line"/>
      <point x="42" y="182" type="line"/>
    </contour>
  </outline>
</glyph>
<glyph name="B" format="2">
  <advance width="414"/>
  <unicode hex="0042"/>
  <note>
B
</note>
  <outline>
    <contour>
      <point x="41" y="0" type="line"/>
      <point x="195" y="0" type="line" smooth="yes"/>
      <point x="268" y="0"/>
      <point x="321" y="16"/>
      <point x="335" y="120" type="curve" smooth="yes"/>
      <point x="348" y="209" type="line" smooth="yes"/>
      <point x="349" y="216"/>
      <point x="349" y="222"/>
      <point x="349" y="228" type="curve" smooth="yes"/>
      <point x="349" y="278"/>
      <point x="320" y="312"/>
      <point x="267" y="312" type="curve"/>
      <point x="325" y="321"/>
      <point x="364" y="363"/>
      <point x="372" y="419" type="curve" smooth="yes"/>
      <point x="383" y="494" type="line" smooth="yes"/>
      <point x="384" y="501"/>
      <point x="384" y="507"/>
      <point x="384" y="513" type="curve" smooth="yes"/>
      <point x="384" y="571"/>
      <point x="343" y="591"/>
      <point x="288" y="591" type="curve" smooth="yes"/>
      <point x="125" y="591" type="line"/>
    </contour>
    <contour>
      <point x="195" y="16" type="curve" smooth="yes"/>
      <point x="60" y="16" type="line"/>
      <point x="100" y="303" type="line"/>
      <point x="231" y="303" type="line" smooth="yes"/>
      <point x="290" y="303"/>
      <point x="334" y="287"/>
      <point x="334" y="230" type="curve" smooth="yes"/>
      <point x="334" y="225"/>
      <point x="334" y="220"/>
      <point x="333" y="214" type="curve" smooth="yes"/>
      <point x="320" y="125" type="line" smooth="yes"/>
      <point x="307" y="31"/>
      <point x="265" y="16"/>
    </contour>
    <contour>
      <point x="228" y="319" type="curve" smooth="yes"/>
      <point x="102" y="319" type="line"/>
      <point x="138" y="575" type="line"/>
      <point x="285" y="575" type="line" smooth="yes"/>
      <point x="334" y="575"/>
      <point x="368" y="552"/>
      <point x="368" y="509" type="curve" smooth="yes"/>
      <point x="368" y="505"/>
      <point x="368" y="500"/>
      <point x="367" y="496" type="curve" smooth="yes"/>
      <point x="356" y="420" type="line" smooth="yes"/>
      <point x="348" y="357"/>
      <point x="303" y="319"/>
    </contour>
  </outline>
</glyph>
<glyph name="F" format="2">
  <advance width="340"/>
  <unicode hex="0046"/>
  <note>
F
</note>
  <outline>
    <contour>
      <point x="41" y="0" type="line"/>
      <point x="57" y="0" type="line"/>
      <point x="100" y="303" type="line"/>
      <point x="278" y="303" type="line"/>
      <point x="280" y="319" type="line"/>
      <point x="102" y="319" type="line"/>
      <point x="138" y="575" type="line"/>
      <point x="367" y="575" type="line"/>
      <point x="370" y="591" type="line"/>
      <point x="125" y="591" type="line"/>
    </contour>
  </outline>
</glyph>
<glyph name="G" format="2">
  <advance width="410"/>
  <unicode hex="0047"/>
  <note>
G
</note>
  <anchor x="170" y="-10" name="bottom"/>
  <anchor x="253" y="591" name="top"/>
  <outline>
    <contour>
      <point x="170" y="-12" type="curve" smooth="yes"/>
      <point x="231" y="-12"/>
      <point x="287" y="27"/>
      <point x="303" y="63" type="curve"/>
      <point x="294" y="0" type="line"/>
      <point x="310" y="0" type="line"/>
      <point x="348" y="271" type="line"/>
      <point x="225" y="271" type="line"/>
      <point x="223" y="256" type="line"/>
      <point x="330" y="256" type="line"/>
      <point x="311" y="125" type="line" smooth="yes"/>
      <point x="301" y="49"/>
      <point x="241" y="4"/>
      <point x="173" y="4" type="curve" smooth="yes"/>
      <point x="112" y="4"/>
      <point x="63" y="15"/>
      <point x="63" y="92" type="curve" smooth="yes"/>
      <point x="63" y="102"/>
      <point x="64" y="113"/>
      <point x="66" y="125" type="curve" smooth="yes"/>
      <point x="115" y="468" type="line" smooth="yes"/>
      <point x="128" y="566"/>
      <point x="178" y="583"/>
      <point x="255" y="583" type="curve" smooth="yes"/>
      <point x="323" y="583"/>
      <point x="362" y="570"/>
      <point x="362" y="501" type="curve" smooth="yes"/>
      <point x="362" y="491"/>
      <point x="362" y="480"/>
      <point x="360" y="468" type="curve" smooth="yes"/>
      <point x="350" y="401" type="line"/>
      <point x="366" y="401" type="line"/>
      <point x="376" y="469" type="line" smooth="yes"/>
      <point x="378" y="483"/>
      <point x="379" y="495"/>
      <point x="379" y="506" type="curve" smooth="yes"/>
      <point x="379" y="587"/>
      <point x="329" y="599"/>
      <point x="259" y="599" type="curve" smooth="yes"/>
      <point x="180" y="599"/>
      <point x="115" y="585"/>
      <point x="99" y="469" type="curve" smooth="yes"/>
      <point x="49" y="118" type="line" smooth="yes"/>
      <point x="47" y="106"/>
      <point x="46" y="94"/>
      <point x="46" y="84" type="curve" smooth="yes"/>
      <point x="46" y="1"/>
      <point x="102" y="-12"/>
    </contour>
  </outline>
</glyph>
<glyph name="L" format="2">
  <advance width="293"/>
  <unicode hex="004C"/>
  <note>
L
</note>
  <anchor x="145" y="0" name="bottom"/>
  <anchor x="169" y="296" name="center"/>
  <anchor x="139" y="591" name="top"/>
  <anchor x="238" y="481" name="topright"/>
  <outline>
    <contour>
      <point x="41" y="0" type="line"/>
      <point x="255" y="0" type="line"/>
      <point x="258" y="16" type="line"/>
      <point x="60" y="16" type="line"/>
      <point x="141" y="591" type="line"/>
      <point x="125" y="591" type="line"/>
    </contour>
  </outline>
</glyph>
<glyph name="Q" format="2">
  <advance width="416"/>
  <unicode hex="0051"/>
  <note>
Q
</note>
  <outline>
    <contour>
      <point x="267" y="-110" type="line"/>
      <point x="281" y="-101" type="line"/>
      <point x="240" y="-5" type="line"/>
      <point x="286" y="7"/>
      <point x="319" y="38"/>
      <point x="330" y="118" type="curve" smooth="yes"/>
      <point x="380" y="469" type="line" smooth="yes"/>
      <point x="382" y="481"/>
      <point x="383" y="493"/>
      <point x="383" y="503" type="curve" smooth="yes"/>
      <point x="383" y="586"/>
      <point x="327" y="599"/>
      <point x="258" y="599" type="curve" smooth="yes"/>
      <point x="181" y="599"/>
      <point x="115" y="585"/>
      <point x="99" y="469" type="curve" smooth="yes"/>
      <point x="49" y="118" type="line" smooth="yes"/>
      <point x="47" y="106"/>
      <point x="46" y="94"/>
      <point x="46" y="84" type="curve" smooth="yes"/>
      <point x="46" y="1"/>
      <point x="102" y="-12"/>
      <point x="170" y="-12" type="curve" smooth="yes"/>
      <point x="189" y="-12"/>
      <point x="206" y="-11"/>
      <point x="222" y="-9" type="curve"/>
    </contour>
    <contour>
      <point x="173" y="4" type="curve" smooth="yes"/>
      <point x="112" y="4"/>
      <point x="63" y="14"/>
      <point x="63" y="89" type="curve" smooth="yes"/>
      <point x="63" y="98"/>
      <point x="64" y="109"/>
      <point x="66" y="121" type="curve" smooth="yes"/>
      <point x="114" y="466" type="line" smooth="yes"/>
      <point x="129" y="570"/>
      <point x="186" y="583"/>
      <point x="255" y="583" type="curve" smooth="yes"/>
      <point x="315" y="583"/>
      <point x="365" y="573"/>
      <point x="365" y="498" type="curve" smooth="yes"/>
      <point x="365" y="488"/>
      <point x="365" y="478"/>
      <point x="363" y="466" type="curve" smooth="yes"/>
      <point x="315" y="121" type="line" smooth="yes"/>
      <point x="300" y="17"/>
      <point x="243" y="4"/>
    </contour>
  </outline>
</glyph>
<glyph name="S" format="2">
  <advance width="347"/>
  <unicode hex="0053"/>
  <note>
S
</note>
  <anchor x="142" y="0" name="bottom"/>
  <anchor x="222" y="591" name="top"/>
  <outline>
    <contour>
      <point x="132" y="-9" type="curve" smooth="yes"/>
      <point x="209" y="-9"/>
      <point x="277" y="31"/>
      <point x="293" y="146" type="curve" smooth="yes"/>
      <point x="295" y="161"/>
      <point x="296" y="174"/>
      <point x="296" y="185" type="curve" smooth="yes"/>
      <point x="296" y="256"/>
      <point x="257" y="277"/>
      <point x="179" y="310" type="curve" smooth="yes"/>
      <point x="130" y="330"/>
      <point x="86" y="351"/>
      <point x="86" y="420" type="curve" smooth="yes"/>
      <point x="86" y="429"/>
      <point x="87" y="438"/>
      <point x="88" y="448" type="curve" smooth="yes"/>
      <point x="98" y="523"/>
      <point x="135" y="579"/>
      <point x="218" y="579" type="curve" smooth="yes"/>
      <point x="282" y="579"/>
      <point x="318" y="546"/>
      <point x="318" y="488" type="curve" smooth="yes"/>
      <point x="318" y="480"/>
      <point x="317" y="473"/>
      <point x="316" y="465" type="curve" smooth="yes"/>
      <point x="311" y="429" type="line"/>
      <point x="327" y="429" type="line"/>
      <point x="333" y="469" type="line" smooth="yes"/>
      <point x="334" y="478"/>
      <point x="335" y="486"/>
      <point x="335" y="494" type="curve" smooth="yes"/>
      <point x="335" y="558"/>
      <point x="291" y="595"/>
      <point x="220" y="595" type="curve" smooth="yes"/>
      <point x="128" y="595"/>
      <point x="84" y="537"/>
      <point x="72" y="448" type="curve" smooth="yes"/>
      <point x="70" y="436"/>
      <point x="70" y="426"/>
      <point x="70" y="416" type="curve" smooth="yes"/>
      <point x="70" y="347"/>
      <point x="108" y="321"/>
      <point x="168" y="296" type="curve" smooth="yes"/>
      <point x="228" y="272"/>
      <point x="278" y="254"/>
      <point x="278" y="178" type="curve" smooth="yes"/>
      <point x="278" y="168"/>
      <point x="278" y="158"/>
      <point x="276" y="146" type="curve" smooth="yes"/>
      <point x="262" y="42"/>
      <point x="204" y="7"/>
      <point x="134" y="7" type="curve" smooth="yes"/>
      <point x="77" y="7"/>
      <point x="43" y="34"/>
      <point x="43" y="125" type="curve" smooth="yes"/>
      <point x="43" y="136"/>
      <point x="44" y="149"/>
      <point x="45" y="163" type="curve" smooth="yes"/>
      <point x="46" y="175" type="line"/>
      <point x="30" y="175" type="line"/>
      <point x="29" y="163" type="line" smooth="yes"/>
      <point x="28" y="148"/>
      <point x="27" y="134"/>
      <point x="27" y="121" type="curve" smooth="yes"/>
      <point x="27" y="22"/>
      <point x="64" y="-9"/>
    </contour>
  </outline>
</glyph>
<glyph name="T" format="2">
  <advance width="262"/>
  <unicode hex="0054"/>
  <note>
T
</note>
  <anchor x="96" y="0" name="bottom"/>
  <anchor x="154" y="411" name="center"/>
  <anchor x="179" y="591" name="top"/>
  <outline>
    <contour>
      <point x="88" y="0" type="line"/>
      <point x="104" y="0" type="line"/>
      <point x="185" y="575" type="line"/>
      <point x="297" y="575" type="line"/>
      <point x="300" y="591" type="line"/>
      <point x="61" y="591" type="line"/>
      <point x="58" y="575" type="line"/>
      <point x="169" y="575" type="line"/>
    </contour>
  </outline>
</glyph>
<glyph name="U" format="2">
  <advance width="429"/>
  <unicode hex="0055"/>
  <note>
U
</note>
  <anchor x="180" y="0" name="bottom"/>
  <anchor x="192" y="-10" name="ogonek"/>
  <anchor x="263" y="591" name="top"/>
  <anchor x="380" y="591" name="topright"/>
  <outline>
    <contour>
      <point x="173" y="-9" type="curve" smooth="yes"/>
      <point x="249" y="-9"/>
      <point x="321" y="9"/>
      <point x="336" y="113" type="curve" smooth="yes"/>
      <point x="403" y="591" type="line"/>
      <point x="387" y="591" type="line"/>
      <point x="320" y="116" type="line" smooth="yes"/>
      <point x="307" y="24"/>
      <point x="236" y="7"/>
      <point x="175" y="7" type="curve" smooth="yes"/>
      <point x="120" y="7"/>
      <point x="69" y="21"/>
      <point x="69" y="91" type="curve" smooth="yes"/>
      <point x="69" y="99"/>
      <point x="70" y="107"/>
      <point x="71" y="116" type="curve" smooth="yes"/>
      <point x="138" y="591" type="line"/>
      <point x="122" y="591" type="line"/>
      <point x="55" y="113" type="line" smooth="yes"/>
      <point x="53" y="102"/>
      <point x="53" y="92"/>
      <point x="53" y="82" type="curve" smooth="yes"/>
      <point x="53" y="5"/>
      <point x="106" y="-9"/>
    </contour>
    <contour>
      <point x="173" y="-12" type="curve" smooth="yes"/>
      <point x="255" y="-12"/>
      <point x="318" y="13"/>
      <point x="332" y="110" type="curve" smooth="yes"/>
      <point x="399" y="591" type="line"/>
      <point x="387" y="591" type="line"/>
      <point x="319" y="106" type="line" smooth="yes"/>
      <point x="307" y="19"/>
      <point x="244" y="-3"/>
      <point x="174" y="-3" type="curve" smooth="yes"/>
      <point x="112" y="-3"/>
      <point x="68" y="15"/>
      <point x="68" y="81" type="curve" smooth="yes"/>
      <point x="68" y="88"/>
      <point x="69" y="97"/>
      <point x="70" y="106" type="curve" smooth="yes"/>
      <point x="138" y="591" type="line"/>
      <point x="126" y="591" type="line"/>
      <point x="59" y="110" type="line" smooth="yes"/>
      <point x="57" y="99"/>
      <point x="56" y="88"/>
      <point x="56" y="79" type="curve" smooth="yes"/>
      <point x="56" y="8"/>
      <point x="103" y="-12"/>
    </contour>
  </outline>
</glyph>
<glyph name="V" format="2">
  <advance width="308"/>
  <unicode hex="0056"/>
  <note>
V
</note>
  <outline>
    <contour>
      <point x="114" y="0" type="line"/>
      <point x="128" y="0" type="line"/>
      <point x="333" y="591" type="line"/>
      <point x="317" y="591" type="line"/>
      <point x="127" y="44" type="line"/>
      <point x="87" y="591" type="line"/>
      <point x="71" y="591" type="line"/>
    </contour>
  </outline>
</glyph>
<glyph name="X" format="2">
  <advance width="301"/>
  <unicode hex="0058"/>
  <note>
X
</note>
  <outline>
    <contour>
      <point x="-9" y="0" type="line"/>
      <point x="8" y="0" type="line"/>
      <point x="148" y="290" type="line"/>
      <point x="164" y="290" type="line"/>
      <point x="219" y="0" type="line"/>
      <point x="237" y="0" type="line"/>
      <point x="179" y="298" type="line"/>
      <point x="323" y="591" type="line"/>
      <point x="306" y="591" type="line"/>
      <point x="166" y="306" type="line"/>
      <point x="149" y="306" type="line"/>
      <point x="102" y="591" type="line"/>
      <point x="86" y="591" type="line"/>
      <point x="134" y="298" type="line"/>
    </contour>
  </outline>
</glyph>
<glyph name="Y" format="2">
  <advance width="290"/>
  <unicode hex="0059"/>
  <note>
Y
</note>
  <anchor x="104" y="0" name="bottom"/>
  <anchor x="187" y="591" name="top"/>
  <anchor x="80" y="591" name="topleft"/>
  <outline>
    <contour>
      <point x="94" y="0" type="line"/>
      <point x="110" y="0" type="line"/>
      <point x="146" y="253" type="line"/>
      <point x="317" y="591" type="line"/>
      <point x="300" y="591" type="line"/>
      <point x="142" y="275" type="line"/>
      <point x="86" y="591" type="line"/>
      <point x="69" y="591" type="line"/>
      <point x="130" y="253" type="line"/>
    </contour>
  </outline>
</glyph>
<glyph name="Z" format="2">
  <advance width="271"/>
  <unicode hex="005A"/>
  <note>
Z
</note>
  <anchor x="101" y="0" name="bottom"/>
  <anchor x="143" y="296" name="center"/>
  <anchor x="184" y="591" name="top"/>
  <outline>
    <contour>
      <point x="-12" y="0" type="line"/>
      <point x="211" y="0" type="line"/>
      <point x="214" y="16" type="line"/>
      <point x="10" y="16" type="line"/>
      <point x="287" y="577" type="line"/>
      <point x="289" y="591" type="line"/>
      <point x="87" y="591" type="line"/>
      <point x="84" y="575" type="line"/>
      <point x="271" y="577" type="line"/>
      <point x="-10" y="10" type="line"/>
    </contour>
  </outline>
</glyph>
<glyph name="asciicircum" format="2">
  <advance width="372"/>
  <unicode hex="005E"/>
  <note>
asciicircum
</note>
  <outline>
    <contour>
      <point x="81" y="467" type="line"/>
      <point x="101" y="467" type="line"/>
      <point x="238" y="615" type="line"/>
      <point x="332" y="467" type="line"/>
      <point x="353" y="467" type="line"/>
      <point x="249" y="631" type="line"/>
      <point x="233" y="631" type="line"/>
    </contour>
  </outline>
</glyph>
<glyph name="a" format="2">
  <advance width="367"/>
  <unicode hex="0061"/>
  <note>
a
</note>
  <anchor x="139" y="0" name="bottom"/>
  <anchor x="272" y="0" name="ogonek"/>
  <anchor x="225" y="495" name="top"/>
  <outline>
    <contour>
      <point x="118" y="-7" type="curve" smooth="yes"/>
      <point x="202" y="-7"/>
      <point x="244" y="49"/>
      <point x="256" y="76" type="curve"/>
      <point x="247" y="0" type="line"/>
      <point x="264" y="0" type="line"/>
      <point x="334" y="494" type="line"/>
      <point x="318" y="494" type="line"/>
      <point x="314" y="466" type="line"/>
      <point x="304" y="490"/>
      <point x="259" y="503"/>
      <point x="216" y="503" type="curve" smooth="yes"/>
      <point x="114" y="503"/>
      <point x="89" y="446"/>
      <point x="78" y="372" type="curve" smooth="yes"/>
      <point x="42" y="124" type="line" smooth="yes"/>
      <point x="40" y="108"/>
      <point x="38" y="92"/>
      <point x="38" y="78" type="curve" smooth="yes"/>
      <point x="38" y="29"/>
      <point x="55" y="-7"/>
    </contour>
    <contour>
      <point x="123" y="9" type="curve" smooth="yes"/>
      <point x="68" y="9"/>
      <point x="54" y="38"/>
      <point x="54" y="78" type="curve" smooth="yes"/>
      <point x="54" y="93"/>
      <point x="56" y="110"/>
      <point x="59" y="127" type="curve" smooth="yes"/>
      <point x="94" y="369" type="line" smooth="yes"/>
      <point x="105" y="445"/>
      <point x="133" y="487"/>
      <point x="215" y="487" type="curve" smooth="yes"/>
      <point x="294" y="487"/>
      <point x="307" y="451"/>
      <point x="310" y="439" type="curve"/>
      <point x="274" y="186" type="line" smooth="yes"/>
      <point x="265" y="124"/>
      <point x="237" y="9"/>
    </contour>
  </outline>
</glyph>
<glyph name="b" format="2">
  <advance width="363"/>
  <unicode hex="0062"/>
  <note>
b
</note>
  <outline>
    <contour>
      <point x="149" y="-7" type="curve" smooth="yes"/>
      <point x="254" y="-7"/>
      <point x="274" y="48"/>
      <point x="285" y="124" type="curve" smooth="yes"/>
      <point x="321" y="372" type="line" smooth="yes"/>
      <point x="323" y="387"/>
      <point x="325" y="401"/>
      <point x="325" y="414" type="curve" smooth="yes"/>
      <point x="325" y="468"/>
      <point x="302" y="503"/>
      <point x="221" y="503" type="curve" smooth="yes"/>
      <point x="154" y="503"/>
      <point x="124" y="477"/>
      <point x="109" y="451" type="curve"/>
      <point x="134" y="630" type="line"/>
      <point x="118" y="630" type="line"/>
      <point x="46" y="124" type="line" smooth="yes"/>
      <point x="44" y="110"/>
      <point x="43" y="97"/>
      <point x="43" y="85" type="curve" smooth="yes"/>
      <point x="43" y="29"/>
      <point x="66" y="-7"/>
    </contour>
    <contour>
      <point x="150" y="9" type="curve" smooth="yes"/>
      <point x="75" y="9"/>
      <point x="59" y="43"/>
      <point x="59" y="84" type="curve" smooth="yes"/>
      <point x="59" y="99"/>
      <point x="62" y="116"/>
      <point x="64" y="133" type="curve" smooth="yes"/>
      <point x="97" y="366" type="line" smooth="yes"/>
      <point x="107" y="434"/>
      <point x="137" y="487"/>
      <point x="218" y="487" type="curve" smooth="yes"/>
      <point x="292" y="487"/>
      <point x="308" y="451"/>
      <point x="308" y="410" type="curve" smooth="yes"/>
      <point x="308" y="397"/>
      <point x="306" y="383"/>
      <point x="304" y="369" type="curve" smooth="yes"/>
      <point x="271" y="133" type="line" smooth="yes"/>
      <point x="263" y="74"/>
      <point x="248" y="9"/>
    </contour>
  </outline>
</glyph>
<glyph name="c" format="2">
  <advance width="346"/>
  <unicode hex="0063"/>
  <note>
c
</note>
  <anchor x="140" y="0" name="bottom"/>
  <anchor x="211" y="495" name="top"/>
  <outline>
    <contour>
      <point x="145" y="-7" type="curve" smooth="yes"/>
      <point x="257" y="-7"/>
      <point x="273" y="62"/>
      <point x="282" y="124" type="curve" smooth="yes"/>
      <point x="288" y="167" type="line"/>
      <point x="272" y="167" type="line"/>
      <point x="266" y="127" type="line" smooth="yes"/>
      <point x="258" y="74"/>
      <point x="244" y="9"/>
      <point x="146" y="9" type="curve" smooth="yes"/>
      <point x="71" y="9"/>
      <point x="55" y="43"/>
      <point x="55" y="84" type="curve" smooth="yes"/>
      <point x="55" y="98"/>
      <point x="57" y="112"/>
      <point x="59" y="127" type="curve" smooth="yes"/>
      <point x="93" y="369" type="line" smooth="yes"/>
      <point x="100" y="422"/>
      <point x="115" y="487"/>
      <point x="214" y="487" type="curve" smooth="yes"/>
      <point x="275" y="487"/>
      <point x="298" y="462"/>
      <point x="298" y="430" type="curve" smooth="yes"/>
      <point x="298" y="409"/>
      <point x="288" y="385"/>
      <point x="273" y="363" type="curve" smooth="yes"/>
      <point x="239" y="315" type="line"/>
      <point x="259" y="315" type="line"/>
      <point x="298" y="373" type="line" smooth="yes"/>
      <point x="310" y="390"/>
      <point x="317" y="411"/>
      <point x="317" y="431" type="curve" smooth="yes"/>
      <point x="317" y="468"/>
      <point x="290" y="503"/>
      <point x="216" y="503" type="curve" smooth="yes"/>
      <point x="101" y="503"/>
      <point x="85" y="433"/>
      <point x="77" y="372" type="curve" smooth="yes"/>
      <point x="43" y="124" type="line" smooth="yes"/>
      <point x="41" y="109"/>
      <point x="39" y="93"/>
      <point x="39" y="78" type="curve" smooth="yes"/>
      <point x="39" y="32"/>
      <point x="57" y="-7"/>
    </contour>
  </outline>
</glyph>
<glyph name="d" format="2">
  <advance width="369"/>
  <unicode hex="0064"/>
  <note>
d
</note>
  <anchor x="142" y="0" name="bottom"/>
  <anchor x="301" y="553" name="center"/>
  <anchor x="346" y="630" name="top"/>
  <anchor x="389" y="503" name="topright"/>
  <outline>
    <contour>
      <point x="148" y="-7" type="curve" smooth="yes"/>
      <point x="252" y="-7"/>
      <point x="271" y="48"/>
      <point x="282" y="124" type="curve" smooth="yes"/>
      <point x="355" y="630" type="line"/>
      <point x="339" y="630" type="line"/>
      <point x="314" y="462" type="line"/>
      <point x="309" y="476"/>
      <point x="283" y="503"/>
      <point x="220" y="503" type="curve" smooth="yes"/>
      <point x="118" y="503"/>
      <point x="90" y="447"/>
      <point x="79" y="372" type="curve" smooth="yes"/>
      <point x="42" y="124" type="line" smooth="yes"/>
      <point x="40" y="110"/>
      <point x="39" y="97"/>
      <point x="39" y="85" type="curve" smooth="yes"/>
      <point x="39" y="29"/>
      <point x="65" y="-7"/>
    </contour>
    <contour>
      <point x="150" y="9" type="curve" smooth="yes"/>
      <point x="75" y="9"/>
      <point x="57" y="40"/>
      <point x="57" y="88" type="curve" smooth="yes"/>
      <point x="57" y="106"/>
      <point x="59" y="125"/>
      <point x="62" y="146" type="curve" smooth="yes"/>
      <point x="92" y="354" type="line" smooth="yes"/>
      <point x="102" y="422"/>
      <point x="118" y="487"/>
      <point x="213" y="487" type="curve" smooth="yes"/>
      <point x="287" y="487"/>
      <point x="308" y="451"/>
      <point x="308" y="417" type="curve" smooth="yes"/>
      <point x="308" y="414"/>
      <point x="308" y="410"/>
      <point x="307" y="406" type="curve" smooth="yes"/>
      <point x="266" y="127" type="line" smooth="yes"/>
      <point x="254" y="48"/>
      <point x="229" y="9"/>
    </contour>
  </outline>
</glyph>
<glyph name="e" format="2">
  <advance width="354"/>
  <unicode hex="0065"/>
  <note>
e
</note>
  <anchor x="145" y="0" name="bottom"/>
  <anchor x="236" y="10" name="ogonek"/>
  <anchor x="215" y="495" name="top"/>
  <outline>
    <contour>
      <point x="144" y="-7" type="curve" smooth="yes"/>
      <point x="257" y="-7"/>
      <point x="273" y="62"/>
      <point x="282" y="124" type="curve" smooth="yes"/>
      <point x="288" y="167" type="line"/>
      <point x="272" y="167" type="line"/>
      <point x="266" y="127" type="line" smooth="yes"/>
      <point x="257" y="66"/>
      <point x="244" y="9"/>
      <point x="146" y="9" type="curve" smooth="yes"/>
      <point x="71" y="9"/>
      <point x="55" y="42"/>
      <point x="55" y="84" type="curve" smooth="yes"/>
      <point x="55" y="98"/>
      <point x="57" y="112"/>
      <point x="59" y="127" type="curve" smooth="yes"/>
      <point x="73" y="228" type="line"/>
      <point x="189" y="241"/>
      <point x="300" y="263"/>
      <point x="316" y="372" type="curve" smooth="yes"/>
      <point x="318" y="387"/>
      <point x="320" y="403"/>
      <point x="320" y="417" type="curve" smooth="yes"/>
      <point x="320" y="465"/>
      <point x="301" y="503"/>
      <point x="216" y="503" type="curve" smooth="yes"/>
      <point x="105" y="503"/>
      <point x="85" y="433"/>
      <point x="77" y="372" type="curve" smooth="yes"/>
      <point x="43" y="124" type="line" smooth="yes"/>
      <point x="41" y="109"/>
      <point x="39" y="93"/>
      <point x="39" y="78" type="curve" smooth="yes"/>
      <point x="39" y="32"/>
      <point x="57" y="-7"/>
    </contour>
    <contour>
      <point x="75" y="244" type="curve"/>
      <point x="92" y="363" type="line" smooth="yes"/>
      <point x="103" y="438"/>
      <point x="125" y="487"/>
      <point x="214" y="487" type="curve" smooth="yes"/>
      <point x="288" y="487"/>
      <point x="304" y="458"/>
      <point x="304" y="418" type="curve" smooth="yes"/>
      <point x="304" y="403"/>
      <point x="302" y="388"/>
      <point x="300" y="372" type="curve" smooth="yes"/>
      <point x="289" y="293"/>
      <point x="199" y="252"/>
    </contour>
  </outline>
</glyph>
<glyph name="f" format="2">
  <advance width="184"/>
  <unicode hex="0066"/>
  <note>
f
</note>
  <outline>
    <contour>
      <point x="-39" y="-118" type="curve" smooth="yes"/>
      <point x="20" y="-117"/>
      <point x="39" y="-86"/>
      <point x="51" y="0" type="curve" smooth="yes"/>
      <point x="116" y="458" type="line"/>
      <point x="232" y="458" type="line"/>
      <point x="234" y="474" type="line"/>
      <point x="118" y="474" type="line"/>
      <point x="128" y="548" type="line" smooth="yes"/>
      <point x="133" y="585"/>
      <point x="150" y="621"/>
      <point x="195" y="621" type="curve" smooth="yes"/>
      <point x="214" y="621"/>
      <point x="230" y="619"/>
      <point x="254" y="616" type="curve"/>
      <point x="256" y="632" type="line"/>
      <point x="247" y="633"/>
      <point x="223" y="636"/>
      <point x="198" y="636" type="curve" smooth="yes"/>
      <point x="146" y="636"/>
      <point x="120" y="605"/>
      <point x="112" y="543" type="curve" smooth="yes"/>
      <point x="102" y="474" type="line"/>
      <point x="71" y="474" type="line"/>
      <point x="69" y="458" type="line"/>
      <point x="100" y="458" type="line"/>
      <point x="35" y="0" type="line" smooth="yes"/>
      <point x="24" y="-73"/>
      <point x="13" y="-103"/>
      <point x="-36" y="-103" type="curve" smooth="yes"/>
      <point x="-55" y="-103"/>
      <point x="-76" y="-101"/>
      <point x="-82" y="-100" type="curve"/>
      <point x="-84" y="-114" type="line"/>
      <point x="-78" y="-115"/>
      <point x="-64" y="-118"/>
    </contour>
  </outline>
</glyph>
<glyph name="g" format="2">
  <advance width="365"/>
  <unicode hex="0067"/>
  <note>
g
</note>
  <anchor x="127" y="-116" name="bottom"/>
  <anchor x="213" y="495" name="top"/>
  <outline>
    <contour>
      <point x="125" y="-115" type="curve" smooth="yes"/>
      <point x="208" y="-115"/>
      <point x="252" y="-71"/>
      <point x="263" y="5" type="curve" smooth="yes"/>
      <point x="332" y="495" type="line"/>
      <point x="319" y="495" type="line"/>
      <point x="312" y="466" type="line"/>
      <point x="305" y="474"/>
      <point x="282" y="503"/>
      <point x="213" y="503" type="curve" smooth="yes"/>
      <point x="100" y="503"/>
      <point x="85" y="433"/>
      <point x="76" y="372" type="curve" smooth="yes"/>
      <point x="46" y="155" type="line" smooth="yes"/>
      <point x="44" y="140"/>
      <point x="42" y="125"/>
      <point x="42" y="111" type="curve" smooth="yes"/>
      <point x="42" y="64"/>
      <point x="61" y="24"/>
      <point x="147" y="24" type="curve" smooth="yes"/>
      <point x="201" y="24"/>
      <point x="244" y="51"/>
      <point x="258" y="78" type="curve"/>
      <point x="247" y="3" type="line" smooth="yes"/>
      <point x="236" y="-78"/>
      <point x="181" y="-99"/>
      <point x="127" y="-99" type="curve" smooth="yes"/>
      <point x="97" y="-99"/>
      <point x="55" y="-99"/>
      <point x="50" y="-65" type="curve"/>
      <point x="34" y="-65" type="line"/>
      <point x="33" y="-104"/>
      <point x="71" y="-115"/>
    </contour>
    <contour>
      <point x="149" y="40" type="curve" smooth="yes"/>
      <point x="74" y="40"/>
      <point x="59" y="74"/>
      <point x="59" y="113" type="curve" smooth="yes"/>
      <point x="59" y="128"/>
      <point x="61" y="144"/>
      <point x="63" y="158" type="curve" smooth="yes"/>
      <point x="92" y="369" type="line" smooth="yes"/>
      <point x="99" y="422"/>
      <point x="108" y="487"/>
      <point x="211" y="487" type="curve" smooth="yes"/>
      <point x="293" y="487"/>
      <point x="304" y="450"/>
      <point x="308" y="437" type="curve"/>
      <point x="270" y="158" type="line" smooth="yes"/>
      <point x="261" y="96"/>
      <point x="233" y="40"/>
    </contour>
  </outline>
</glyph>
<glyph name="l" format="2">
  <advance width="153"/>
  <unicode hex="006C"/>
  <note>
l
</note>
  <anchor x="41" y="0" name="bottom"/>
  <anchor x="85" y="315" name="center"/>
  <anchor x="130" y="630" name="top"/>
  <anchor x="157" y="514" name="topright"/>
  <outline>
    <contour>
      <point x="34" y="0" type="line"/>
      <point x="50" y="0" type="line"/>
      <point x="138" y="630" type="line"/>
      <point x="122" y="630" type="line"/>
    </contour>
  </outline>
</glyph>
<glyph name="n" format="2">
  <advance width="374"/>
  <unicode hex="006E"/>
  <note>
n
</note>
  <anchor x="151" y="0" name="bottom"/>
  <anchor x="222" y="495" name="top"/>
  <outline>
    <contour>
      <point x="34" y="0" type="line"/>
      <point x="50" y="0" type="line"/>
      <point x="92" y="305" type="line" smooth="yes"/>
      <point x="104" y="392"/>
      <point x="170" y="487"/>
      <point x="244" y="487" type="curve" smooth="yes"/>
      <point x="297" y="487"/>
      <point x="317" y="460"/>
      <point x="317" y="412" type="curve" smooth="yes"/>
      <point x="317" y="396"/>
      <point x="315" y="379"/>
      <point x="313" y="363" type="curve" smooth="yes"/>
      <point x="262" y="0" type="line"/>
      <point x="278" y="0" type="line"/>
      <point x="330" y="372" type="line" smooth="yes"/>
      <point x="332" y="387"/>
      <point x="334" y="403"/>
      <point x="334" y="419" type="curve" smooth="yes"/>
      <point x="334" y="472"/>
      <point x="309" y="503"/>
      <point x="245" y="503" type="curve" smooth="yes"/>
      <point x="181" y="503"/>
      <point x="130" y="452"/>
      <point x="107" y="395" type="curve"/>
      <point x="119" y="495" type="line"/>
      <point x="103" y="495" type="line"/>
    </contour>
  </outline>
</glyph>
<glyph name="p" format="2">
  <advance width="367"/>
  <unicode hex="0070"/>
  <note>
p
</note>
  <outline>
    <contour>
      <point x="18" y="-116" type="line"/>
      <point x="34" y="-116" type="line"/>
      <point x="56" y="39" type="line"/>
      <point x="63" y="20"/>
      <point x="86" y="-7"/>
      <point x="153" y="-7" type="curve" smooth="yes"/>
      <point x="266" y="-7"/>
      <point x="281" y="62"/>
      <point x="290" y="124" type="curve" smooth="yes"/>
      <point x="325" y="372" type="line" smooth="yes"/>
      <point x="327" y="386"/>
      <point x="329" y="401"/>
      <point x="329" y="416" type="curve" smooth="yes"/>
      <point x="329" y="462"/>
      <point x="310" y="503"/>
      <point x="224" y="503" type="curve" smooth="yes"/>
      <point x="155" y="503"/>
      <point x="123" y="471"/>
      <point x="112" y="449" type="curve"/>
      <point x="117" y="495" type="line"/>
      <point x="103" y="495" type="line"/>
    </contour>
    <contour>
      <point x="155" y="9" type="curve" smooth="yes"/>
      <point x="79" y="9"/>
      <point x="64" y="43"/>
      <point x="64" y="83" type="curve" smooth="yes"/>
      <point x="64" y="97"/>
      <point x="66" y="113"/>
      <point x="68" y="127" type="curve" smooth="yes"/>
      <point x="101" y="363" type="line" smooth="yes"/>
      <point x="110" y="428"/>
      <point x="126" y="487"/>
      <point x="222" y="487" type="curve" smooth="yes"/>
      <point x="297" y="487"/>
      <point x="313" y="455"/>
      <point x="313" y="415" type="curve" smooth="yes"/>
      <point x="313" y="401"/>
      <point x="311" y="385"/>
      <point x="309" y="369" type="curve" smooth="yes"/>
      <point x="275" y="127" type="line" smooth="yes"/>
      <point x="268" y="74"/>
      <point x="258" y="9"/>
    </contour>
  </outline>
</glyph>
<glyph name="q" format="2">
  <advance width="367"/>
  <unicode hex="0071"/>
  <note>
q
</note>
  <outline>
    <contour>
      <point x="232" y="-116" type="line"/>
      <point x="248" y="-116" type="line"/>
      <point x="333" y="495" type="line"/>
      <point x="319" y="495" type="line"/>
      <point x="310" y="445" type="line"/>
      <point x="307" y="471"/>
      <point x="283" y="503"/>
      <point x="214" y="503" type="curve" smooth="yes"/>
      <point x="101" y="503"/>
      <point x="86" y="433"/>
      <point x="77" y="372" type="curve" smooth="yes"/>
      <point x="42" y="124" type="line" smooth="yes"/>
      <point x="40" y="110"/>
      <point x="38" y="95"/>
      <point x="38" y="80" type="curve" smooth="yes"/>
      <point x="38" y="34"/>
      <point x="56" y="-7"/>
      <point x="143" y="-7" type="curve" smooth="yes"/>
      <point x="210" y="-7"/>
      <point x="242" y="16"/>
      <point x="253" y="38" type="curve"/>
    </contour>
    <contour>
      <point x="145" y="9" type="curve" smooth="yes"/>
      <point x="70" y="9"/>
      <point x="55" y="43"/>
      <point x="55" y="82" type="curve" smooth="yes"/>
      <point x="55" y="97"/>
      <point x="57" y="112"/>
      <point x="59" y="127" type="curve" smooth="yes"/>
      <point x="93" y="369" type="line" smooth="yes"/>
      <point x="101" y="428"/>
      <point x="109" y="487"/>
      <point x="212" y="487" type="curve" smooth="yes"/>
      <point x="285" y="487"/>
      <point x="303" y="452"/>
      <point x="303" y="407" type="curve" smooth="yes"/>
      <point x="303" y="393"/>
      <point x="301" y="378"/>
      <point x="299" y="363" type="curve" smooth="yes"/>
      <point x="266" y="127" type="line" smooth="yes"/>
      <point x="258" y="74"/>
      <point x="249" y="9"/>
    </contour>
  </outline>
</glyph>
<glyph name="s" format="2">
  <advance width="328"/>
  <unicode hex="0073"/>
  <note>
s
</note>
  <anchor x="123" y="0" name="bottom"/>
  <anchor x="202" y="495" name="top"/>
  <outline>
    <contour>
      <point x="125" y="-6" type="curve" smooth="yes"/>
      <point x="188" y="-6"/>
      <point x="253" y="19"/>
      <point x="265" y="96" type="curve" smooth="yes"/>
      <point x="271" y="134" type="line" smooth="yes"/>
      <point x="272" y="141"/>
      <point x="273" y="148"/>
      <point x="273" y="155" type="curve" smooth="yes"/>
      <point x="273" y="221"/>
      <point x="214" y="244"/>
      <point x="164" y="269" type="curve" smooth="yes"/>
      <point x="123" y="290"/>
      <point x="75" y="302"/>
      <point x="75" y="361" type="curve" smooth="yes"/>
      <point x="75" y="368"/>
      <point x="75" y="375"/>
      <point x="77" y="384" type="curve" smooth="yes"/>
      <point x="79" y="395" type="line" smooth="yes"/>
      <point x="89" y="449"/>
      <point x="129" y="486"/>
      <point x="196" y="486" type="curve" smooth="yes"/>
      <point x="248" y="486"/>
      <point x="289" y="468"/>
      <point x="289" y="423" type="curve" smooth="yes"/>
      <point x="289" y="410"/>
      <point x="285" y="394"/>
      <point x="277" y="376" type="curve" smooth="yes"/>
      <point x="263" y="344" type="line"/>
      <point x="281" y="344" type="line"/>
      <point x="299" y="386" type="line" smooth="yes"/>
      <point x="305" y="401"/>
      <point x="308" y="415"/>
      <point x="308" y="427" type="curve" smooth="yes"/>
      <point x="308" y="478"/>
      <point x="255" y="502"/>
      <point x="199" y="502" type="curve" smooth="yes"/>
      <point x="123" y="502"/>
      <point x="73" y="460"/>
      <point x="64" y="404" type="curve" smooth="yes"/>
      <point x="60" y="380" type="line" smooth="yes"/>
      <point x="59" y="372"/>
      <point x="58" y="364"/>
      <point x="58" y="357" type="curve" smooth="yes"/>
      <point x="58" y="299"/>
      <point x="104" y="279"/>
      <point x="157" y="254" type="curve" smooth="yes"/>
      <point x="202" y="233"/>
      <point x="258" y="214"/>
      <point x="258" y="152" type="curve" smooth="yes"/>
      <point x="258" y="144"/>
      <point x="257" y="136"/>
      <point x="255" y="127" type="curve" smooth="yes"/>
      <point x="249" y="96" type="line" smooth="yes"/>
      <point x="239" y="43"/>
      <point x="194" y="10"/>
      <point x="128" y="10" type="curve" smooth="yes"/>
      <point x="73" y="10"/>
      <point x="36" y="32"/>
      <point x="36" y="77" type="curve" smooth="yes"/>
      <point x="36" y="82"/>
      <point x="36" y="86"/>
      <point x="37" y="91" type="curve" smooth="yes"/>
      <point x="42" y="122"/>
      <point x="68" y="153"/>
      <point x="79" y="166" type="curve"/>
      <point x="59" y="166" type="line"/>
      <point x="50" y="153"/>
      <point x="27" y="124"/>
      <point x="22" y="99" type="curve" smooth="yes"/>
      <point x="21" y="91"/>
      <point x="20" y="84"/>
      <point x="20" y="76" type="curve" smooth="yes"/>
      <point x="20" y="21"/>
      <point x="64" y="-6"/>
    </contour>
  </outline>
</glyph>
<glyph name="u" format="2">
  <advance width="381"/>
  <unicode hex="0075"/>
  <note>
u
</note>
  <anchor x="158" y="0" name="bottom"/>
  <anchor x="285" y="0" name="ogonek"/>
  <anchor x="228" y="495" name="top"/>
  <anchor x="313" y="495" name="topright"/>
  <outline>
    <contour>
      <point x="136" y="-8" type="curve" smooth="yes"/>
      <point x="200" y="-8"/>
      <point x="254" y="43"/>
      <point x="274" y="100" type="curve"/>
      <point x="262" y="0" type="line"/>
      <point x="278" y="0" type="line"/>
      <point x="347" y="495" type="line"/>
      <point x="331" y="495" type="line"/>
      <point x="291" y="202" type="line" smooth="yes"/>
      <point x="277" y="103"/>
      <point x="211" y="8"/>
      <point x="140" y="8" type="curve" smooth="yes"/>
      <point x="78" y="8"/>
      <point x="64" y="42"/>
      <point x="64" y="83" type="curve" smooth="yes"/>
      <point x="64" y="99"/>
      <point x="66" y="116"/>
      <point x="68" y="132" type="curve" smooth="yes"/>
      <point x="119" y="495" type="line"/>
      <point x="103" y="495" type="line"/>
      <point x="51" y="123" type="line" smooth="yes"/>
      <point x="49" y="108"/>
      <point x="47" y="92"/>
      <point x="47" y="76" type="curve" smooth="yes"/>
      <point x="47" y="31"/>
      <point x="63" y="-8"/>
    </contour>
  </outline>
</glyph>
<glyph name="x" format="2">
  <advance width="310"/>
  <unicode hex="0078"/>
  <note>
x
</note>
  <outline>
    <contour>
      <point x="-12" y="0" type="curve"/>
      <point x="6" y="0" type="line"/>
      <point x="6" y="38"/>
      <point x="74" y="180"/>
      <point x="143" y="255" type="curve"/>
      <point x="170" y="255" type="line"/>
      <point x="223" y="185"/>
      <point x="236" y="71"/>
      <point x="236" y="0" type="curve"/>
      <point x="253" y="0" type="line"/>
      <point x="253" y="119"/>
      <point x="224" y="218"/>
      <point x="188" y="263" type="curve"/>
      <point x="274" y="337"/>
      <point x="297" y="446"/>
      <point x="309" y="495" type="curve"/>
      <point x="292" y="495" type="line"/>
      <point x="267" y="399"/>
      <point x="235" y="321"/>
      <point x="172" y="271" type="curve"/>
      <point x="143" y="271" type="line"/>
      <point x="115" y="338"/>
      <point x="95" y="410"/>
      <point x="91" y="495" type="curve"/>
      <point x="74" y="495" type="line"/>
      <point x="74" y="423"/>
      <point x="92" y="345"/>
      <point x="127" y="263" type="curve"/>
      <point x="55" y="185"/>
      <point x="-12" y="38"/>
    </contour>
  </outline>
</glyph>
<glyph name="bar" format="2">
  <advance width="176"/>
  <unicode hex="007C"/>
  <note>
bar
</note>
  <outline>
    <contour>
      <point x="39" y="-46" type="line"/>
      <point x="55" y="-46" type="line"/>
      <point x="151" y="630" type="line"/>
      <point x="135" y="630" type="line"/>
    </contour>
  </outline>
</glyph>
<glyph name="braceright" format="2">
  <advance width="274"/>
  <unicode hex="007D"/>
  <note>
braceright
</note>
  <outline>
    <contour>
      <point x="10" y="-137" type="line"/>
      <point x="69" y="-128"/>
      <point x="121" y="-95"/>
      <point x="131" y="-23" type="curve" smooth="yes"/>
      <point x="132" y="-16"/>
      <point x="132" y="-10"/>
      <point x="132" y="-3" type="curve" smooth="yes"/>
      <point x="132" y="57"/>
      <point x="98" y="107"/>
      <point x="98" y="160" type="curve" smooth="yes"/>
      <point x="98" y="166"/>
      <point x="98" y="172"/>
      <point x="99" y="178" type="curve" smooth="yes"/>
      <point x="105" y="221"/>
      <point x="166" y="255"/>
      <point x="219" y="255" type="curve"/>
      <point x="220" y="265" type="line"/>
      <point x="168" y="268"/>
      <point x="117" y="298"/>
      <point x="124" y="351" type="curve" smooth="yes"/>
      <point x="133" y="417"/>
      <point x="211" y="469"/>
      <point x="211" y="572" type="curve" smooth="yes"/>
      <point x="211" y="625"/>
      <point x="182" y="651"/>
      <point x="122" y="665" type="curve"/>
      <point x="120" y="650" type="line"/>
      <point x="158" y="642"/>
      <point x="195" y="620"/>
      <point x="195" y="565" type="curve" smooth="yes"/>
      <point x="195" y="471"/>
      <point x="118" y="432"/>
      <point x="106" y="344" type="curve" smooth="yes"/>
      <point x="101" y="307"/>
      <point x="125" y="273"/>
      <point x="170" y="260" type="curve"/>
      <point x="121" y="249"/>
      <point x="87" y="213"/>
      <point x="82" y="170" type="curve" smooth="yes"/>
      <point x="81" y="164"/>
      <point x="81" y="159"/>
      <point x="81" y="154" type="curve" smooth="yes"/>
      <point x="81" y="98"/>
      <point x="116" y="54"/>
      <point x="116" y="-3" type="curve" smooth="yes"/>
      <point x="116" y="-9"/>
      <point x="115" y="-16"/>
      <point x="114" y="-23" type="curve" smooth="yes"/>
      <point x="105" y="-82"/>
      <point x="66" y="-116"/>
      <point x="12" y="-123" type="curve"/>
    </contour>
  </outline>
</glyph>
<glyph name="exclamdown" format="2">
  <advance width="152"/>
  <unicode hex="00A1"/>
  <note>
exclamdown
</note>
  <outline>
    <contour>
      <point x="12" y="-151" type="line"/>
      <point x="28" y="-151" type="line"/>
      <point x="66" y="122" type="line"/>
      <point x="85" y="284" type="line"/>
      <point x="76" y="284" type="line"/>
      <point x="50" y="122" type="line"/>
    </contour>
    <contour>
      <point x="100" y="415" type="curve" smooth="yes"/>
      <point x="112" y="415"/>
      <point x="118" y="421"/>
      <point x="118" y="434" type="curve" smooth="yes"/>
      <point x="118" y="443"/>
      <point x="114" y="447"/>
      <point x="104" y="447" type="curve" smooth="yes"/>
      <point x="92" y="447"/>
      <point x="86" y="441"/>
      <point x="86" y="427" type="curve" smooth="yes"/>
      <point x="86" y="419"/>
      <point x="91" y="415"/>
    </contour>
  </outline>
</glyph>
<glyph name="currency" format="2">
  <advance width="382"/>
  <unicode hex="00A4"/>
  <note>
currency
</note>
  <outline>
    <contour>
      <point x="45" y="159" type="line"/>
      <point x="114" y="215" type="line"/>
      <point x="131" y="199"/>
      <point x="155" y="190"/>
      <point x="184" y="190" type="curve" smooth="yes"/>
      <point x="213" y="190"/>
      <point x="239" y="199"/>
      <point x="259" y="215" type="curve"/>
      <point x="313" y="159" type="line"/>
      <point x="321" y="166" type="line"/>
      <point x="272" y="225" type="line"/>
      <point x="295" y="250"/>
      <point x="310" y="281"/>
      <point x="310" y="317" type="curve" smooth="yes"/>
      <point x="310" y="339"/>
      <point x="304" y="358"/>
      <point x="293" y="372" type="curve"/>
      <point x="359" y="434" type="line"/>
      <point x="353" y="441" type="line"/>
      <point x="285" y="384" type="line"/>
      <point x="268" y="400"/>
      <point x="242" y="410"/>
      <point x="214" y="410" type="curve" smooth="yes"/>
      <point x="185" y="410"/>
      <point x="159" y="400"/>
      <point x="138" y="384" type="curve"/>
      <point x="85" y="441" type="line"/>
      <point x="77" y="434" type="line"/>
      <point x="124" y="374" type="line"/>
      <point x="102" y="350"/>
      <point x="88" y="318"/>
      <point x="88" y="281" type="curve" smooth="yes"/>
      <point x="88" y="260"/>
      <point x="93" y="242"/>
      <point x="104" y="227" type="curve"/>
      <point x="39" y="166" type="line"/>
    </contour>
    <contour>
      <point x="186" y="206" type="curve" smooth="yes"/>
      <point x="138" y="206"/>
      <point x="104" y="240"/>
      <point x="104" y="287" type="curve" smooth="yes"/>
      <point x="104" y="346"/>
      <point x="155" y="394"/>
      <point x="212" y="394" type="curve" smooth="yes"/>
      <point x="260" y="394"/>
      <point x="294" y="360"/>
      <point x="294" y="313" type="curve" smooth="yes"/>
      <point x="294" y="254"/>
      <point x="243" y="206"/>
    </contour>
  </outline>
</glyph>
<glyph name="yen" format="2">
  <advance width="328"/>
  <unicode hex="00A5"/>
  <note>
yen
</note>
  <outline>
    <contour>
      <point x="113" y="0" type="line"/>
      <point x="129" y="0" type="line"/>
      <point x="148" y="135" type="line"/>
      <point x="239" y="135" type="line"/>
      <point x="242" y="151" type="line"/>
      <point x="151" y="151" type="line"/>
      <point x="164" y="244" type="line"/>
      <point x="255" y="244" type="line"/>
      <point x="257" y="260" type="line"/>
      <point x="169" y="260" type="line"/>
      <point x="336" y="591" type="line"/>
      <point x="319" y="591" type="line"/>
      <point x="161" y="275" type="line"/>
      <point x="105" y="591" type="line"/>
      <point x="88" y="591" type="line"/>
      <point x="148" y="260" type="line"/>
      <point x="58" y="260" type="line"/>
      <point x="56" y="244" type="line"/>
      <point x="148" y="244" type="line"/>
      <point x="135" y="151" type="line"/>
      <point x="43" y="151" type="line"/>
      <point x="40" y="135" type="line"/>
      <point x="132" y="135" type="line"/>
    </contour>
  </outline>
</glyph>
<glyph name="section" format="2">
  <advance width="429"/>
  <unicode hex="00A7"/>
  <note>
section
</note>
  <outline>
    <contour>
      <point x="126" y="-131" type="curve" smooth="yes"/>
      <point x="189" y="-131"/>
      <point x="250" y="-106"/>
      <point x="260" y="-29" type="curve" smooth="yes"/>
      <point x="266" y="9" type="line" smooth="yes"/>
      <point x="267" y="16"/>
      <point x="268" y="23"/>
      <point x="268" y="29" type="curve" smooth="yes"/>
      <point x="268" y="54"/>
      <point x="260" y="72"/>
      <point x="250" y="87" type="curve"/>
      <point x="303" y="93"/>
      <point x="350" y="121"/>
      <point x="360" y="188" type="curve" smooth="yes"/>
      <point x="365" y="226" type="line" smooth="yes"/>
      <point x="366" y="233"/>
      <point x="367" y="240"/>
      <point x="367" y="247" type="curve" smooth="yes"/>
      <point x="367" y="314"/>
      <point x="314" y="336"/>
      <point x="264" y="361" type="curve" smooth="yes"/>
      <point x="227" y="380"/>
      <point x="175" y="400"/>
      <point x="175" y="456" type="curve" smooth="yes"/>
      <point x="175" y="460"/>
      <point x="175" y="464"/>
      <point x="176" y="469" type="curve" smooth="yes"/>
      <point x="179" y="487" type="line" smooth="yes"/>
      <point x="186" y="541"/>
      <point x="230" y="578"/>
      <point x="297" y="578" type="curve" smooth="yes"/>
      <point x="357" y="578"/>
      <point x="388" y="557"/>
      <point x="388" y="507" type="curve" smooth="yes"/>
      <point x="388" y="501"/>
      <point x="388" y="494"/>
      <point x="387" y="487" type="curve" smooth="yes"/>
      <point x="379" y="428" type="line"/>
      <point x="395" y="428" type="line"/>
      <point x="404" y="493" type="line" smooth="yes"/>
      <point x="405" y="500"/>
      <point x="405" y="506"/>
      <point x="405" y="512" type="curve" smooth="yes"/>
      <point x="405" y="570"/>
      <point x="362" y="594"/>
      <point x="299" y="594" type="curve" smooth="yes"/>
      <point x="223" y="594"/>
      <point x="172" y="552"/>
      <point x="164" y="496" type="curve" smooth="yes"/>
      <point x="159" y="462" type="line" smooth="yes"/>
      <point x="158" y="456"/>
      <point x="158" y="451"/>
      <point x="158" y="446" type="curve" smooth="yes"/>
      <point x="158" y="414"/>
      <point x="174" y="393"/>
      <point x="198" y="377" type="curve"/>
      <point x="123" y="377"/>
      <point x="73" y="335"/>
      <point x="65" y="279" type="curve" smooth="yes"/>
      <point x="60" y="245" type="line" smooth="yes"/>
      <point x="59" y="240"/>
      <point x="59" y="235"/>
      <point x="59" y="230" type="curve" smooth="yes"/>
      <point x="59" y="175"/>
      <point x="104" y="155"/>
      <point x="158" y="129" type="curve" smooth="yes"/>
      <point x="205" y="107"/>
      <point x="251" y="88"/>
      <point x="251" y="27" type="curve" smooth="yes"/>
      <point x="251" y="21"/>
      <point x="251" y="15"/>
      <point x="250" y="9" type="curve" smooth="yes"/>
      <point x="244" y="-29" type="line" smooth="yes"/>
      <point x="236" y="-91"/>
      <point x="191" y="-115"/>
      <point x="128" y="-115" type="curve" smooth="yes"/>
      <point x="73" y="-115"/>
      <point x="38" y="-90"/>
      <point x="38" y="-41" type="curve" smooth="yes"/>
      <point x="38" y="-36"/>
      <point x="38" y="-31"/>
      <point x="39" y="-26" type="curve" smooth="yes"/>
      <point x="48" y="41" type="line"/>
      <point x="32" y="41" type="line"/>
      <point x="23" y="-26" type="line" smooth="yes"/>
      <point x="22" y="-33"/>
      <point x="22" y="-40"/>
      <point x="22" y="-46" type="curve" smooth="yes"/>
      <point x="22" y="-105"/>
      <point x="64" y="-131"/>
    </contour>
    <contour>
      <point x="236" y="102" type="curve"/>
      <point x="216" y="120"/>
      <point x="190" y="132"/>
      <point x="165" y="144" type="curve" smooth="yes"/>
      <point x="128" y="163"/>
      <point x="76" y="183"/>
      <point x="76" y="239" type="curve" smooth="yes"/>
      <point x="76" y="243"/>
      <point x="76" y="247"/>
      <point x="77" y="252" type="curve" smooth="yes"/>
      <point x="79" y="270" type="line" smooth="yes"/>
      <point x="87" y="324"/>
      <point x="130" y="361"/>
      <point x="197" y="361" type="curve" smooth="yes"/>
      <point x="206" y="361"/>
      <point x="214" y="360"/>
      <point x="230" y="359" type="curve"/>
      <point x="238" y="355"/>
      <point x="248" y="350"/>
      <point x="257" y="346" type="curve" smooth="yes"/>
      <point x="304" y="324"/>
      <point x="351" y="305"/>
      <point x="351" y="246" type="curve" smooth="yes"/>
      <point x="351" y="239"/>
      <point x="350" y="233"/>
      <point x="349" y="226" type="curve" smooth="yes"/>
      <point x="344" y="188" type="line" smooth="yes"/>
      <point x="335" y="128"/>
      <point x="294" y="104"/>
    </contour>
  </outline>
</glyph>
<glyph name="ordfeminine" format="2">
  <advance width="261"/>
  <unicode hex="00AA"/>
  <note>
ordfeminine
</note>
  <outline>
    <contour>
      <point x="126" y="285" type="curve" smooth="yes"/>
      <point x="172" y="285"/>
      <point x="198" y="320"/>
      <point x="200" y="326" type="curve"/>
      <point x="197" y="289" type="line"/>
      <point x="211" y="289" type="line"/>
      <point x="255" y="598" type="line"/>
      <point x="241" y="598" type="line"/>
      <point x="238" y="584" type="line"/>
      <point x="226" y="599"/>
      <point x="208" y="603"/>
      <point x="181" y="603" type="curve" smooth="yes"/>
      <point x="117" y="603"/>
      <point x="102" y="568"/>
      <point x="95" y="522" type="curve" smooth="yes"/>
      <point x="72" y="367" type="line" smooth="yes"/>
      <point x="71" y="358"/>
      <point x="70" y="349"/>
      <point x="70" y="341" type="curve" smooth="yes"/>
      <point x="70" y="309"/>
      <point x="83" y="285"/>
    </contour>
    <contour>
      <point x="126" y="300" type="curve" smooth="yes"/>
      <point x="94" y="300"/>
      <point x="87" y="318"/>
      <point x="87" y="341" type="curve" smooth="yes"/>
      <point x="87" y="352"/>
      <point x="88" y="364"/>
      <point x="90" y="375" type="curve" smooth="yes"/>
      <point x="113" y="528" type="line" smooth="yes"/>
      <point x="119" y="571"/>
      <point x="134" y="590"/>
      <point x="180" y="590" type="curve" smooth="yes"/>
      <point x="225" y="590"/>
      <point x="234" y="574"/>
      <point x="232" y="552" type="curve" smooth="yes"/>
      <point x="211" y="409" type="line" smooth="yes"/>
      <point x="206" y="374"/>
      <point x="191" y="300"/>
    </contour>
  </outline>
</glyph>
<glyph name="guillemetleft" format="2">
  <advance width="414"/>
  <unicode hex="00AB"/>
  <note>
guillemotleft
</note>
  <outline>
    <contour>
      <point x="324" y="75" type="line"/>
      <point x="338" y="75" type="line"/>
      <point x="248" y="244" type="line"/>
      <point x="400" y="428" type="line"/>
      <point x="386" y="428" type="line"/>
      <point x="230" y="244" type="line"/>
    </contour>
    <contour>
      <point x="144" y="75" type="line"/>
      <point x="158" y="75" type="line"/>
      <point x="68" y="244" type="line"/>
      <point x="220" y="428" type="line"/>
      <point x="206" y="428" type="line"/>
      <point x="50" y="244" type="line"/>
    </contour>
  </outline>
</glyph>
<glyph name="logicalnot" format="2">
  <advance width="555"/>
  <unicode hex="00AC"/>
  <note>
logicalnot
</note>
  <outline>
    <contour>
      <point x="484" y="215" type="line"/>
      <point x="500" y="215" type="line"/>
      <point x="526" y="400" type="line"/>
      <point x="71" y="400" type="line"/>
      <point x="69" y="384" type="line"/>
      <point x="508" y="384" type="line"/>
    </contour>
  </outline>
</glyph>
<glyph name="registered" format="2">
  <advance width="412"/>
  <unicode hex="00AE"/>
  <note>
registered
</note>
  <outline>
    <contour>
      <point x="210" y="279" type="curve" smooth="yes"/>
      <point x="304" y="279"/>
      <point x="390" y="360"/>
      <point x="390" y="457" type="curve" smooth="yes"/>
      <point x="390" y="533"/>
      <point x="333" y="591"/>
      <point x="254" y="591" type="curve" smooth="yes"/>
      <point x="161" y="591"/>
      <point x="74" y="509"/>
      <point x="74" y="413" type="curve" smooth="yes"/>
      <point x="74" y="337"/>
      <point x="131" y="279"/>
    </contour>
    <contour>
      <point x="212" y="290" type="curve" smooth="yes"/>
      <point x="142" y="290"/>
      <point x="89" y="346"/>
      <point x="89" y="415" type="curve" smooth="yes"/>
      <point x="89" y="504"/>
      <point x="169" y="579"/>
      <point x="252" y="579" type="curve" smooth="yes"/>
      <point x="325" y="579"/>
      <point x="376" y="526"/>
      <point x="376" y="455" type="curve" smooth="yes"/>
      <point x="376" y="369"/>
      <point x="299" y="290"/>
    </contour>
    <contour>
      <point x="175" y="353" type="line"/>
      <point x="188" y="353" type="line"/>
      <point x="200" y="435" type="line"/>
      <point x="225" y="435" type="line" smooth="yes"/>
      <point x="235" y="435"/>
      <point x="241" y="433"/>
      <point x="244" y="424" type="curve" smooth="yes"/>
      <point x="252" y="406"/>
      <point x="262" y="372"/>
      <point x="267" y="353" type="curve"/>
      <point x="282" y="353" type="line"/>
      <point x="265" y="407" type="line" smooth="yes"/>
      <point x="263" y="413"/>
      <point x="259" y="433"/>
      <point x="248" y="438" type="curve"/>
      <point x="284" y="442"/>
      <point x="292" y="464"/>
      <point x="295" y="486" type="curve" smooth="yes"/>
      <point x="298" y="508"/>
      <point x="293" y="524"/>
      <point x="265" y="524" type="curve" smooth="yes"/>
      <point x="200" y="524" type="line"/>
    </contour>
    <contour>
      <point x="230" y="447" type="curve" smooth="yes"/>
      <point x="202" y="447" type="line"/>
      <point x="211" y="513" type="line"/>
      <point x="257" y="513" type="line" smooth="yes"/>
      <point x="278" y="513"/>
      <point x="286" y="504"/>
      <point x="283" y="485" type="curve" smooth="yes"/>
      <point x="279" y="459"/>
      <point x="269" y="447"/>
    </contour>
  </outline>
</glyph>
<glyph name="degree" format="2">
  <advance width="288"/>
  <unicode hex="00B0"/>
  <note>
degree
</note>
  <outline>
    <contour>
      <point x="180" y="410" type="curve" smooth="yes"/>
      <point x="239" y="410"/>
      <point x="274" y="444"/>
      <point x="274" y="503" type="curve" smooth="yes"/>
      <point x="274" y="561"/>
      <point x="240" y="594"/>
      <point x="182" y="594" type="curve" smooth="yes"/>
      <point x="121" y="594"/>
      <point x="86" y="560"/>
      <point x="86" y="501" type="curve" smooth="yes"/>
      <point x="86" y="444"/>
      <point x="121" y="410"/>
    </contour>
    <contour>
      <point x="179" y="426" type="curve" smooth="yes"/>
      <point x="131" y="426"/>
      <point x="102" y="454"/>
      <point x="102" y="501" type="curve" smooth="yes"/>
      <point x="102" y="550"/>
      <point x="130" y="578"/>
      <point x="181" y="578" type="curve" smooth="yes"/>
      <point x="231" y="578"/>
      <point x="258" y="550"/>
      <point x="258" y="502" type="curve" smooth="yes"/>
      <point x="258" y="453"/>
      <point x="231" y="426"/>
    </contour>
  </outline>
</glyph>
<glyph name="periodcentered" format="2">
  <advance width="132"/>
  <unicode hex="00B7"/>
  <note>
periodcentered
</note>
  <outline>
    <contour>
      <point x="66" y="248" type="curve" smooth="yes"/>
      <point x="78" y="248"/>
      <point x="84" y="254"/>
      <point x="84" y="268" type="curve" smooth="yes"/>
      <point x="84" y="276"/>
      <point x="79" y="280"/>
      <point x="70" y="280" type="curve" smooth="yes"/>
      <point x="58" y="280"/>
      <point x="52" y="274"/>
      <point x="52" y="261" type="curve" smooth="yes"/>
      <point x="52" y="252"/>
      <point x="56" y="248"/>
    </contour>
  </outline>
</glyph>
<glyph name="ordmasculine" format="2">
  <advance width="257"/>
  <unicode hex="00BA"/>
  <note>
ordmasculine
</note>
  <outline>
    <contour>
      <point x="136" y="291" type="curve" smooth="yes"/>
      <point x="192" y="291"/>
      <point x="211" y="308"/>
      <point x="219" y="370" type="curve" smooth="yes"/>
      <point x="242" y="529" type="line" smooth="yes"/>
      <point x="243" y="538"/>
      <point x="244" y="545"/>
      <point x="244" y="552" type="curve" smooth="yes"/>
      <point x="244" y="591"/>
      <point x="226" y="603"/>
      <point x="179" y="603" type="curve" smooth="yes"/>
      <point x="122" y="603"/>
      <point x="102" y="586"/>
      <point x="95" y="529" type="curve" smooth="yes"/>
      <point x="72" y="370" type="line" smooth="yes"/>
      <point x="71" y="360"/>
      <point x="70" y="351"/>
      <point x="70" y="343" type="curve" smooth="yes"/>
      <point x="70" y="304"/>
      <point x="88" y="291"/>
    </contour>
    <contour>
      <point x="136" y="306" type="curve" smooth="yes"/>
      <point x="99" y="306"/>
      <point x="86" y="315"/>
      <point x="86" y="346" type="curve" smooth="yes"/>
      <point x="86" y="353"/>
      <point x="87" y="361"/>
      <point x="88" y="370" type="curve" smooth="yes"/>
      <point x="111" y="529" type="line" smooth="yes"/>
      <point x="118" y="571"/>
      <point x="131" y="590"/>
      <point x="178" y="590" type="curve" smooth="yes"/>
      <point x="214" y="590"/>
      <point x="228" y="579"/>
      <point x="228" y="551" type="curve" smooth="yes"/>
      <point x="228" y="544"/>
      <point x="227" y="537"/>
      <point x="226" y="529" type="curve" smooth="yes"/>
      <point x="203" y="370" type="line" smooth="yes"/>
      <point x="196" y="321"/>
      <point x="181" y="306"/>
    </contour>
  </outline>
</glyph>
<glyph name="onequarter" format="2">
  <advance width="501"/>
  <unicode hex="00BC"/>
  <note>
onequarter
</note>
  <outline>
    <contour>
      <point x="60" y="0" type="line"/>
      <point x="78" y="0" type="line"/>
      <point x="476" y="585" type="line"/>
      <point x="457" y="585" type="line"/>
    </contour>
    <component base="onesuperior"/>
    <component base="foursuperior" xOffset="262" yOffset="-246"/>
  </outline>
</glyph>
<glyph name="questiondown" format="2">
  <advance width="368"/>
  <unicode hex="00BF"/>
  <note>
questiondown
</note>
  <outline>
    <contour>
      <point x="131" y="-151" type="curve" smooth="yes"/>
      <point x="212" y="-151"/>
      <point x="259" y="-105"/>
      <point x="272" y="-14" type="curve" smooth="yes"/>
      <point x="276" y="15" type="line"/>
      <point x="260" y="15" type="line"/>
      <point x="256" y="-18" type="line" smooth="yes"/>
      <point x="245" y="-94"/>
      <point x="201" y="-135"/>
      <point x="131" y="-135" type="curve" smooth="yes"/>
      <point x="60" y="-135"/>
      <point x="26" y="-100"/>
      <point x="26" y="-36" type="curve" smooth="yes"/>
      <point x="26" y="-27"/>
      <point x="27" y="-17"/>
      <point x="28" y="-7" type="curve" smooth="yes"/>
      <point x="37" y="58" type="line" smooth="yes"/>
      <point x="49" y="144"/>
      <point x="122" y="178"/>
      <point x="169" y="178" type="curve" smooth="yes"/>
      <point x="228" y="178" type="line"/>
      <point x="245" y="300" type="line"/>
      <point x="229" y="300" type="line"/>
      <point x="214" y="194" type="line"/>
      <point x="167" y="194" type="line" smooth="yes"/>
      <point x="116" y="194"/>
      <point x="36" y="159"/>
      <point x="22" y="66" type="curve" smooth="yes"/>
      <point x="12" y="-5" type="line" smooth="yes"/>
      <point x="10" y="-19"/>
      <point x="9" y="-32"/>
      <point x="9" y="-44" type="curve" smooth="yes"/>
      <point x="9" y="-118"/>
      <point x="47" y="-151"/>
    </contour>
    <contour>
      <point x="251" y="415" type="curve" smooth="yes"/>
      <point x="263" y="415"/>
      <point x="269" y="421"/>
      <point x="269" y="434" type="curve" smooth="yes"/>
      <point x="269" y="443"/>
      <point x="265" y="447"/>
      <point x="255" y="447" type="curve" smooth="yes"/>
      <point x="243" y="447"/>
      <point x="237" y="441"/>
      <point x="237" y="427" type="curve" smooth="yes"/>
      <point x="237" y="419"/>
      <point x="242" y="415"/>
    </contour>
  </outline>
</glyph>
<glyph name="multiply" format="2">
  <advance width="351"/>
  <unicode hex="00D7"/>
  <note>
multiply
</note>
  <outline>
    <contour>
      <point x="267" y="152" type="line"/>
      <point x="279" y="163" type="line"/>
      <point x="188" y="246" type="line"/>
      <point x="284" y="326" type="line"/>
      <point x="273" y="337" type="line"/>
      <point x="176" y="257" type="line"/>
      <point x="84" y="341" type="line"/>
      <point x="72" y="330" type="line"/>
      <point x="164" y="247" type="line"/>
      <point x="67" y="167" type="line"/>
      <point x="79" y="156" type="line"/>
      <point x="175" y="236" type="line"/>
    </contour>
  </outline>
</glyph>
<glyph name="Thorn" format="2">
  <advance width="383"/>
  <unicode hex="00DE"/>
  <note>
Thorn
</note>
  <outline>
    <contour>
      <point x="41" y="0" type="line"/>
      <point x="57" y="0" type="line"/>
      <point x="79" y="151" type="line"/>
      <point x="213" y="151" type="line" smooth="yes"/>
      <point x="307" y="151"/>
      <point x="341" y="211"/>
      <point x="349" y="270" type="curve" smooth="yes"/>
      <point x="364" y="374" type="line" smooth="yes"/>
      <point x="365" y="381"/>
      <point x="365" y="387"/>
      <point x="365" y="393" type="curve" smooth="yes"/>
      <point x="365" y="450"/>
      <point x="324" y="471"/>
      <point x="272" y="471" type="curve" smooth="yes"/>
      <point x="124" y="471" type="line"/>
      <point x="141" y="591" type="line"/>
      <point x="125" y="591" type="line"/>
    </contour>
    <contour>
      <point x="211" y="167" type="curve" smooth="yes"/>
      <point x="81" y="167" type="line"/>
      <point x="121" y="455" type="line"/>
      <point x="273" y="455" type="line" smooth="yes"/>
      <point x="314" y="455"/>
      <point x="349" y="433"/>
      <point x="349" y="386" type="curve" smooth="yes"/>
      <point x="349" y="381"/>
      <point x="349" y="376"/>
      <point x="348" y="371" type="curve" smooth="yes"/>
      <point x="333" y="270" type="line" smooth="yes"/>
      <point x="324" y="202"/>
      <point x="276" y="167"/>
    </contour>
  </outline>
</glyph>
<glyph name="ae" format="2">
  <advance width="577"/>
  <unicode hex="00E6"/>
  <note>
ae
</note>
  <anchor x="302" y="0" name="bottom"/>
  <anchor x="372" y="495" name="top"/>
  <outline>
    <contour>
      <point x="118" y="-7" type="curve" smooth="yes"/>
      <point x="202" y="-7"/>
      <point x="244" y="49"/>
      <point x="256" y="76" type="curve"/>
      <point x="247" y="0" type="line"/>
      <point x="264" y="0" type="line"/>
      <point x="269" y="37" type="line"/>
      <point x="281" y="11"/>
      <point x="308" y="-7"/>
      <point x="367" y="-7" type="curve" smooth="yes"/>
      <point x="480" y="-7"/>
      <point x="496" y="62"/>
      <point x="505" y="124" type="curve" smooth="yes"/>
      <point x="511" y="167" type="line"/>
      <point x="495" y="167" type="line"/>
      <point x="489" y="127" type="line" smooth="yes"/>
      <point x="480" y="66"/>
      <point x="467" y="9"/>
      <point x="369" y="9" type="curve" smooth="yes"/>
      <point x="294" y="9"/>
      <point x="278" y="42"/>
      <point x="278" y="84" type="curve" smooth="yes"/>
      <point x="278" y="98"/>
      <point x="280" y="112"/>
      <point x="282" y="127" type="curve" smooth="yes"/>
      <point x="282" y="128" type="line"/>
      <point x="296" y="228" type="line"/>
      <point x="412" y="241"/>
      <point x="523" y="263"/>
      <point x="539" y="372" type="curve" smooth="yes"/>
      <point x="541" y="387"/>
      <point x="543" y="403"/>
      <point x="543" y="417" type="curve" smooth="yes"/>
      <point x="543" y="465"/>
      <point x="524" y="503"/>
      <point x="439" y="503" type="curve" smooth="yes"/>
      <point x="382" y="503"/>
      <point x="349" y="484"/>
      <point x="329" y="458" type="curve"/>
      <point x="334" y="494" type="line"/>
      <point x="318" y="494" type="line"/>
      <point x="314" y="466" type="line"/>
      <point x="304" y="490"/>
      <point x="259" y="503"/>
      <point x="216" y="503" type="curve" smooth="yes"/>
      <point x="114" y="503"/>
      <point x="89" y="446"/>
      <point x="78" y="372" type="curve" smooth="yes"/>
      <point x="42" y="124" type="line" smooth="yes"/>
      <point x="40" y="108"/>
      <point x="38" y="92"/>
      <point x="38" y="78" type="curve" smooth="yes"/>
      <point x="38" y="29"/>
      <point x="55" y="-7"/>
    </contour>
    <contour>
      <point x="123" y="9" type="curve" smooth="yes"/>
      <point x="68" y="9"/>
      <point x="54" y="38"/>
      <point x="54" y="78" type="curve" smooth="yes"/>
      <point x="54" y="93"/>
      <point x="56" y="110"/>
      <point x="59" y="127" type="curve" smooth="yes"/>
      <point x="94" y="369" type="line" smooth="yes"/>
      <point x="105" y="445"/>
      <point x="133" y="487"/>
      <point x="215" y="487" type="curve" smooth="yes"/>
      <point x="294" y="487"/>
      <point x="307" y="451"/>
      <point x="310" y="439" type="curve"/>
      <point x="304" y="396" type="line"/>
      <point x="302" y="388"/>
      <point x="301" y="380"/>
      <point x="300" y="372" type="curve" smooth="yes"/>
      <point x="288" y="282" type="line"/>
      <point x="274" y="186" type="line" smooth="yes"/>
      <point x="265" y="124"/>
      <point x="237" y="9"/>
    </contour>
    <contour>
      <point x="299" y="244" type="curve"/>
      <point x="318" y="381" type="line" smooth="yes"/>
      <point x="330" y="446"/>
      <point x="355" y="487"/>
      <point x="437" y="487" type="curve" smooth="yes"/>
      <point x="511" y="487"/>
      <point x="527" y="458"/>
      <point x="527" y="418" type="curve" smooth="yes"/>
      <point x="527" y="403"/>
      <point x="525" y="388"/>
      <point x="523" y="372" type="curve" smooth="yes"/>
      <point x="512" y="293"/>
      <point x="422" y="252"/>
    </contour>
  </outline>
</glyph>
<glyph name="oslash" format="2">
  <advance width="362"/>
  <unicode hex="00F8"/>
  <note>
oslash
</note>
  <anchor x="212" y="495" name="top"/>
  <outline>
    <contour>
      <point x="-22" y="-46" type="line"/>
      <point x="-3" y="-46" type="line"/>
      <point x="46" y="31" type="line"/>
      <point x="60" y="8"/>
      <point x="87" y="-7"/>
      <point x="141" y="-7" type="curve" smooth="yes"/>
      <point x="254" y="-7"/>
      <point x="275" y="62"/>
      <point x="284" y="124" type="curve" smooth="yes"/>
      <point x="318" y="372" type="line" smooth="yes"/>
      <point x="320" y="385"/>
      <point x="321" y="398"/>
      <point x="321" y="411" type="curve" smooth="yes"/>
      <point x="321" y="424"/>
      <point x="320" y="437"/>
      <point x="316" y="448" type="curve"/>
      <point x="381" y="548" type="line"/>
      <point x="362" y="548" type="line"/>
      <point x="309" y="465" type="line"/>
      <point x="295" y="488"/>
      <point x="268" y="503"/>
      <point x="217" y="503" type="curve" smooth="yes"/>
      <point x="98" y="503"/>
      <point x="82" y="433"/>
      <point x="74" y="372" type="curve" smooth="yes"/>
      <point x="40" y="124" type="line" smooth="yes"/>
      <point x="38" y="109"/>
      <point x="36" y="93"/>
      <point x="36" y="78" type="curve" smooth="yes"/>
      <point x="36" y="68"/>
      <point x="37" y="58"/>
      <point x="39" y="49" type="curve"/>
    </contour>
    <contour>
      <point x="143" y="9" type="curve" smooth="yes"/>
      <point x="91" y="9"/>
      <point x="67" y="25"/>
      <point x="58" y="48" type="curve"/>
      <point x="304" y="429" type="line"/>
      <point x="305" y="422"/>
      <point x="305" y="416"/>
      <point x="305" y="409" type="curve" smooth="yes"/>
      <point x="305" y="395"/>
      <point x="304" y="382"/>
      <point x="302" y="369" type="curve" smooth="yes"/>
      <point x="268" y="127" type="line" smooth="yes"/>
      <point x="261" y="74"/>
      <point x="246" y="9"/>
    </contour>
    <contour>
      <point x="53" y="69" type="line"/>
      <point x="51" y="88"/>
      <point x="54" y="108"/>
      <point x="56" y="127" type="curve" smooth="yes"/>
      <point x="90" y="369" type="line" smooth="yes"/>
      <point x="97" y="422"/>
      <point x="107" y="487"/>
      <point x="215" y="487" type="curve" smooth="yes"/>
      <point x="264" y="487"/>
      <point x="287" y="471"/>
      <point x="298" y="449" type="curve"/>
    </contour>
  </outline>
</glyph>
<glyph name="kgreenlandic" format="2">
  <advance width="316"/>
  <unicode hex="0138"/>
  <note>
kgreenlandic
</note>
  <outline>
    <contour>
      <point x="34" y="0" type="line"/>
      <point x="50" y="0" type="line"/>
      <point x="79" y="208" type="line"/>
      <point x="92" y="232"/>
      <point x="110" y="262"/>
      <point x="133" y="293" type="curve"/>
      <point x="243" y="0" type="line"/>
      <point x="260" y="0" type="line"/>
      <point x="146" y="309" type="line"/>
      <point x="197" y="376"/>
      <point x="265" y="444"/>
      <point x="329" y="467" type="curve"/>
      <point x="332" y="483" type="line"/>
      <point x="239" y="453"/>
      <point x="133" y="328"/>
      <point x="84" y="244" type="curve"/>
      <point x="138" y="630" type="line"/>
      <point x="122" y="630" type="line"/>
    </contour>
  </outline>
</glyph>
<glyph name="Ldot" format="2">
  <advance width="293"/>
  <unicode hex="013F"/>
  <outline>
    <contour>
      <point x="41" y="0" type="line"/>
      <point x="255" y="0" type="line"/>
      <point x="258" y="16" type="line"/>
      <point x="60" y="16" type="line"/>
      <point x="141" y="591" type="line"/>
      <point x="125" y="591" type="line"/>
    </contour>
    <contour>
      <point x="237" y="288" type="curve" smooth="yes"/>
      <point x="249" y="288"/>
      <point x="255" y="294"/>
      <point x="255" y="308" type="curve" smooth="yes"/>
      <point x="255" y="316"/>
      <point x="250" y="320"/>
      <point x="241" y="320" type="curve" smooth="yes"/>
      <point x="229" y="320"/>
      <point x="223" y="314"/>
      <point x="223" y="301" type="curve" smooth="yes"/>
      <point x="223" y="292"/>
      <point x="227" y="288"/>
    </contour>
  </outline>
</glyph>
<glyph name="Lslash" format="2">
  <advance width="293"/>
  <unicode hex="0141"/>
  <note>
Lslash
</note>
  <outline>
    <contour>
      <point x="41" y="0" type="line"/>
      <point x="255" y="0" type="line"/>
      <point x="258" y="16" type="line"/>
      <point x="60" y="16" type="line"/>
      <point x="104" y="332" type="line"/>
      <point x="193" y="371" type="line"/>
      <point x="195" y="388" type="line"/>
      <point x="107" y="350" type="line"/>
      <point x="141" y="591" type="line"/>
      <point x="125" y="591" type="line"/>
      <point x="90" y="342" type="line"/>
      <point x="21" y="313" type="line"/>
      <point x="19" y="295" type="line"/>
      <point x="87" y="325" type="line"/>
    </contour>
  </outline>
</glyph>
<glyph name="lslash" format="2">
  <advance width="153"/>
  <unicode hex="0142"/>
  <note>
lslash
</note>
  <outline>
    <contour>
      <point x="34" y="0" type="line"/>
      <point x="50" y="0" type="line"/>
      <point x="138" y="630" type="line"/>
      <point x="122" y="630" type="line"/>
    </contour>
    <contour>
      <point x="17" y="275" type="line"/>
      <point x="158" y="382" type="line"/>
      <point x="161" y="402" type="line"/>
      <point x="20" y="295" type="line"/>
    </contour>
  </outline>
</glyph>
<glyph name="OE" format="2">
  <advance width="603"/>
  <unicode hex="0152"/>
  <note>
OE
</note>
  <anchor x="420" y="0" name="bottom"/>
  <anchor x="214" y="296" name="center"/>
  <anchor x="524" y="0" name="ogonek"/>
  <anchor x="503" y="591" name="top"/>
  <anchor x="352" y="591" name="topleft"/>
  <anchor x="310" y="591" name="topright"/>
  <outline>
    <contour>
      <point x="170" y="-12" type="curve" smooth="yes"/>
      <point x="226" y="-12"/>
      <point x="274" y="-5"/>
      <point x="303" y="38" type="curve"/>
      <point x="298" y="0" type="line"/>
      <point x="543" y="0" type="line"/>
      <point x="545" y="16" type="line"/>
      <point x="316" y="16" type="line"/>
      <point x="356" y="303" type="line"/>
      <point x="534" y="303" type="line"/>
      <point x="537" y="319" type="line"/>
      <point x="359" y="319" type="line"/>
      <point x="395" y="575" type="line"/>
      <point x="624" y="575" type="line"/>
      <point x="626" y="591" type="line"/>
      <point x="381" y="591" type="line"/>
      <point x="375" y="548" type="line"/>
      <point x="358" y="591"/>
      <point x="312" y="599"/>
      <point x="258" y="599" type="curve" smooth="yes"/>
      <point x="181" y="599"/>
      <point x="115" y="585"/>
      <point x="99" y="469" type="curve" smooth="yes"/>
      <point x="49" y="118" type="line" smooth="yes"/>
      <point x="47" y="106"/>
      <point x="46" y="94"/>
      <point x="46" y="84" type="curve" smooth="yes"/>
      <point x="46" y="1"/>
      <point x="102" y="-12"/>
    </contour>
    <contour>
      <point x="173" y="4" type="curve" smooth="yes"/>
      <point x="112" y="4"/>
      <point x="63" y="14"/>
      <point x="63" y="89" type="curve" smooth="yes"/>
      <point x="63" y="98"/>
      <point x="64" y="109"/>
      <point x="66" y="121" type="curve" smooth="yes"/>
      <point x="114" y="466" type="line" smooth="yes"/>
      <point x="129" y="570"/>
      <point x="186" y="583"/>
      <point x="255" y="583" type="curve" smooth="yes"/>
      <point x="315" y="583"/>
      <point x="365" y="573"/>
      <point x="365" y="498" type="curve" smooth="yes"/>
      <point x="365" y="488"/>
      <point x="365" y="478"/>
      <point x="363" y="466" type="curve" smooth="yes"/>
      <point x="315" y="121" type="line" smooth="yes"/>
      <point x="300" y="17"/>
      <point x="243" y="4"/>
    </contour>
  </outline>
</glyph>
<glyph name="longs" format="2">
  <advance width="185"/>
  <unicode hex="017F"/>
  <note>
longs
</note>
  <outline>
    <contour>
      <point x="-39" y="-147" type="curve" smooth="yes"/>
      <point x="9" y="-147"/>
      <point x="37" y="-114"/>
      <point x="44" y="-58" type="curve" smooth="yes"/>
      <point x="130" y="552" type="line" smooth="yes"/>
      <point x="135" y="584"/>
      <point x="148" y="621"/>
      <point x="201" y="621" type="curve" smooth="yes"/>
      <point x="208" y="621"/>
      <point x="242" y="620"/>
      <point x="254" y="617" type="curve"/>
      <point x="256" y="632" type="line"/>
      <point x="250" y="633"/>
      <point x="228" y="636"/>
      <point x="198" y="636" type="curve" smooth="yes"/>
      <point x="146" y="636"/>
      <point x="120" y="603"/>
      <point x="113" y="547" type="curve" smooth="yes"/>
      <point x="98" y="441" type="line"/>
      <point x="67" y="441" type="line"/>
      <point x="64" y="425" type="line"/>
      <point x="95" y="425" type="line"/>
      <point x="28" y="-63" type="line" smooth="yes"/>
      <point x="23" y="-98"/>
      <point x="-1" y="-132"/>
      <point x="-38" y="-132" type="curve" smooth="yes"/>
      <point x="-58" y="-132"/>
      <point x="-87" y="-130"/>
      <point x="-97" y="-128" type="curve"/>
      <point x="-99" y="-143" type="line"/>
      <point x="-86" y="-145"/>
      <point x="-66" y="-147"/>
    </contour>
  </outline>
</glyph>
<glyph name="jdotless" format="2">
  <advance width="154"/>
  <unicode hex="0237"/>
  <anchor x="22" y="-116" name="bottom"/>
  <anchor x="112" y="495" name="top"/>
  <outline>
    <contour>
      <point x="-38" y="-116" type="curve" smooth="yes"/>
      <point x="11" y="-116"/>
      <point x="39" y="-86"/>
      <point x="47" y="-33" type="curve" smooth="yes"/>
      <point x="121" y="495" type="line"/>
      <point x="105" y="495" type="line"/>
      <point x="31" y="-32" type="line" smooth="yes"/>
      <point x="26" y="-68"/>
      <point x="8" y="-101"/>
      <point x="-35" y="-101" type="curve" smooth="yes"/>
      <point x="-54" y="-101"/>
      <point x="-71" y="-99"/>
      <point x="-84" y="-97" type="curve"/>
      <point x="-87" y="-113" type="line"/>
      <point x="-88" y="-113"/>
      <point x="-63" y="-116"/>
    </contour>
  </outline>
</glyph>
<glyph name="acutecomb" format="2">
  <unicode hex="0301"/>
  <note>
acutecomb
</note>
  <guideline x="78" y="528" angle="82"/>
  <anchor x="274" y="495" name="_top"/>
  <anchor x="212" y="436" name="_topviet"/>
  <anchor x="300" y="630" name="top"/>
  <outline>
    <contour>
      <point x="249" y="545" type="line"/>
      <point x="264" y="545" type="line"/>
      <point x="347" y="631" type="line"/>
      <point x="327" y="631" type="line"/>
    </contour>
  </outline>
</glyph>
<glyph name="tildecomb" format="2">
  <unicode hex="0303"/>
  <note>
tildecomb
</note>
  <guideline x="123" y="518" angle="82"/>
  <anchor x="286" y="495" name="_top"/>
  <anchor x="319" y="403" name="_topviet"/>
  <anchor x="297" y="572" name="top"/>
  <outline>
    <contour>
      <point x="332" y="550" type="curve" smooth="yes"/>
      <point x="357" y="550"/>
      <point x="375" y="567"/>
      <point x="383" y="592" type="curve"/>
      <point x="368" y="592" type="line"/>
      <point x="362" y="569"/>
      <point x="347" y="565"/>
      <point x="334" y="565" type="curve" smooth="yes"/>
      <point x="302" y="565"/>
      <point x="292" y="595"/>
      <point x="258" y="595" type="curve" smooth="yes"/>
      <point x="232" y="595"/>
      <point x="216" y="577"/>
      <point x="209" y="554" type="curve"/>
      <point x="224" y="554" type="line"/>
      <point x="230" y="576"/>
      <point x="244" y="580"/>
      <point x="256" y="580" type="curve" smooth="yes"/>
      <point x="284" y="580"/>
      <point x="297" y="550"/>
    </contour>
  </outline>
</glyph>
<glyph name="brevecomb" format="2">
  <unicode hex="0306"/>
  <note>
brevecomb
</note>
  <guideline x="121" y="518" angle="82"/>
  <anchor x="284" y="495" name="_top"/>
  <anchor x="297" y="591" name="top"/>
  <outline>
    <contour>
      <point x="287" y="546" type="curve" smooth="yes"/>
      <point x="346" y="546"/>
      <point x="382" y="585"/>
      <point x="387" y="623" type="curve"/>
      <point x="371" y="623" type="line"/>
      <point x="366" y="582"/>
      <point x="325" y="562"/>
      <point x="290" y="562" type="curve" smooth="yes"/>
      <point x="256" y="562"/>
      <point x="231" y="579"/>
      <point x="236" y="623" type="curve"/>
      <point x="220" y="623" type="line"/>
      <point x="215" y="586"/>
      <point x="229" y="546"/>
    </contour>
  </outline>
</glyph>
<glyph name="dieresiscomb" format="2">
  <unicode hex="0308"/>
  <guideline x="91" y="516" angle="82"/>
  <anchor x="286" y="495" name="_top"/>
  <anchor x="297" y="570" name="top"/>
  <outline>
    <contour>
      <point x="334" y="566" type="curve" smooth="yes"/>
      <point x="344" y="566"/>
      <point x="350" y="572"/>
      <point x="350" y="583" type="curve" smooth="yes"/>
      <point x="350" y="590"/>
      <point x="346" y="594"/>
      <point x="338" y="594" type="curve" smooth="yes"/>
      <point x="328" y="594"/>
      <point x="322" y="588"/>
      <point x="322" y="577" type="curve" smooth="yes"/>
      <point x="322" y="570"/>
      <point x="326" y="566"/>
    </contour>
    <contour>
      <point x="257" y="566" type="curve" smooth="yes"/>
      <point x="267" y="566"/>
      <point x="273" y="572"/>
      <point x="273" y="583" type="curve" smooth="yes"/>
      <point x="273" y="590"/>
      <point x="269" y="594"/>
      <point x="261" y="594" type="curve" smooth="yes"/>
      <point x="251" y="594"/>
      <point x="245" y="588"/>
      <point x="245" y="577" type="curve" smooth="yes"/>
      <point x="245" y="570"/>
      <point x="249" y="566"/>
    </contour>
  </outline>
</glyph>
<glyph name="hookabovecomb" format="2">
  <unicode hex="0309"/>
  <note>
hookabovecomb
</note>
  <guideline x="87" y="518" angle="82"/>
  <anchor x="278" y="495" name="_top"/>
  <anchor x="219" y="449" name="_topviet"/>
  <anchor x="303" y="625" name="top"/>
  <outline>
    <contour>
      <point x="276" y="539" type="line"/>
      <point x="292" y="539" type="line"/>
      <point x="294" y="548" type="line" smooth="yes"/>
      <point x="297" y="573"/>
      <point x="347" y="575"/>
      <point x="353" y="617" type="curve" smooth="yes"/>
      <point x="354" y="622" type="line" smooth="yes"/>
      <point x="358" y="647"/>
      <point x="343" y="662"/>
      <point x="312" y="662" type="curve" smooth="yes"/>
      <point x="279" y="662"/>
      <point x="261" y="648"/>
      <point x="253" y="626" type="curve"/>
      <point x="267" y="621" type="line"/>
      <point x="273" y="639"/>
      <point x="286" y="646"/>
      <point x="309" y="646" type="curve" smooth="yes"/>
      <point x="336" y="646"/>
      <point x="339" y="632"/>
      <point x="338" y="621" type="curve" smooth="yes"/>
      <point x="337" y="617" type="line" smooth="yes"/>
      <point x="333" y="584"/>
      <point x="283" y="586"/>
      <point x="277" y="546" type="curve" smooth="yes"/>
    </contour>
  </outline>
</glyph>
<glyph name="ringcomb" format="2">
  <unicode hex="030A"/>
  <guideline x="93" y="518" angle="82"/>
  <anchor x="286" y="495" name="_top"/>
  <anchor x="303" y="618" name="top"/>
  <outline>
    <contour>
      <point x="292" y="540" type="curve" smooth="yes"/>
      <point x="324" y="540"/>
      <point x="353" y="568"/>
      <point x="353" y="600" type="curve" smooth="yes"/>
      <point x="353" y="626"/>
      <point x="333" y="646"/>
      <point x="305" y="646" type="curve" smooth="yes"/>
      <point x="273" y="646"/>
      <point x="244" y="618"/>
      <point x="244" y="586" type="curve" smooth="yes"/>
      <point x="244" y="560"/>
      <point x="264" y="540"/>
    </contour>
    <contour>
      <point x="293" y="556" type="curve" smooth="yes"/>
      <point x="274" y="556"/>
      <point x="260" y="569"/>
      <point x="260" y="587" type="curve" smooth="yes"/>
      <point x="260" y="612"/>
      <point x="280" y="630"/>
      <point x="303" y="630" type="curve" smooth="yes"/>
      <point x="322" y="630"/>
      <point x="336" y="617"/>
      <point x="336" y="599" type="curve" smooth="yes"/>
      <point x="336" y="574"/>
      <point x="316" y="556"/>
    </contour>
  </outline>
</glyph>
<glyph name="dblgravecomb" format="2">
  <unicode hex="030F"/>
  <guideline x="100" y="518" angle="82"/>
  <anchor x="300" y="495" name="_top"/>
  <anchor x="300" y="631" name="top"/>
  <outline>
    <contour>
      <point x="344" y="545" type="line"/>
      <point x="359" y="545" type="line"/>
      <point x="293" y="631" type="line"/>
      <point x="273" y="631" type="line"/>
    </contour>
    <contour>
      <point x="309" y="545" type="line"/>
      <point x="324" y="545" type="line"/>
      <point x="258" y="631" type="line"/>
      <point x="238" y="631" type="line"/>
    </contour>
  </outline>
</glyph>
<glyph name="horncomb" format="2">
  <unicode hex="031B"/>
  <note>
horncomb
</note>
  <anchor x="226" y="495" name="_topright"/>
  <anchor x="352" y="561" name="topright"/>
  <outline>
    <contour>
      <point x="246" y="486" type="line"/>
      <point x="293" y="486"/>
      <point x="327" y="507"/>
      <point x="333" y="552" type="curve" smooth="yes"/>
      <point x="334" y="561" type="line"/>
      <point x="318" y="561" type="line"/>
      <point x="317" y="551" type="line" smooth="yes"/>
      <point x="311" y="512"/>
      <point x="285" y="497"/>
      <point x="245" y="497" type="curve"/>
    </contour>
  </outline>
</glyph>
<glyph name="dieresisbelowcomb" format="2">
  <unicode hex="0324"/>
  <guideline x="36" y="119" angle="82"/>
  <anchor x="217" y="0" name="_bottom"/>
  <anchor x="206" y="-77" name="bottom"/>
  <outline>
    <contour>
      <point x="246" y="-54" type="curve" smooth="yes"/>
      <point x="256" y="-54"/>
      <point x="262" y="-48"/>
      <point x="262" y="-37" type="curve" smooth="yes"/>
      <point x="262" y="-30"/>
      <point x="258" y="-26"/>
      <point x="250" y="-26" type="curve" smooth="yes"/>
      <point x="240" y="-26"/>
      <point x="234" y="-32"/>
      <point x="234" y="-43" type="curve" smooth="yes"/>
      <point x="234" y="-50"/>
      <point x="238" y="-54"/>
    </contour>
    <contour>
      <point x="169" y="-54" type="curve" smooth="yes"/>
      <point x="179" y="-54"/>
      <point x="185" y="-48"/>
      <point x="185" y="-37" type="curve" smooth="yes"/>
      <point x="185" y="-30"/>
      <point x="181" y="-26"/>
      <point x="173" y="-26" type="curve" smooth="yes"/>
      <point x="163" y="-26"/>
      <point x="157" y="-32"/>
      <point x="157" y="-43" type="curve" smooth="yes"/>
      <point x="157" y="-50"/>
      <point x="161" y="-54"/>
    </contour>
  </outline>
</glyph>
<glyph name="cedillacomb" format="2">
  <unicode hex="0327"/>
  <anchor x="209" y="0" name="_bottom"/>
  <anchor x="199" y="-134" name="bottom"/>
  <outline>
    <contour>
      <point x="189" y="-134" type="curve" smooth="yes"/>
      <point x="231" y="-134"/>
      <point x="255" y="-110"/>
      <point x="255" y="-78" type="curve" smooth="yes"/>
      <point x="255" y="-58"/>
      <point x="242" y="-41"/>
      <point x="212" y="-41" type="curve" smooth="yes"/>
      <point x="205" y="-41"/>
      <point x="192" y="-42"/>
      <point x="190" y="-43" type="curve"/>
      <point x="216" y="0" type="line"/>
      <point x="203" y="0" type="line"/>
      <point x="161" y="-57" type="line"/>
      <point x="168" y="-67" type="line"/>
      <point x="178" y="-60"/>
      <point x="190" y="-57"/>
      <point x="208" y="-57" type="curve" smooth="yes"/>
      <point x="227" y="-57"/>
      <point x="238" y="-65"/>
      <point x="238" y="-80" type="curve" smooth="yes"/>
      <point x="238" y="-98"/>
      <point x="222" y="-119"/>
      <point x="191" y="-119" type="curve" smooth="yes"/>
      <point x="177" y="-119"/>
      <point x="163" y="-114"/>
      <point x="157" y="-108" type="curve"/>
      <point x="147" y="-122" type="line"/>
      <point x="157" y="-128"/>
      <point x="169" y="-134"/>
    </contour>
  </outline>
</glyph>
<glyph name="brevebelowcomb" format="2">
  <unicode hex="032E"/>
  <guideline x="43" y="-18" angle="82"/>
  <anchor x="212" y="0" name="_bottom"/>
  <anchor x="195" y="-120" name="bottom"/>
  <outline>
    <contour>
      <point x="194" y="-116" type="curve" smooth="yes"/>
      <point x="253" y="-116"/>
      <point x="289" y="-77"/>
      <point x="294" y="-39" type="curve"/>
      <point x="278" y="-39" type="line"/>
      <point x="273" y="-80"/>
      <point x="232" y="-100"/>
      <point x="197" y="-100" type="curve" smooth="yes"/>
      <point x="163" y="-100"/>
      <point x="138" y="-83"/>
      <point x="143" y="-39" type="curve"/>
      <point x="127" y="-39" type="line"/>
      <point x="122" y="-76"/>
      <point x="136" y="-116"/>
    </contour>
  </outline>
</glyph>
<glyph name="macronbelowcomb" format="2">
  <unicode hex="0331"/>
  <guideline x="45" y="-8" angle="82"/>
  <anchor x="216" y="0" name="_bottom"/>
  <anchor x="205" y="-70" name="bottom"/>
  <outline>
    <contour>
      <point x="128" y="-52" type="line"/>
      <point x="288" y="-52" type="line"/>
      <point x="291" y="-36" type="line"/>
      <point x="131" y="-36" type="line"/>
    </contour>
  </outline>
</glyph>
<glyph name="pi" format="2">
  <advance width="527"/>
  <unicode hex="03C0"/>
  <note>
pi
</note>
  <outline>
    <contour>
      <point x="71" y="0" type="curve"/>
      <point x="87" y="0" type="line"/>
      <point x="146" y="168"/>
      <point x="202" y="344"/>
      <point x="220" y="478" type="curve"/>
      <point x="428" y="478" type="line"/>
      <point x="361" y="0" type="line"/>
      <point x="377" y="0" type="line"/>
      <point x="444" y="478" type="line"/>
      <point x="529" y="478" type="line"/>
      <point x="532" y="495" type="line"/>
      <point x="240" y="495" type="line" smooth="yes"/>
      <point x="146" y="495"/>
      <point x="107" y="485"/>
      <point x="67" y="469" type="curve"/>
      <point x="65" y="452" type="line"/>
      <point x="108" y="468"/>
      <point x="147" y="476"/>
      <point x="205" y="479" type="curve"/>
      <point x="182" y="321"/>
      <point x="111" y="112"/>
    </contour>
  </outline>
</glyph>
<glyph name="E-cy" format="2">
  <advance width="412"/>
  <unicode hex="0404"/>
  <note>
uni0404
</note>
  <outline>
    <contour>
      <point x="170" y="-12" type="curve" smooth="yes"/>
      <point x="250" y="-12"/>
      <point x="310" y="2"/>
      <point x="326" y="118" type="curve" smooth="yes"/>
      <point x="336" y="189" type="line"/>
      <point x="320" y="189" type="line"/>
      <point x="310" y="116" type="line" smooth="yes"/>
      <point x="295" y="12"/>
      <point x="239" y="2"/>
      <point x="173" y="2" type="curve" smooth="yes"/>
      <point x="112" y="2"/>
      <point x="62" y="10"/>
      <point x="62" y="84" type="curve" smooth="yes"/>
      <point x="62" y="94"/>
      <point x="63" y="104"/>
      <point x="65" y="116" type="curve" smooth="yes"/>
      <point x="90" y="292" type="line"/>
      <point x="262" y="292" type="line"/>
      <point x="264" y="308" type="line"/>
      <point x="92" y="308" type="line"/>
      <point x="114" y="467" type="line" smooth="yes"/>
      <point x="129" y="572"/>
      <point x="180" y="584"/>
      <point x="255" y="584" type="curve" smooth="yes"/>
      <point x="318" y="584"/>
      <point x="362" y="576"/>
      <point x="362" y="505" type="curve" smooth="yes"/>
      <point x="362" y="495"/>
      <point x="362" y="485"/>
      <point x="360" y="473" type="curve" smooth="yes"/>
      <point x="347" y="381" type="line"/>
      <point x="363" y="381" type="line"/>
      <point x="376" y="469" type="line" smooth="yes"/>
      <point x="378" y="482"/>
      <point x="379" y="494"/>
      <point x="379" y="504" type="curve" smooth="yes"/>
      <point x="379" y="586"/>
      <point x="326" y="599"/>
      <point x="258" y="599" type="curve" smooth="yes"/>
      <point x="177" y="599"/>
      <point x="115" y="585"/>
      <point x="99" y="469" type="curve" smooth="yes"/>
      <point x="49" y="118" type="line" smooth="yes"/>
      <point x="47" y="105"/>
      <point x="46" y="93"/>
      <point x="46" y="83" type="curve" smooth="yes"/>
      <point x="46" y="1"/>
      <point x="99" y="-12"/>
    </contour>
  </outline>
</glyph>
<glyph name="Nje-cy" format="2">
  <advance width="624"/>
  <unicode hex="040A"/>
  <note>
uni040A
</note>
  <outline>
    <contour>
      <point x="41" y="0" type="line"/>
      <point x="57" y="0" type="line"/>
      <point x="100" y="302" type="line"/>
      <point x="329" y="302" type="line"/>
      <point x="286" y="0" type="line"/>
      <point x="302" y="0" type="line"/>
      <point x="386" y="591" type="line"/>
      <point x="370" y="591" type="line"/>
      <point x="331" y="318" type="line"/>
      <point x="102" y="318" type="line"/>
      <point x="141" y="591" type="line"/>
      <point x="125" y="591" type="line"/>
    </contour>
    <contour>
      <point x="410" y="15" type="curve" smooth="yes"/>
      <point x="305" y="15" type="line"/>
      <point x="361" y="420" type="line"/>
      <point x="466" y="420" type="line" smooth="yes"/>
      <point x="545" y="420"/>
      <point x="562" y="385"/>
      <point x="562" y="342" type="curve" smooth="yes"/>
      <point x="562" y="329"/>
      <point x="560" y="315"/>
      <point x="558" y="301" type="curve" smooth="yes"/>
      <point x="534" y="134" type="line" smooth="yes"/>
      <point x="526" y="75"/>
      <point x="513" y="15"/>
    </contour>
    <contour>
      <point x="287" y="0" type="line"/>
      <point x="411" y="0" type="line" smooth="yes"/>
      <point x="524" y="0"/>
      <point x="540" y="69"/>
      <point x="549" y="131" type="curve" smooth="yes"/>
      <point x="573" y="304" type="line" smooth="yes"/>
      <point x="575" y="319"/>
      <point x="577" y="334"/>
      <point x="577" y="349" type="curve" smooth="yes"/>
      <point x="577" y="395"/>
      <point x="559" y="435"/>
      <point x="473" y="435" type="curve" smooth="yes"/>
      <point x="364" y="435" type="line"/>
      <point x="385" y="588" type="line"/>
      <point x="370" y="588" type="line"/>
    </contour>
  </outline>
</glyph>
<glyph name="Tshe-cy" format="2">
  <advance width="430"/>
  <unicode hex="040B"/>
  <note>
uni040B
</note>
  <outline>
    <contour>
      <point x="78" y="0" type="line"/>
      <point x="94" y="0" type="line"/>
      <point x="145" y="323" type="line"/>
      <point x="159" y="380"/>
      <point x="197" y="421"/>
      <point x="270" y="421" type="curve" smooth="yes"/>
      <point x="342" y="421"/>
      <point x="358" y="388"/>
      <point x="358" y="347" type="curve" smooth="yes"/>
      <point x="358" y="331"/>
      <point x="356" y="314"/>
      <point x="353" y="297" type="curve" smooth="yes"/>
      <point x="306" y="0" type="line"/>
      <point x="322" y="0" type="line"/>
      <point x="371" y="306" type="line" smooth="yes"/>
      <point x="373" y="321"/>
      <point x="375" y="337"/>
      <point x="375" y="352" type="curve" smooth="yes"/>
      <point x="375" y="397"/>
      <point x="357" y="437"/>
      <point x="272" y="437" type="curve" smooth="yes"/>
      <point x="209" y="437"/>
      <point x="174" y="410"/>
      <point x="154" y="379" type="curve"/>
      <point x="185" y="575" type="line"/>
      <point x="297" y="575" type="line"/>
      <point x="300" y="591" type="line"/>
      <point x="61" y="591" type="line"/>
      <point x="58" y="575" type="line"/>
      <point x="169" y="575" type="line"/>
    </contour>
  </outline>
</glyph>
<glyph name="Dzhe-cy" format="2">
  <advance width="397"/>
  <unicode hex="040F"/>
  <note>
uni040F
</note>
  <outline>
    <contour>
      <point x="143" y="-99" type="line"/>
      <point x="158" y="-99" type="line"/>
      <point x="171" y="0" type="line"/>
      <point x="286" y="0" type="line"/>
      <point x="369" y="591" type="line"/>
      <point x="355" y="591" type="line"/>
      <point x="275" y="16" type="line"/>
      <point x="58" y="16" type="line"/>
      <point x="138" y="591" type="line"/>
      <point x="124" y="591" type="line"/>
      <point x="41" y="0" type="line"/>
      <point x="156" y="0" type="line"/>
    </contour>
  </outline>
</glyph>
<glyph name="Be-cy" format="2">
  <advance width="379"/>
  <unicode hex="0411"/>
  <note>
uni0411
</note>
  <outline>
    <contour>
      <point x="41" y="0" type="line"/>
      <point x="161" y="0" type="line" smooth="yes"/>
      <point x="274" y="0"/>
      <point x="290" y="69"/>
      <point x="299" y="131" type="curve" smooth="yes"/>
      <point x="323" y="304" type="line" smooth="yes"/>
      <point x="325" y="319"/>
      <point x="327" y="334"/>
      <point x="327" y="349" type="curve" smooth="yes"/>
      <point x="327" y="395"/>
      <point x="309" y="435"/>
      <point x="223" y="435" type="curve" smooth="yes"/>
      <point x="119" y="435" type="line"/>
      <point x="138" y="575" type="line"/>
      <point x="363" y="575" type="line"/>
      <point x="366" y="591" type="line"/>
      <point x="125" y="591" type="line"/>
    </contour>
    <contour>
      <point x="164" y="16" type="curve" smooth="yes"/>
      <point x="60" y="16" type="line"/>
      <point x="116" y="419" type="line"/>
      <point x="220" y="419" type="line" smooth="yes"/>
      <point x="294" y="419"/>
      <point x="310" y="382"/>
      <point x="310" y="339" type="curve" smooth="yes"/>
      <point x="310" y="325"/>
      <point x="308" y="310"/>
      <point x="306" y="295" type="curve" smooth="yes"/>
      <point x="284" y="140" type="line" smooth="yes"/>
      <point x="276" y="81"/>
      <point x="262" y="16"/>
    </contour>
  </outline>
</glyph>
<glyph name="Ge-cy" format="2">
  <advance width="328"/>
  <unicode hex="0413"/>
  <note>
uni0413
</note>
  <anchor x="273" y="0" name="bottomright"/>
  <anchor x="246" y="591" name="top"/>
  <outline>
    <contour>
      <point x="41" y="0" type="line"/>
      <point x="57" y="0" type="line"/>
      <point x="138" y="575" type="line"/>
      <point x="363" y="575" type="line"/>
      <point x="366" y="591" type="line"/>
      <point x="125" y="591" type="line"/>
    </contour>
  </outline>
</glyph>
<glyph name="De-cy" format="2">
  <advance width="444"/>
  <unicode hex="0414"/>
  <note>
uni0414
</note>
  <outline>
    <contour>
      <point x="-32" y="-99" type="line"/>
      <point x="-16" y="-99" type="line"/>
      <point x="-3" y="-5" type="line"/>
      <point x="379" y="-5" type="line"/>
      <point x="366" y="-99" type="line"/>
      <point x="382" y="-99" type="line"/>
      <point x="397" y="11" type="line"/>
      <point x="321" y="11" type="line"/>
      <point x="402" y="591" type="line"/>
      <point x="200" y="591" type="line"/>
      <point x="95" y="92" type="line" smooth="yes"/>
      <point x="84" y="40"/>
      <point x="66" y="13"/>
      <point x="33" y="11" type="curve" smooth="yes"/>
      <point x="-17" y="11" type="line"/>
    </contour>
    <contour>
      <point x="305" y="11" type="line"/>
      <point x="71" y="11" type="line"/>
      <point x="98" y="32"/>
      <point x="108" y="80"/>
      <point x="110" y="92" type="curve" smooth="yes"/>
      <point x="213" y="575" type="line"/>
      <point x="384" y="575" type="line"/>
    </contour>
  </outline>
</glyph>
<glyph name="Ka-cy" format="2">
  <advance width="330"/>
  <unicode hex="041A"/>
  <note>
uni041A
</note>
  <anchor x="275" y="0" name="bottomright"/>
  <anchor x="243" y="591" name="top"/>
  <outline>
    <contour>
      <point x="41" y="0" type="line"/>
      <point x="57" y="0" type="line"/>
      <point x="99" y="296" type="line"/>
      <point x="130" y="296" type="line"/>
      <point x="265" y="0" type="line"/>
      <point x="284" y="0" type="line"/>
      <point x="143" y="306" type="line"/>
      <point x="363" y="591" type="line"/>
      <point x="345" y="591" type="line"/>
      <point x="130" y="312" type="line"/>
      <point x="101" y="312" type="line"/>
      <point x="141" y="591" type="line"/>
      <point x="125" y="591" type="line"/>
    </contour>
  </outline>
</glyph>
<glyph name="El-cy" format="2">
  <advance width="416"/>
  <unicode hex="041B"/>
  <note>
uni041B
</note>
  <outline>
    <contour>
      <point x="20" y="0" type="line"/>
      <point x="75" y="0"/>
      <point x="92" y="77"/>
      <point x="94" y="92" type="curve"/>
      <point x="197" y="575" type="line"/>
      <point x="369" y="575" type="line"/>
      <point x="289" y="1" type="line"/>
      <point x="305" y="1" type="line"/>
      <point x="388" y="591" type="line"/>
      <point x="184" y="591" type="line"/>
      <point x="78" y="92" type="line" smooth="yes"/>
      <point x="67" y="41"/>
      <point x="50" y="16"/>
      <point x="23" y="16" type="curve"/>
    </contour>
  </outline>
</glyph>
<glyph name="Pe-cy" format="2">
  <advance width="394"/>
  <unicode hex="041F"/>
  <note>
uni041F
</note>
  <outline>
    <contour>
      <point x="41" y="0" type="line"/>
      <point x="57" y="0" type="line"/>
      <point x="138" y="575" type="line"/>
      <point x="347" y="575" type="line"/>
      <point x="266" y="0" type="line"/>
      <point x="282" y="0" type="line"/>
      <point x="366" y="591" type="line"/>
      <point x="125" y="591" type="line"/>
    </contour>
  </outline>
</glyph>
<glyph name="Ef-cy" format="2">
  <advance width="443"/>
  <unicode hex="0424"/>
  <note>
uni0424
</note>
  <outline>
    <contour>
      <point x="179" y="0" type="line"/>
      <point x="195" y="0" type="line"/>
      <point x="204" y="59" type="line"/>
      <point x="213" y="59" type="line" smooth="yes"/>
      <point x="293" y="59"/>
      <point x="352" y="73"/>
      <point x="368" y="189" type="curve" smooth="yes"/>
      <point x="398" y="403" type="line" smooth="yes"/>
      <point x="400" y="416"/>
      <point x="401" y="428"/>
      <point x="401" y="438" type="curve" smooth="yes"/>
      <point x="401" y="520"/>
      <point x="348" y="533"/>
      <point x="280" y="533" type="curve" smooth="yes"/>
      <point x="270" y="533" type="line"/>
      <point x="279" y="591" type="line"/>
      <point x="263" y="591" type="line"/>
      <point x="254" y="533" type="line"/>
      <point x="243" y="533" type="line" smooth="yes"/>
      <point x="166" y="533"/>
      <point x="105" y="519"/>
      <point x="89" y="403" type="curve" smooth="yes"/>
      <point x="59" y="189" type="line" smooth="yes"/>
      <point x="57" y="176"/>
      <point x="56" y="164"/>
      <point x="56" y="154" type="curve" smooth="yes"/>
      <point x="56" y="72"/>
      <point x="109" y="59"/>
      <point x="176" y="59" type="curve" smooth="yes"/>
      <point x="188" y="59" type="line"/>
    </contour>
    <contour>
      <point x="190" y="74" type="line"/>
      <point x="177" y="74" type="line" smooth="yes"/>
      <point x="117" y="74"/>
      <point x="72" y="81"/>
      <point x="72" y="152" type="curve" smooth="yes"/>
      <point x="72" y="162"/>
      <point x="73" y="173"/>
      <point x="75" y="186" type="curve" smooth="yes"/>
      <point x="106" y="406" type="line" smooth="yes"/>
      <point x="120" y="510"/>
      <point x="176" y="518"/>
      <point x="241" y="518" type="curve" smooth="yes"/>
      <point x="252" y="518" type="line"/>
    </contour>
    <contour>
      <point x="215" y="74" type="curve" smooth="yes"/>
      <point x="206" y="74" type="line"/>
      <point x="268" y="518" type="line"/>
      <point x="278" y="518" type="line" smooth="yes"/>
      <point x="334" y="518"/>
      <point x="385" y="511"/>
      <point x="385" y="435" type="curve" smooth="yes"/>
      <point x="385" y="427"/>
      <point x="384" y="417"/>
      <point x="383" y="406" type="curve" smooth="yes"/>
      <point x="352" y="186" type="line" smooth="yes"/>
      <point x="337" y="82"/>
      <point x="285" y="74"/>
    </contour>
  </outline>
</glyph>
<glyph name="Tse-cy" format="2">
  <advance width="401"/>
  <unicode hex="0426"/>
  <note>
uni0426
</note>
  <outline>
    <contour>
      <point x="283" y="-74" type="line"/>
      <point x="299" y="-74" type="line"/>
      <point x="312" y="16" type="line"/>
      <point x="292" y="16" type="line"/>
      <point x="373" y="591" type="line"/>
      <point x="357" y="591" type="line"/>
      <point x="276" y="16" type="line"/>
      <point x="59" y="16" type="line"/>
      <point x="140" y="591" type="line"/>
      <point x="124" y="591" type="line"/>
      <point x="41" y="0" type="line"/>
      <point x="294" y="0" type="line"/>
    </contour>
  </outline>
</glyph>
<glyph name="Che-cy" format="2">
  <advance width="399"/>
  <unicode hex="0427"/>
  <note>
uni0427
</note>
  <outline>
    <contour>
      <point x="271" y="0" type="line"/>
      <point x="287" y="0" type="line"/>
      <point x="371" y="591" type="line"/>
      <point x="355" y="591" type="line"/>
      <point x="305" y="249" type="line"/>
      <point x="292" y="192"/>
      <point x="255" y="151"/>
      <point x="182" y="151" type="curve" smooth="yes"/>
      <point x="109" y="151"/>
      <point x="92" y="186"/>
      <point x="92" y="228" type="curve" smooth="yes"/>
      <point x="92" y="243"/>
      <point x="95" y="259"/>
      <point x="97" y="275" type="curve" smooth="yes"/>
      <point x="143" y="591" type="line"/>
      <point x="127" y="591" type="line"/>
      <point x="79" y="266" type="line" smooth="yes"/>
      <point x="77" y="252"/>
      <point x="75" y="237"/>
      <point x="75" y="222" type="curve" smooth="yes"/>
      <point x="75" y="176"/>
      <point x="94" y="135"/>
      <point x="180" y="135" type="curve" smooth="yes"/>
      <point x="243" y="135"/>
      <point x="278" y="162"/>
      <point x="297" y="193" type="curve"/>
    </contour>
  </outline>
</glyph>
<glyph name="Hardsign-cy" format="2">
  <advance width="380"/>
  <unicode hex="042A"/>
  <note>
uni042A
</note>
  <outline>
    <contour>
      <point x="43" y="0" type="line"/>
      <point x="167" y="0" type="line" smooth="yes"/>
      <point x="280" y="0"/>
      <point x="296" y="69"/>
      <point x="305" y="131" type="curve" smooth="yes"/>
      <point x="329" y="304" type="line" smooth="yes"/>
      <point x="331" y="319"/>
      <point x="333" y="334"/>
      <point x="333" y="349" type="curve" smooth="yes"/>
      <point x="333" y="395"/>
      <point x="315" y="435"/>
      <point x="229" y="435" type="curve" smooth="yes"/>
      <point x="120" y="435" type="line"/>
      <point x="142" y="591" type="line"/>
      <point x="63" y="591" type="line"/>
      <point x="60" y="575" type="line"/>
      <point x="124" y="575" type="line"/>
    </contour>
    <contour>
      <point x="166" y="15" type="curve" smooth="yes"/>
      <point x="61" y="15" type="line"/>
      <point x="117" y="420" type="line"/>
      <point x="222" y="420" type="line" smooth="yes"/>
      <point x="301" y="420"/>
      <point x="318" y="385"/>
      <point x="318" y="342" type="curve" smooth="yes"/>
      <point x="318" y="329"/>
      <point x="316" y="315"/>
      <point x="314" y="301" type="curve" smooth="yes"/>
      <point x="290" y="134" type="line" smooth="yes"/>
      <point x="282" y="75"/>
      <point x="269" y="15"/>
    </contour>
  </outline>
</glyph>
<glyph name="Softsign-cy" format="2">
  <advance width="378"/>
  <unicode hex="042C"/>
  <note>
uni042C
</note>
  <outline>
    <contour>
      <point x="42" y="0" type="line"/>
      <point x="166" y="0" type="line" smooth="yes"/>
      <point x="279" y="0"/>
      <point x="294" y="69"/>
      <point x="303" y="131" type="curve" smooth="yes"/>
      <point x="327" y="304" type="line" smooth="yes"/>
      <point x="329" y="319"/>
      <point x="331" y="334"/>
      <point x="331" y="349" type="curve" smooth="yes"/>
      <point x="331" y="395"/>
      <point x="313" y="435"/>
      <point x="227" y="435" type="curve" smooth="yes"/>
      <point x="118" y="435" type="line"/>
      <point x="139" y="588" type="line"/>
      <point x="124" y="588" type="line"/>
    </contour>
    <contour>
      <point x="164" y="15" type="curve" smooth="yes"/>
      <point x="59" y="15" type="line"/>
      <point x="116" y="420" type="line"/>
      <point x="221" y="420" type="line" smooth="yes"/>
      <point x="299" y="420"/>
      <point x="316" y="386"/>
      <point x="316" y="343" type="curve" smooth="yes"/>
      <point x="316" y="330"/>
      <point x="314" y="315"/>
      <point x="312" y="301" type="curve" smooth="yes"/>
      <point x="289" y="134" type="line" smooth="yes"/>
      <point x="280" y="75"/>
      <point x="267" y="15"/>
    </contour>
  </outline>
</glyph>
<glyph name="ve-cy" format="2">
  <advance width="398"/>
  <unicode hex="0432"/>
  <note>
uni0432
</note>
  <outline>
    <contour>
      <point x="33" y="0" type="line"/>
      <point x="187" y="0" type="line" smooth="yes"/>
      <point x="260" y="0"/>
      <point x="312" y="16"/>
      <point x="327" y="120" type="curve" smooth="yes"/>
      <point x="333" y="163" type="line" smooth="yes"/>
      <point x="334" y="170"/>
      <point x="335" y="176"/>
      <point x="335" y="183" type="curve" smooth="yes"/>
      <point x="335" y="232"/>
      <point x="305" y="266"/>
      <point x="262" y="266" type="curve"/>
      <point x="310" y="275"/>
      <point x="350" y="317"/>
      <point x="359" y="381" type="curve" smooth="yes"/>
      <point x="361" y="398" type="line" smooth="yes"/>
      <point x="362" y="405"/>
      <point x="362" y="411"/>
      <point x="362" y="417" type="curve" smooth="yes"/>
      <point x="362" y="475"/>
      <point x="321" y="495"/>
      <point x="266" y="495" type="curve" smooth="yes"/>
      <point x="103" y="495" type="line"/>
    </contour>
    <contour>
      <point x="186" y="16" type="curve" smooth="yes"/>
      <point x="51" y="16" type="line"/>
      <point x="85" y="257" type="line"/>
      <point x="216" y="257" type="line" smooth="yes"/>
      <point x="273" y="257"/>
      <point x="317" y="242"/>
      <point x="317" y="177" type="curve" smooth="yes"/>
      <point x="317" y="169"/>
      <point x="316" y="160"/>
      <point x="315" y="150" type="curve" smooth="yes"/>
      <point x="312" y="125" type="line" smooth="yes"/>
      <point x="299" y="31"/>
      <point x="256" y="16"/>
    </contour>
    <contour>
      <point x="214" y="273" type="curve" smooth="yes"/>
      <point x="88" y="273" type="line"/>
      <point x="117" y="479" type="line"/>
      <point x="264" y="479" type="line" smooth="yes"/>
      <point x="312" y="479"/>
      <point x="346" y="457"/>
      <point x="346" y="414" type="curve" smooth="yes"/>
      <point x="346" y="410"/>
      <point x="346" y="405"/>
      <point x="345" y="400" type="curve" smooth="yes"/>
      <point x="343" y="380" type="line" smooth="yes"/>
      <point x="333" y="311"/>
      <point x="289" y="273"/>
    </contour>
  </outline>
</glyph>
<glyph name="ge-cy" format="2">
  <advance width="291"/>
  <unicode hex="0433"/>
  <note>
uni0433
</note>
  <anchor x="236" y="0" name="bottomright"/>
  <anchor x="210" y="495" name="top"/>
  <outline>
    <contour>
      <point x="33" y="0" type="line"/>
      <point x="49" y="0" type="line"/>
      <point x="117" y="479" type="line"/>
      <point x="314" y="479" type="line"/>
      <point x="316" y="495" type="line"/>
      <point x="103" y="495" type="line"/>
    </contour>
  </outline>
</glyph>
<glyph name="de-cy" format="2">
  <advance width="436"/>
  <unicode hex="0434"/>
  <note>
uni0434
</note>
  <outline>
    <contour>
      <point x="-33" y="-99" type="line"/>
      <point x="-18" y="-99" type="line"/>
      <point x="-5" y="-5" type="line"/>
      <point x="369" y="-5" type="line"/>
      <point x="356" y="-99" type="line"/>
      <point x="371" y="-99" type="line"/>
      <point x="387" y="11" type="line"/>
      <point x="318" y="11" type="line"/>
      <point x="386" y="495" type="line"/>
      <point x="182" y="495" type="line"/>
      <point x="90" y="92" type="line" smooth="yes"/>
      <point x="78" y="40"/>
      <point x="61" y="13"/>
      <point x="38" y="11" type="curve"/>
      <point x="-17" y="11" type="line"/>
    </contour>
    <contour>
      <point x="302" y="11" type="line"/>
      <point x="67" y="11" type="line"/>
      <point x="94" y="32"/>
      <point x="104" y="80"/>
      <point x="106" y="92" type="curve" smooth="yes"/>
      <point x="195" y="479" type="line"/>
      <point x="367" y="479" type="line"/>
    </contour>
  </outline>
</glyph>
<glyph name="ze-cy" format="2">
  <advance width="396"/>
  <unicode hex="0437"/>
  <note>
uni0437
</note>
  <outline>
    <contour>
      <point x="170" y="-7" type="curve" smooth="yes"/>
      <point x="259" y="-7"/>
      <point x="319" y="50"/>
      <point x="331" y="132" type="curve" smooth="yes"/>
      <point x="332" y="139"/>
      <point x="333" y="146"/>
      <point x="333" y="154" type="curve" smooth="yes"/>
      <point x="333" y="203"/>
      <point x="309" y="254"/>
      <point x="254" y="264" type="curve"/>
      <point x="290" y="271"/>
      <point x="357" y="315"/>
      <point x="357" y="408" type="curve" smooth="yes"/>
      <point x="357" y="471"/>
      <point x="320" y="499"/>
      <point x="242" y="499" type="curve" smooth="yes"/>
      <point x="153" y="499"/>
      <point x="99" y="447"/>
      <point x="88" y="364" type="curve" smooth="yes"/>
      <point x="83" y="333" type="line"/>
      <point x="99" y="333" type="line"/>
      <point x="103" y="363" type="line" smooth="yes"/>
      <point x="113" y="429"/>
      <point x="155" y="483"/>
      <point x="239" y="483" type="curve" smooth="yes"/>
      <point x="312" y="483"/>
      <point x="340" y="452"/>
      <point x="340" y="404" type="curve" smooth="yes"/>
      <point x="340" y="313"/>
      <point x="275" y="271"/>
      <point x="210" y="271" type="curve" smooth="yes"/>
      <point x="146" y="271" type="line"/>
      <point x="143" y="255" type="line"/>
      <point x="207" y="255" type="line" smooth="yes"/>
      <point x="276" y="255"/>
      <point x="316" y="211"/>
      <point x="316" y="152" type="curve" smooth="yes"/>
      <point x="316" y="86"/>
      <point x="273" y="8"/>
      <point x="173" y="8" type="curve" smooth="yes"/>
      <point x="113" y="8"/>
      <point x="64" y="40"/>
      <point x="64" y="111" type="curve" smooth="yes"/>
      <point x="64" y="119"/>
      <point x="65" y="128"/>
      <point x="66" y="137" type="curve" smooth="yes"/>
      <point x="69" y="158" type="line"/>
      <point x="53" y="158" type="line"/>
      <point x="50" y="137" type="line" smooth="yes"/>
      <point x="48" y="126"/>
      <point x="48" y="116"/>
      <point x="48" y="106" type="curve" smooth="yes"/>
      <point x="48" y="33"/>
      <point x="91" y="-7"/>
    </contour>
  </outline>
</glyph>
<glyph name="ka-cy" format="2">
  <advance width="316"/>
  <unicode hex="043A"/>
  <note>
uni043A
</note>
  <anchor x="261" y="0" name="bottomright"/>
  <anchor x="227" y="495" name="top"/>
  <outline>
    <contour>
      <point x="33" y="0" type="line"/>
      <point x="49" y="0" type="line"/>
      <point x="76" y="190" type="line"/>
      <point x="83" y="218"/>
      <point x="110" y="261"/>
      <point x="140" y="304" type="curve"/>
      <point x="246" y="0" type="line"/>
      <point x="264" y="0" type="line"/>
      <point x="153" y="318" type="line"/>
      <point x="195" y="375"/>
      <point x="265" y="447"/>
      <point x="331" y="468" type="curve"/>
      <point x="333" y="484" type="line"/>
      <point x="271" y="470"/>
      <point x="163" y="384"/>
      <point x="83" y="241" type="curve"/>
      <point x="119" y="496" type="line"/>
      <point x="103" y="496" type="line"/>
    </contour>
  </outline>
</glyph>
<glyph name="el-cy" format="2">
  <advance width="374"/>
  <unicode hex="043B"/>
  <note>
uni043B
</note>
  <outline>
    <contour>
      <point x="-13" y="0" type="line"/>
      <point x="42" y="0"/>
      <point x="56" y="70"/>
      <point x="61" y="92" type="curve" smooth="yes"/>
      <point x="151" y="479" type="line"/>
      <point x="323" y="479" type="line"/>
      <point x="255" y="1" type="line"/>
      <point x="271" y="1" type="line"/>
      <point x="341" y="495" type="line"/>
      <point x="137" y="495" type="line"/>
      <point x="45" y="94" type="line" smooth="yes"/>
      <point x="33" y="38"/>
      <point x="16" y="16"/>
      <point x="-11" y="16" type="curve"/>
    </contour>
  </outline>
</glyph>
<glyph name="em-cy" format="2">
  <advance width="483"/>
  <unicode hex="043C"/>
  <note>
uni043C
</note>
  <outline>
    <contour>
      <point x="33" y="0" type="line"/>
      <point x="49" y="0" type="line"/>
      <point x="112" y="447" type="line"/>
      <point x="198" y="0" type="line"/>
      <point x="215" y="0" type="line"/>
      <point x="427" y="447" type="line"/>
      <point x="364" y="0" type="line"/>
      <point x="380" y="0" type="line"/>
      <point x="450" y="495" type="line"/>
      <point x="433" y="495" type="line"/>
      <point x="211" y="24" type="line"/>
      <point x="120" y="495" type="line"/>
      <point x="103" y="495" type="line"/>
    </contour>
  </outline>
</glyph>
<glyph name="en-cy" format="2">
  <advance width="382"/>
  <unicode hex="043D"/>
  <note>
uni043D
</note>
  <outline>
    <contour>
      <point x="33" y="0" type="line"/>
      <point x="49" y="0" type="line"/>
      <point x="85" y="255" type="line"/>
      <point x="299" y="255" type="line"/>
      <point x="263" y="0" type="line"/>
      <point x="279" y="0" type="line"/>
      <point x="349" y="495" type="line"/>
      <point x="333" y="495" type="line"/>
      <point x="301" y="271" type="line"/>
      <point x="87" y="271" type="line"/>
      <point x="119" y="495" type="line"/>
      <point x="103" y="495" type="line"/>
    </contour>
  </outline>
</glyph>
<glyph name="ef-cy" format="2">
  <advance width="595"/>
  <unicode hex="0444"/>
  <note>
uni0444
</note>
  <outline>
    <contour>
      <point x="238" y="-116" type="line"/>
      <point x="254" y="-116" type="line"/>
      <point x="276" y="37" type="line"/>
      <point x="287" y="11"/>
      <point x="315" y="-7"/>
      <point x="374" y="-7" type="curve" smooth="yes"/>
      <point x="487" y="-7"/>
      <point x="507" y="62"/>
      <point x="516" y="124" type="curve" smooth="yes"/>
      <point x="543" y="315" type="line" smooth="yes"/>
      <point x="545" y="328"/>
      <point x="546" y="341"/>
      <point x="546" y="353" type="curve" smooth="yes"/>
      <point x="546" y="402"/>
      <point x="527" y="446"/>
      <point x="441" y="446" type="curve" smooth="yes"/>
      <point x="380" y="446"/>
      <point x="347" y="427"/>
      <point x="327" y="401" type="curve"/>
      <point x="354" y="591" type="line"/>
      <point x="338" y="591" type="line"/>
      <point x="311" y="398" type="line"/>
      <point x="298" y="426"/>
      <point x="271" y="446"/>
      <point x="213" y="446" type="curve" smooth="yes"/>
      <point x="94" y="446"/>
      <point x="79" y="376"/>
      <point x="71" y="315" type="curve" smooth="yes"/>
      <point x="44" y="124" type="line" smooth="yes"/>
      <point x="42" y="109"/>
      <point x="40" y="94"/>
      <point x="40" y="79" type="curve" smooth="yes"/>
      <point x="40" y="33"/>
      <point x="59" y="-7"/>
      <point x="146" y="-7" type="curve" smooth="yes"/>
      <point x="207" y="-7"/>
      <point x="240" y="13"/>
      <point x="260" y="41" type="curve"/>
    </contour>
    <contour>
      <point x="148" y="9" type="curve" smooth="yes"/>
      <point x="72" y="9"/>
      <point x="56" y="44"/>
      <point x="56" y="84" type="curve" smooth="yes"/>
      <point x="56" y="98"/>
      <point x="58" y="113"/>
      <point x="60" y="127" type="curve" smooth="yes"/>
      <point x="86" y="312" type="line" smooth="yes"/>
      <point x="94" y="365"/>
      <point x="103" y="430"/>
      <point x="211" y="430" type="curve" smooth="yes"/>
      <point x="286" y="430"/>
      <point x="302" y="393"/>
      <point x="302" y="352" type="curve" smooth="yes"/>
      <point x="302" y="339"/>
      <point x="300" y="325"/>
      <point x="298" y="312" type="curve" smooth="yes"/>
      <point x="272" y="127" type="line" smooth="yes"/>
      <point x="265" y="74"/>
      <point x="251" y="9"/>
    </contour>
    <contour>
      <point x="376" y="9" type="curve" smooth="yes"/>
      <point x="300" y="9"/>
      <point x="284" y="44"/>
      <point x="284" y="83" type="curve" smooth="yes"/>
      <point x="284" y="97"/>
      <point x="286" y="112"/>
      <point x="288" y="126" type="curve" smooth="yes"/>
      <point x="315" y="313" type="line" smooth="yes"/>
      <point x="322" y="366"/>
      <point x="331" y="430"/>
      <point x="439" y="430" type="curve" smooth="yes"/>
      <point x="514" y="430"/>
      <point x="530" y="393"/>
      <point x="530" y="352" type="curve" smooth="yes"/>
      <point x="530" y="339"/>
      <point x="528" y="325"/>
      <point x="526" y="312" type="curve" smooth="yes"/>
      <point x="500" y="127" type="line" smooth="yes"/>
      <point x="493" y="74"/>
      <point x="479" y="9"/>
    </contour>
  </outline>
</glyph>
<glyph name="tse-cy" format="2">
  <advance width="381"/>
  <unicode hex="0446"/>
  <note>
uni0446
</note>
  <outline>
    <contour>
      <point x="278" y="-65" type="line"/>
      <point x="293" y="-65" type="line"/>
      <point x="304" y="16" type="line"/>
      <point x="280" y="16" type="line"/>
      <point x="347" y="495" type="line"/>
      <point x="331" y="495" type="line"/>
      <point x="264" y="16" type="line"/>
      <point x="52" y="16" type="line"/>
      <point x="119" y="495" type="line"/>
      <point x="103" y="495" type="line"/>
      <point x="34" y="0" type="line"/>
      <point x="287" y="0" type="line"/>
    </contour>
  </outline>
</glyph>
<glyph name="shcha-cy" format="2">
  <advance width="545"/>
  <unicode hex="0449"/>
  <note>
uni0449
</note>
  <outline>
    <contour>
      <point x="442" y="-65" type="line"/>
      <point x="457" y="-65" type="line"/>
      <point x="468" y="16" type="line"/>
      <point x="444" y="16" type="line"/>
      <point x="511" y="495" type="line"/>
      <point x="495" y="495" type="line"/>
      <point x="428" y="16" type="line"/>
      <point x="246" y="16" type="line"/>
      <point x="313" y="495" type="line"/>
      <point x="297" y="495" type="line"/>
      <point x="230" y="16" type="line"/>
      <point x="52" y="16" type="line"/>
      <point x="119" y="495" type="line"/>
      <point x="103" y="495" type="line"/>
      <point x="34" y="0" type="line"/>
      <point x="451" y="0" type="line"/>
    </contour>
  </outline>
</glyph>
<glyph name="hardsign-cy" format="2">
  <advance width="376"/>
  <unicode hex="044A"/>
  <note>
uni044A
</note>
  <outline>
    <contour>
      <point x="58" y="0" type="line"/>
      <point x="182" y="0" type="line" smooth="yes"/>
      <point x="295" y="0"/>
      <point x="312" y="69"/>
      <point x="320" y="131" type="curve" smooth="yes"/>
      <point x="330" y="207" type="line" smooth="yes"/>
      <point x="332" y="222"/>
      <point x="334" y="237"/>
      <point x="334" y="251" type="curve" smooth="yes"/>
      <point x="334" y="297"/>
      <point x="316" y="338"/>
      <point x="230" y="338" type="curve" smooth="yes"/>
      <point x="121" y="338" type="line"/>
      <point x="143" y="495" type="line"/>
      <point x="128" y="495" type="line"/>
    </contour>
    <contour>
      <point x="180" y="15" type="curve" smooth="yes"/>
      <point x="75" y="15" type="line"/>
      <point x="119" y="323" type="line"/>
      <point x="224" y="323" type="line" smooth="yes"/>
      <point x="302" y="323"/>
      <point x="319" y="289"/>
      <point x="319" y="246" type="curve" smooth="yes"/>
      <point x="319" y="233"/>
      <point x="317" y="218"/>
      <point x="315" y="204" type="curve" smooth="yes"/>
      <point x="305" y="134" type="line" smooth="yes"/>
      <point x="297" y="75"/>
      <point x="283" y="15"/>
    </contour>
    <contour>
      <point x="38" y="479" type="line"/>
      <point x="138" y="479" type="line"/>
      <point x="140" y="495" type="line"/>
      <point x="40" y="495" type="line"/>
    </contour>
  </outline>
</glyph>
<glyph name="ereversed-cy" format="2">
  <advance width="350"/>
  <unicode hex="044D"/>
  <note>
uni044D
</note>
  <outline>
    <contour>
      <point x="130" y="-7" type="curve" smooth="yes"/>
      <point x="249" y="-7"/>
      <point x="265" y="62"/>
      <point x="274" y="124" type="curve" smooth="yes"/>
      <point x="308" y="372" type="line" smooth="yes"/>
      <point x="310" y="386"/>
      <point x="312" y="401"/>
      <point x="312" y="416" type="curve" smooth="yes"/>
      <point x="312" y="462"/>
      <point x="293" y="503"/>
      <point x="202" y="503" type="curve" smooth="yes"/>
      <point x="89" y="503"/>
      <point x="73" y="433"/>
      <point x="64" y="372" type="curve" smooth="yes"/>
      <point x="58" y="328" type="line"/>
      <point x="74" y="328" type="line"/>
      <point x="80" y="369" type="line" smooth="yes"/>
      <point x="88" y="428"/>
      <point x="102" y="487"/>
      <point x="200" y="487" type="curve" smooth="yes"/>
      <point x="279" y="487"/>
      <point x="296" y="453"/>
      <point x="296" y="411" type="curve" smooth="yes"/>
      <point x="296" y="398"/>
      <point x="294" y="383"/>
      <point x="292" y="369" type="curve" smooth="yes"/>
      <point x="276" y="258" type="line"/>
      <point x="115" y="258" type="line"/>
      <point x="113" y="242" type="line"/>
      <point x="274" y="242" type="line"/>
      <point x="258" y="127" type="line" smooth="yes"/>
      <point x="250" y="68"/>
      <point x="236" y="9"/>
      <point x="132" y="9" type="curve" smooth="yes"/>
      <point x="58" y="9"/>
      <point x="42" y="42"/>
      <point x="42" y="84" type="curve" smooth="yes"/>
      <point x="42" y="98"/>
      <point x="44" y="112"/>
      <point x="46" y="127" type="curve" smooth="yes"/>
      <point x="52" y="167" type="line"/>
      <point x="36" y="167" type="line"/>
      <point x="30" y="124" type="line" smooth="yes"/>
      <point x="28" y="109"/>
      <point x="26" y="94"/>
      <point x="26" y="79" type="curve" smooth="yes"/>
      <point x="26" y="33"/>
      <point x="44" y="-7"/>
    </contour>
  </outline>
</glyph>
<glyph name="dje-cy" format="2">
  <advance width="374"/>
  <unicode hex="0452"/>
  <note>
uni0452
</note>
  <outline>
    <contour>
      <point x="128" y="-101" type="line"/>
      <point x="246" y="-101"/>
      <point x="270" y="-56"/>
      <point x="284" y="45" type="curve" smooth="yes"/>
      <point x="321" y="306" type="line" smooth="yes"/>
      <point x="323" y="320"/>
      <point x="325" y="335"/>
      <point x="325" y="349" type="curve" smooth="yes"/>
      <point x="325" y="396"/>
      <point x="307" y="437"/>
      <point x="220" y="437" type="curve" smooth="yes"/>
      <point x="157" y="437"/>
      <point x="122" y="410"/>
      <point x="103" y="379" type="curve"/>
      <point x="125" y="532" type="line"/>
      <point x="241" y="532" type="line"/>
      <point x="243" y="548" type="line"/>
      <point x="60" y="548" type="line"/>
      <point x="58" y="532" type="line"/>
      <point x="109" y="532" type="line"/>
      <point x="34" y="0" type="line"/>
      <point x="50" y="0" type="line"/>
      <point x="95" y="323" type="line"/>
      <point x="108" y="380"/>
      <point x="145" y="421"/>
      <point x="218" y="421" type="curve" smooth="yes"/>
      <point x="292" y="421"/>
      <point x="308" y="385"/>
      <point x="308" y="343" type="curve" smooth="yes"/>
      <point x="308" y="328"/>
      <point x="306" y="312"/>
      <point x="304" y="297" type="curve" smooth="yes"/>
      <point x="268" y="41" type="line" smooth="yes"/>
      <point x="255" y="-46"/>
      <point x="231" y="-85"/>
      <point x="130" y="-85" type="curve"/>
    </contour>
    <contour>
      <point x="109" y="535" type="line"/>
      <point x="125" y="535" type="line"/>
      <point x="138" y="630" type="line"/>
      <point x="122" y="630" type="line"/>
    </contour>
  </outline>
</glyph>
<glyph name="e-cy" format="2">
  <advance width="350"/>
  <unicode hex="0454"/>
  <note>
uni0454
</note>
  <outline>
    <contour>
      <point x="148" y="-7" type="curve" smooth="yes"/>
      <point x="261" y="-7"/>
      <point x="277" y="62"/>
      <point x="286" y="124" type="curve" smooth="yes"/>
      <point x="292" y="167" type="line"/>
      <point x="276" y="167" type="line"/>
      <point x="270" y="127" type="line" smooth="yes"/>
      <point x="262" y="68"/>
      <point x="248" y="9"/>
      <point x="150" y="9" type="curve" smooth="yes"/>
      <point x="71" y="9"/>
      <point x="54" y="43"/>
      <point x="54" y="85" type="curve" smooth="yes"/>
      <point x="54" y="98"/>
      <point x="56" y="113"/>
      <point x="58" y="127" type="curve" smooth="yes"/>
      <point x="74" y="242" type="line"/>
      <point x="235" y="242" type="line"/>
      <point x="237" y="258" type="line"/>
      <point x="76" y="258" type="line"/>
      <point x="92" y="369" type="line" smooth="yes"/>
      <point x="100" y="428"/>
      <point x="114" y="487"/>
      <point x="218" y="487" type="curve" smooth="yes"/>
      <point x="292" y="487"/>
      <point x="308" y="454"/>
      <point x="308" y="412" type="curve" smooth="yes"/>
      <point x="308" y="398"/>
      <point x="306" y="384"/>
      <point x="304" y="369" type="curve" smooth="yes"/>
      <point x="298" y="328" type="line"/>
      <point x="314" y="328" type="line"/>
      <point x="320" y="372" type="line" smooth="yes"/>
      <point x="322" y="387"/>
      <point x="324" y="402"/>
      <point x="324" y="417" type="curve" smooth="yes"/>
      <point x="324" y="463"/>
      <point x="306" y="503"/>
      <point x="220" y="503" type="curve" smooth="yes"/>
      <point x="101" y="503"/>
      <point x="85" y="433"/>
      <point x="76" y="372" type="curve" smooth="yes"/>
      <point x="42" y="124" type="line" smooth="yes"/>
      <point x="40" y="109"/>
      <point x="38" y="94"/>
      <point x="38" y="80" type="curve" smooth="yes"/>
      <point x="38" y="33"/>
      <point x="57" y="-7"/>
    </contour>
  </outline>
</glyph>
<glyph name="lje-cy" format="2">
  <advance width="551"/>
  <unicode hex="0459"/>
  <note>
uni0459
</note>
  <outline>
    <contour>
      <point x="-13" y="0" type="line"/>
      <point x="42" y="0"/>
      <point x="55" y="66"/>
      <point x="61" y="92" type="curve" smooth="yes"/>
      <point x="149" y="479" type="line"/>
      <point x="303" y="479" type="line"/>
      <point x="298" y="495" type="line"/>
      <point x="137" y="495" type="line"/>
      <point x="45" y="92" type="line" smooth="yes"/>
      <point x="32" y="36"/>
      <point x="16" y="15"/>
      <point x="-11" y="15" type="curve"/>
    </contour>
    <contour>
      <point x="355" y="15" type="curve" smooth="yes"/>
      <point x="250" y="15" type="line"/>
      <point x="294" y="323" type="line"/>
      <point x="399" y="323" type="line" smooth="yes"/>
      <point x="477" y="323"/>
      <point x="494" y="289"/>
      <point x="494" y="246" type="curve" smooth="yes"/>
      <point x="494" y="233"/>
      <point x="492" y="218"/>
      <point x="490" y="204" type="curve" smooth="yes"/>
      <point x="480" y="134" type="line" smooth="yes"/>
      <point x="472" y="75"/>
      <point x="458" y="15"/>
    </contour>
    <contour>
      <point x="233" y="0" type="line"/>
      <point x="357" y="0" type="line" smooth="yes"/>
      <point x="470" y="0"/>
      <point x="486" y="69"/>
      <point x="495" y="131" type="curve" smooth="yes"/>
      <point x="505" y="207" type="line" smooth="yes"/>
      <point x="507" y="222"/>
      <point x="509" y="237"/>
      <point x="509" y="252" type="curve" smooth="yes"/>
      <point x="509" y="298"/>
      <point x="491" y="338"/>
      <point x="405" y="338" type="curve" smooth="yes"/>
      <point x="296" y="338" type="line"/>
      <point x="318" y="495" type="line"/>
      <point x="303" y="495" type="line"/>
    </contour>
    <contour>
      <point x="213" y="479" type="line"/>
      <point x="313" y="479" type="line"/>
      <point x="315" y="495" type="line"/>
      <point x="215" y="495" type="line"/>
    </contour>
  </outline>
</glyph>
<glyph name="yusbig-cy" format="2">
  <advance width="558"/>
  <unicode hex="046B"/>
  <outline>
    <contour>
      <point x="9" y="0" type="line"/>
      <point x="26" y="0" type="line"/>
      <point x="109" y="187" type="line" smooth="yes"/>
      <point x="124" y="221"/>
      <point x="145" y="259"/>
      <point x="187" y="259" type="curve" smooth="yes"/>
      <point x="376" y="259" type="line" smooth="yes"/>
      <point x="418" y="258"/>
      <point x="430" y="221"/>
      <point x="435" y="187" type="curve" smooth="yes"/>
      <point x="463" y="0" type="line"/>
      <point x="480" y="0" type="line"/>
      <point x="451" y="189" type="line" smooth="yes"/>
      <point x="445" y="230"/>
      <point x="440" y="272"/>
      <point x="380" y="272" type="curve" smooth="yes"/>
      <point x="307" y="272" type="line"/>
      <point x="566" y="479" type="line"/>
      <point x="568" y="495" type="line"/>
      <point x="60" y="495" type="line"/>
      <point x="58" y="479" type="line"/>
      <point x="258" y="272" type="line"/>
      <point x="184" y="272" type="line" smooth="yes"/>
      <point x="131" y="272"/>
      <point x="110" y="230"/>
      <point x="92" y="189" type="curve" smooth="yes"/>
    </contour>
    <contour>
      <point x="238" y="0" type="line"/>
      <point x="254" y="0" type="line"/>
      <point x="338" y="591" type="line"/>
      <point x="322" y="591" type="line"/>
    </contour>
    <contour>
      <point x="284" y="272" type="line"/>
      <point x="81" y="479" type="line"/>
      <point x="542" y="479" type="line"/>
    </contour>
  </outline>
</glyph>
<glyph name="quoteleft" format="2">
  <advance width="132"/>
  <unicode hex="2018"/>
  <note>
quoteleft
</note>
  <outline>
    <contour>
      <point x="97" y="480" type="curve" smooth="yes"/>
      <point x="110" y="480"/>
      <point x="117" y="493"/>
      <point x="117" y="503" type="curve" smooth="yes"/>
      <point x="117" y="518"/>
      <point x="106" y="520"/>
      <point x="106" y="530" type="curve" smooth="yes"/>
      <point x="106" y="547"/>
      <point x="130" y="581"/>
      <point x="140" y="596" type="curve"/>
      <point x="127" y="596" type="line"/>
      <point x="107" y="571"/>
      <point x="83" y="532"/>
      <point x="79" y="505" type="curve" smooth="yes"/>
      <point x="78" y="492"/>
      <point x="82" y="480"/>
    </contour>
  </outline>
</glyph>
<glyph name="dagger" format="2">
  <advance width="353"/>
  <unicode hex="2020"/>
  <note>
dagger
</note>
  <outline>
    <contour>
      <point x="119" y="-79" type="line"/>
      <point x="137" y="-79" type="line"/>
      <point x="204" y="396" type="line"/>
      <point x="324" y="396" type="line"/>
      <point x="326" y="412" type="line"/>
      <point x="206" y="412" type="line"/>
      <point x="237" y="630" type="line"/>
      <point x="219" y="630" type="line"/>
      <point x="188" y="412" type="line"/>
      <point x="73" y="412" type="line"/>
      <point x="71" y="396" type="line"/>
      <point x="186" y="396" type="line"/>
    </contour>
  </outline>
</glyph>
<glyph name="daggerdbl" format="2">
  <advance width="356"/>
  <unicode hex="2021"/>
  <note>
daggerdbl
</note>
  <outline>
    <contour>
      <point x="118" y="-124" type="line"/>
      <point x="134" y="-124" type="line"/>
      <point x="177" y="182" type="line"/>
      <point x="297" y="182" type="line"/>
      <point x="299" y="198" type="line"/>
      <point x="179" y="198" type="line"/>
      <point x="201" y="351" type="line"/>
      <point x="321" y="351" type="line"/>
      <point x="323" y="367" type="line"/>
      <point x="203" y="367" type="line"/>
      <point x="234" y="585" type="line"/>
      <point x="218" y="585" type="line"/>
      <point x="187" y="367" type="line"/>
      <point x="67" y="367" type="line"/>
      <point x="65" y="351" type="line"/>
      <point x="185" y="351" type="line"/>
      <point x="163" y="198" type="line"/>
      <point x="43" y="198" type="line"/>
      <point x="41" y="182" type="line"/>
      <point x="161" y="182" type="line"/>
    </contour>
  </outline>
</glyph>
<glyph name="perthousand" format="2">
  <advance width="758"/>
  <unicode hex="2030"/>
  <note>
perthousand
</note>
  <outline>
    <contour>
      <point x="67" y="0" type="line"/>
      <point x="86" y="0" type="line"/>
      <point x="485" y="591" type="line"/>
      <point x="467" y="591" type="line"/>
    </contour>
    <contour>
      <point x="367" y="-5" type="curve" smooth="yes"/>
      <point x="430" y="-5"/>
      <point x="454" y="12"/>
      <point x="462" y="73" type="curve" smooth="yes"/>
      <point x="485" y="233" type="line" smooth="yes"/>
      <point x="486" y="240"/>
      <point x="486" y="247"/>
      <point x="486" y="253" type="curve" smooth="yes"/>
      <point x="486" y="293"/>
      <point x="466" y="306"/>
      <point x="411" y="306" type="curve" smooth="yes"/>
      <point x="348" y="306"/>
      <point x="325" y="289"/>
      <point x="318" y="233" type="curve" smooth="yes"/>
      <point x="295" y="73" type="line" smooth="yes"/>
      <point x="294" y="64"/>
      <point x="293" y="56"/>
      <point x="293" y="48" type="curve" smooth="yes"/>
      <point x="293" y="7"/>
      <point x="313" y="-5"/>
    </contour>
    <contour>
      <point x="370" y="12" type="curve" smooth="yes"/>
      <point x="324" y="12"/>
      <point x="309" y="24"/>
      <point x="309" y="56" type="curve" smooth="yes"/>
      <point x="309" y="62"/>
      <point x="310" y="70"/>
      <point x="311" y="79" type="curve" smooth="yes"/>
      <point x="332" y="227" type="line" smooth="yes"/>
      <point x="338" y="271"/>
      <point x="354" y="290"/>
      <point x="409" y="290" type="curve" smooth="yes"/>
      <point x="456" y="290"/>
      <point x="470" y="277"/>
      <point x="470" y="247" type="curve" smooth="yes"/>
      <point x="470" y="241"/>
      <point x="469" y="234"/>
      <point x="468" y="227" type="curve" smooth="yes"/>
      <point x="447" y="79" type="line" smooth="yes"/>
      <point x="440" y="30"/>
      <point x="425" y="12"/>
    </contour>
    <contour>
      <point x="138" y="280" type="curve" smooth="yes"/>
      <point x="201" y="280"/>
      <point x="225" y="297"/>
      <point x="233" y="358" type="curve" smooth="yes"/>
      <point x="256" y="518" type="line" smooth="yes"/>
      <point x="257" y="525"/>
      <point x="257" y="532"/>
      <point x="257" y="538" type="curve" smooth="yes"/>
      <point x="257" y="578"/>
      <point x="237" y="591"/>
      <point x="182" y="591" type="curve" smooth="yes"/>
      <point x="119" y="591"/>
      <point x="96" y="574"/>
      <point x="89" y="518" type="curve" smooth="yes"/>
      <point x="66" y="358" type="line" smooth="yes"/>
      <point x="65" y="349"/>
      <point x="64" y="341"/>
      <point x="64" y="333" type="curve" smooth="yes"/>
      <point x="64" y="292"/>
      <point x="84" y="280"/>
    </contour>
    <contour>
      <point x="141" y="297" type="curve" smooth="yes"/>
      <point x="95" y="297"/>
      <point x="80" y="309"/>
      <point x="80" y="341" type="curve" smooth="yes"/>
      <point x="80" y="347"/>
      <point x="81" y="355"/>
      <point x="82" y="364" type="curve" smooth="yes"/>
      <point x="103" y="512" type="line" smooth="yes"/>
      <point x="109" y="556"/>
      <point x="125" y="575"/>
      <point x="180" y="575" type="curve" smooth="yes"/>
      <point x="227" y="575"/>
      <point x="241" y="562"/>
      <point x="241" y="532" type="curve" smooth="yes"/>
      <point x="241" y="526"/>
      <point x="240" y="519"/>
      <point x="239" y="512" type="curve" smooth="yes"/>
      <point x="218" y="364" type="line" smooth="yes"/>
      <point x="211" y="315"/>
      <point x="196" y="297"/>
    </contour>
    <contour>
      <point x="589" y="-5" type="curve" smooth="yes"/>
      <point x="652" y="-5"/>
      <point x="676" y="12"/>
      <point x="684" y="73" type="curve" smooth="yes"/>
      <point x="707" y="233" type="line" smooth="yes"/>
      <point x="708" y="240"/>
      <point x="708" y="247"/>
      <point x="708" y="253" type="curve" smooth="yes"/>
      <point x="708" y="293"/>
      <point x="688" y="306"/>
      <point x="633" y="306" type="curve" smooth="yes"/>
      <point x="570" y="306"/>
      <point x="547" y="289"/>
      <point x="540" y="233" type="curve" smooth="yes"/>
      <point x="517" y="73" type="line" smooth="yes"/>
      <point x="516" y="64"/>
      <point x="515" y="56"/>
      <point x="515" y="48" type="curve" smooth="yes"/>
      <point x="515" y="7"/>
      <point x="535" y="-5"/>
    </contour>
    <contour>
      <point x="592" y="12" type="curve" smooth="yes"/>
      <point x="546" y="12"/>
      <point x="531" y="24"/>
      <point x="531" y="56" type="curve" smooth="yes"/>
      <point x="531" y="62"/>
      <point x="532" y="70"/>
      <point x="533" y="79" type="curve" smooth="yes"/>
      <point x="554" y="227" type="line" smooth="yes"/>
      <point x="560" y="271"/>
      <point x="576" y="290"/>
      <point x="631" y="290" type="curve" smooth="yes"/>
      <point x="678" y="290"/>
      <point x="692" y="277"/>
      <point x="692" y="247" type="curve" smooth="yes"/>
      <point x="692" y="241"/>
      <point x="691" y="234"/>
      <point x="690" y="227" type="curve" smooth="yes"/>
      <point x="669" y="79" type="line" smooth="yes"/>
      <point x="662" y="30"/>
      <point x="647" y="12"/>
    </contour>
  </outline>
</glyph>
<glyph name="minute" format="2">
  <advance width="111"/>
  <unicode hex="2032"/>
  <outline>
    <contour>
      <point x="65" y="496" type="line"/>
      <point x="72" y="496" type="line"/>
      <point x="134" y="619" type="line"/>
      <point x="115" y="619" type="line"/>
    </contour>
  </outline>
</glyph>
<glyph name="commercialMinusSign" format="2">
  <advance width="483"/>
  <unicode hex="2052"/>
  <outline>
    <contour>
      <point x="40" y="0" type="line"/>
      <point x="53" y="0" type="line"/>
      <point x="456" y="585" type="line"/>
      <point x="441" y="585" type="line"/>
    </contour>
    <contour>
      <point x="93" y="332" type="curve" smooth="yes"/>
      <point x="114" y="332"/>
      <point x="130" y="347"/>
      <point x="130" y="368" type="curve" smooth="yes"/>
      <point x="130" y="388"/>
      <point x="113" y="404"/>
      <point x="94" y="404" type="curve" smooth="yes"/>
      <point x="73" y="404"/>
      <point x="57" y="388"/>
      <point x="57" y="368" type="curve" smooth="yes"/>
      <point x="58" y="347"/>
      <point x="74" y="332"/>
    </contour>
    <contour>
      <point x="394" y="128" type="curve" smooth="yes"/>
      <point x="415" y="128"/>
      <point x="431" y="143"/>
      <point x="431" y="164" type="curve" smooth="yes"/>
      <point x="431" y="184"/>
      <point x="414" y="200"/>
      <point x="395" y="200" type="curve" smooth="yes"/>
      <point x="374" y="200"/>
      <point x="358" y="184"/>
      <point x="358" y="164" type="curve" smooth="yes"/>
      <point x="359" y="143"/>
      <point x="375" y="128"/>
    </contour>
  </outline>
</glyph>
<glyph name="foursuperior" format="2">
  <advance width="261"/>
  <unicode hex="2074"/>
  <outline>
    <contour>
      <point x="168" y="242" type="line"/>
      <point x="184" y="242" type="line"/>
      <point x="194" y="313" type="line"/>
      <point x="235" y="313" type="line"/>
      <point x="237" y="329" type="line"/>
      <point x="196" y="329" type="line"/>
      <point x="234" y="597" type="line"/>
      <point x="220" y="597" type="line"/>
      <point x="43" y="322" type="line"/>
      <point x="42" y="313" type="line"/>
      <point x="178" y="313" type="line"/>
    </contour>
    <contour>
      <point x="180" y="329" type="line"/>
      <point x="64" y="329" type="line"/>
      <point x="213" y="560" type="line"/>
    </contour>
  </outline>
</glyph>
<glyph name="franc" format="2">
  <advance width="359"/>
  <unicode hex="20A3"/>
  <note>
franc
</note>
  <outline>
    <contour>
      <point x="60" y="0" type="line"/>
      <point x="76" y="0" type="line"/>
      <point x="99" y="162" type="line"/>
      <point x="202" y="162" type="line"/>
      <point x="204" y="178" type="line"/>
      <point x="101" y="178" type="line"/>
      <point x="119" y="303" type="line"/>
      <point x="297" y="303" type="line"/>
      <point x="299" y="320" type="line"/>
      <point x="121" y="320" type="line"/>
      <point x="157" y="575" type="line"/>
      <point x="386" y="575" type="line"/>
      <point x="389" y="591" type="line"/>
      <point x="144" y="591" type="line"/>
      <point x="85" y="178" type="line"/>
      <point x="40" y="178" type="line"/>
      <point x="38" y="162" type="line"/>
      <point x="83" y="162" type="line"/>
    </contour>
  </outline>
</glyph>
<glyph name="peseta" format="2">
  <advance width="411"/>
  <unicode hex="20A7"/>
  <note>
peseta
</note>
  <outline>
    <contour>
      <point x="60" y="0" type="line"/>
      <point x="76" y="0" type="line"/>
      <point x="115" y="271" type="line"/>
      <point x="226" y="271" type="line" smooth="yes"/>
      <point x="348" y="271"/>
      <point x="380" y="313"/>
      <point x="395" y="418" type="curve" smooth="yes"/>
      <point x="406" y="494" type="line" smooth="yes"/>
      <point x="407" y="502"/>
      <point x="408" y="509"/>
      <point x="408" y="515" type="curve" smooth="yes"/>
      <point x="408" y="573"/>
      <point x="368" y="591"/>
      <point x="296" y="591" type="curve" smooth="yes"/>
      <point x="144" y="591" type="line"/>
    </contour>
    <contour>
      <point x="228" y="287" type="curve" smooth="yes"/>
      <point x="117" y="287" type="line"/>
      <point x="157" y="575" type="line"/>
      <point x="292" y="575" type="line" smooth="yes"/>
      <point x="363" y="575"/>
      <point x="390" y="558"/>
      <point x="390" y="505" type="curve" smooth="yes"/>
      <point x="390" y="495"/>
      <point x="389" y="484"/>
      <point x="387" y="471" type="curve" smooth="yes"/>
      <point x="379" y="417" type="line" smooth="yes"/>
      <point x="365" y="320"/>
      <point x="337" y="287"/>
    </contour>
    <contour>
      <point x="66" y="431" type="line"/>
      <point x="452" y="431" type="line"/>
      <point x="455" y="446" type="line"/>
      <point x="68" y="446" type="line"/>
    </contour>
  </outline>
</glyph>
<glyph name="euro" format="2">
  <advance width="472"/>
  <unicode hex="20AC"/>
  <note>
Euro
</note>
  <outline>
    <contour>
      <point x="226" y="-12" type="curve" smooth="yes"/>
      <point x="310" y="-12"/>
      <point x="370" y="2"/>
      <point x="386" y="118" type="curve" smooth="yes"/>
      <point x="394" y="172" type="line"/>
      <point x="378" y="172" type="line"/>
      <point x="371" y="122" type="line" smooth="yes"/>
      <point x="356" y="18"/>
      <point x="299" y="3"/>
      <point x="229" y="3" type="curve" smooth="yes"/>
      <point x="168" y="3"/>
      <point x="119" y="15"/>
      <point x="119" y="89" type="curve" smooth="yes"/>
      <point x="119" y="99"/>
      <point x="120" y="110"/>
      <point x="122" y="122" type="curve" smooth="yes"/>
      <point x="138" y="239" type="line"/>
      <point x="254" y="239" type="line"/>
      <point x="263" y="255" type="line"/>
      <point x="141" y="255" type="line"/>
      <point x="151" y="332" type="line"/>
      <point x="310" y="332" type="line"/>
      <point x="318" y="348" type="line"/>
      <point x="154" y="348" type="line"/>
      <point x="170" y="461" type="line" smooth="yes"/>
      <point x="184" y="566"/>
      <point x="236" y="583"/>
      <point x="311" y="583" type="curve" smooth="yes"/>
      <point x="362" y="583"/>
      <point x="405" y="572"/>
      <point x="405" y="501" type="curve" smooth="yes"/>
      <point x="405" y="491"/>
      <point x="404" y="480"/>
      <point x="402" y="467" type="curve" smooth="yes"/>
      <point x="400" y="452" type="line"/>
      <point x="419" y="469" type="line"/>
      <point x="421" y="482"/>
      <point x="422" y="493"/>
      <point x="422" y="503" type="curve" smooth="yes"/>
      <point x="422" y="586"/>
      <point x="367" y="599"/>
      <point x="314" y="599" type="curve" smooth="yes"/>
      <point x="233" y="599"/>
      <point x="171" y="585"/>
      <point x="155" y="469" type="curve" smooth="yes"/>
      <point x="138" y="348" type="line"/>
      <point x="65" y="348" type="line"/>
      <point x="57" y="332" type="line"/>
      <point x="135" y="332" type="line"/>
      <point x="125" y="255" type="line"/>
      <point x="53" y="255" type="line"/>
      <point x="44" y="239" type="line"/>
      <point x="122" y="239" type="line"/>
      <point x="105" y="118" type="line" smooth="yes"/>
      <point x="103" y="105"/>
      <point x="102" y="93"/>
      <point x="102" y="83" type="curve" smooth="yes"/>
      <point x="102" y="1"/>
      <point x="155" y="-12"/>
    </contour>
  </outline>
</glyph>
<glyph name="peso" format="2">
  <advance width="411"/>
  <unicode hex="20B1"/>
  <outline>
    <contour>
      <point x="64" y="0" type="line"/>
      <point x="80" y="0" type="line"/>
      <point x="119" y="271" type="line"/>
      <point x="230" y="271" type="line" smooth="yes"/>
      <point x="352" y="271"/>
      <point x="384" y="313"/>
      <point x="399" y="418" type="curve" smooth="yes"/>
      <point x="410" y="494" type="line" smooth="yes"/>
      <point x="411" y="502"/>
      <point x="412" y="509"/>
      <point x="412" y="515" type="curve" smooth="yes"/>
      <point x="412" y="573"/>
      <point x="372" y="591"/>
      <point x="300" y="591" type="curve" smooth="yes"/>
      <point x="148" y="591" type="line"/>
    </contour>
    <contour>
      <point x="60" y="375" type="line"/>
      <point x="447" y="375" type="line"/>
      <point x="450" y="391" type="line"/>
      <point x="63" y="391" type="line"/>
    </contour>
    <contour>
      <point x="232" y="287" type="curve" smooth="yes"/>
      <point x="121" y="287" type="line"/>
      <point x="161" y="575" type="line"/>
      <point x="296" y="575" type="line" smooth="yes"/>
      <point x="367" y="575"/>
      <point x="394" y="558"/>
      <point x="394" y="505" type="curve" smooth="yes"/>
      <point x="394" y="495"/>
      <point x="393" y="484"/>
      <point x="391" y="471" type="curve" smooth="yes"/>
      <point x="383" y="417" type="line" smooth="yes"/>
      <point x="369" y="320"/>
      <point x="341" y="287"/>
    </contour>
    <contour>
      <point x="71" y="465" type="line"/>
      <point x="458" y="465" type="line"/>
      <point x="461" y="481" type="line"/>
      <point x="74" y="481" type="line"/>
    </contour>
  </outline>
</glyph>
<glyph name="liraTurkish" format="2">
  <advance width="438"/>
  <unicode hex="20BA"/>
  <outline>
    <contour>
      <point x="135" y="0" type="curve" smooth="yes"/>
      <point x="220" y="0" type="line" smooth="yes"/>
      <point x="335" y="0"/>
      <point x="349" y="50"/>
      <point x="359" y="123" type="curve" smooth="yes"/>
      <point x="398" y="405" type="line"/>
      <point x="382" y="405" type="line"/>
      <point x="343" y="122" type="line" smooth="yes"/>
      <point x="333" y="53"/>
      <point x="320" y="16"/>
      <point x="219" y="16" type="curve" smooth="yes"/>
      <point x="136" y="17" type="line" smooth="yes"/>
      <point x="123" y="17"/>
      <point x="118" y="21"/>
      <point x="118" y="35" type="curve" smooth="yes"/>
      <point x="118" y="42"/>
      <point x="119" y="52"/>
      <point x="121" y="66" type="curve" smooth="yes"/>
      <point x="143" y="227" type="line"/>
      <point x="246" y="256" type="line"/>
      <point x="248" y="273" type="line"/>
      <point x="146" y="244" type="line"/>
      <point x="158" y="335" type="line"/>
      <point x="262" y="364" type="line"/>
      <point x="263" y="381" type="line"/>
      <point x="160" y="352" type="line"/>
      <point x="194" y="591" type="line"/>
      <point x="178" y="591" type="line"/>
      <point x="143" y="347" type="line"/>
      <point x="55" y="322" type="line"/>
      <point x="53" y="305" type="line"/>
      <point x="141" y="330" type="line"/>
      <point x="129" y="239" type="line"/>
      <point x="40" y="214" type="line"/>
      <point x="38" y="197" type="line"/>
      <point x="127" y="222" type="line"/>
      <point x="103" y="55" type="line" smooth="yes"/>
      <point x="102" y="44"/>
      <point x="101" y="35"/>
      <point x="101" y="28" type="curve" smooth="yes"/>
      <point x="101" y="2"/>
      <point x="111" y="0"/>
    </contour>
  </outline>
</glyph>
<glyph name="manat" format="2">
  <advance width="392"/>
  <unicode hex="20BC"/>
  <outline>
    <contour>
      <point x="20" y="0" type="line"/>
      <point x="36" y="0" type="line"/>
      <point x="138" y="485" type="line" smooth="yes"/>
      <point x="156" y="575"/>
      <point x="199" y="592"/>
      <point x="244" y="592" type="curve" smooth="yes"/>
      <point x="289" y="592"/>
      <point x="326" y="575"/>
      <point x="320" y="485" type="curve" smooth="yes"/>
      <point x="286" y="0" type="line"/>
      <point x="302" y="0" type="line"/>
      <point x="336" y="479" type="line" smooth="yes"/>
      <point x="344" y="586"/>
      <point x="300" y="603"/>
      <point x="245" y="603" type="curve" smooth="yes"/>
      <point x="190" y="603"/>
      <point x="142" y="586"/>
      <point x="120" y="479" type="curve" smooth="yes"/>
    </contour>
    <contour>
      <point x="153" y="0" type="line"/>
      <point x="169" y="0" type="line"/>
      <point x="257" y="631" type="line"/>
      <point x="241" y="631" type="line"/>
    </contour>
  </outline>
</glyph>
<glyph name="upArrow" format="2">
  <advance width="505"/>
  <unicode hex="2191"/>
  <outline>
    <contour>
      <point x="209" y="0" type="line"/>
      <point x="225" y="0" type="line"/>
      <point x="318" y="664" type="line"/>
      <point x="476" y="483" type="line"/>
      <point x="489" y="494" type="line"/>
      <point x="316" y="697" type="line"/>
      <point x="84" y="490" type="line"/>
      <point x="94" y="478" type="line"/>
      <point x="302" y="664" type="line"/>
    </contour>
  </outline>
</glyph>
<glyph name="northWestArrow" format="2">
  <advance width="599"/>
  <unicode hex="2196"/>
  <outline>
    <contour>
      <point x="586" y="93" type="line"/>
      <point x="597" y="104" type="line"/>
      <point x="127" y="574" type="line"/>
      <point x="388" y="571" type="line"/>
      <point x="388" y="588" type="line"/>
      <point x="98" y="591" type="line"/>
      <point x="98" y="304" type="line"/>
      <point x="115" y="305" type="line"/>
      <point x="116" y="562" type="line"/>
    </contour>
  </outline>
</glyph>
<glyph name="northEastArrow" format="2">
  <advance width="607"/>
  <unicode hex="2197"/>
  <outline>
    <contour>
      <point x="40" y="85" type="line"/>
      <point x="519" y="564" type="line"/>
      <point x="519" y="305" type="line"/>
      <point x="536" y="305" type="line"/>
      <point x="536" y="592" type="line"/>
      <point x="246" y="589" type="line"/>
      <point x="246" y="573" type="line"/>
      <point x="508" y="575" type="line"/>
      <point x="29" y="97" type="line"/>
    </contour>
  </outline>
</glyph>
<glyph name="southEastArrow" format="2">
  <advance width="598"/>
  <unicode hex="2198"/>
  <outline>
    <contour>
      <point x="295" y="17" type="line"/>
      <point x="295" y="0" type="line"/>
      <point x="582" y="0" type="line"/>
      <point x="579" y="290" type="line"/>
      <point x="562" y="290" type="line"/>
      <point x="565" y="29" type="line"/>
      <point x="95" y="499" type="line"/>
      <point x="84" y="488" type="line"/>
      <point x="553" y="18" type="line"/>
    </contour>
  </outline>
</glyph>
<glyph name="southWestArrow" format="2">
  <advance width="598"/>
  <unicode hex="2199"/>
  <outline>
    <contour>
      <point x="53" y="0" type="line"/>
      <point x="339" y="0" type="line"/>
      <point x="339" y="16" type="line"/>
      <point x="81" y="17" type="line"/>
      <point x="551" y="487" type="line"/>
      <point x="540" y="498" type="line"/>
      <point x="70" y="29" type="line"/>
      <point x="73" y="289" type="line"/>
      <point x="56" y="289" type="line"/>
    </contour>
  </outline>
</glyph>
<glyph name="increment" format="2">
  <advance width="449"/>
  <unicode hex="2206"/>
  <note>
Delta
</note>
  <outline>
    <contour>
      <point x="-10" y="0" type="line"/>
      <point x="389" y="0" type="line"/>
      <point x="283" y="585" type="line"/>
      <point x="264" y="585" type="line"/>
    </contour>
    <contour>
      <point x="369" y="16" type="line"/>
      <point x="14" y="16" type="line"/>
      <point x="270" y="564" type="line"/>
    </contour>
  </outline>
</glyph>
<glyph name="bulletoperator" format="2">
  <advance width="173"/>
  <unicode hex="2219"/>
  <outline>
    <contour>
      <point x="86" y="247" type="curve" smooth="yes"/>
      <point x="109" y="247"/>
      <point x="128" y="266"/>
      <point x="128" y="289" type="curve" smooth="yes"/>
      <point x="128" y="306"/>
      <point x="115" y="319"/>
      <point x="97" y="319" type="curve" smooth="yes"/>
      <point x="75" y="319"/>
      <point x="55" y="301"/>
      <point x="55" y="278" type="curve" smooth="yes"/>
      <point x="55" y="259"/>
      <point x="68" y="247"/>
    </contour>
  </outline>
</glyph>
<glyph name="infinity" format="2">
  <advance width="727"/>
  <unicode hex="221E"/>
  <note>
infinity
</note>
  <outline>
    <contour>
      <point x="540" y="103" type="curve" smooth="yes"/>
      <point x="614" y="103"/>
      <point x="664" y="155"/>
      <point x="676" y="241" type="curve" smooth="yes"/>
      <point x="677" y="252"/>
      <point x="678" y="262"/>
      <point x="678" y="271" type="curve" smooth="yes"/>
      <point x="678" y="339"/>
      <point x="641" y="379"/>
      <point x="577" y="379" type="curve" smooth="yes"/>
      <point x="493" y="379"/>
      <point x="436" y="319"/>
      <point x="360" y="250" type="curve"/>
      <point x="315" y="306"/>
      <point x="270" y="379"/>
      <point x="185" y="379" type="curve" smooth="yes"/>
      <point x="112" y="379"/>
      <point x="61" y="326"/>
      <point x="49" y="239" type="curve" smooth="yes"/>
      <point x="48" y="229"/>
      <point x="47" y="219"/>
      <point x="47" y="210" type="curve" smooth="yes"/>
      <point x="47" y="143"/>
      <point x="84" y="104"/>
      <point x="148" y="104" type="curve" smooth="yes"/>
      <point x="232" y="104"/>
      <point x="305" y="178"/>
      <point x="357" y="226" type="curve"/>
      <point x="403" y="170"/>
      <point x="455" y="103"/>
    </contour>
    <contour>
      <point x="150" y="120" type="curve" smooth="yes"/>
      <point x="94" y="120"/>
      <point x="63" y="153"/>
      <point x="63" y="211" type="curve" smooth="yes"/>
      <point x="63" y="220"/>
      <point x="64" y="229"/>
      <point x="65" y="239" type="curve" smooth="yes"/>
      <point x="76" y="317"/>
      <point x="120" y="363"/>
      <point x="183" y="363" type="curve" smooth="yes"/>
      <point x="261" y="363"/>
      <point x="303" y="296"/>
      <point x="348" y="238" type="curve"/>
      <point x="296" y="189"/>
      <point x="227" y="120"/>
    </contour>
    <contour>
      <point x="542" y="119" type="curve" smooth="yes"/>
      <point x="464" y="119"/>
      <point x="415" y="180"/>
      <point x="371" y="238" type="curve"/>
      <point x="446" y="308"/>
      <point x="498" y="363"/>
      <point x="575" y="363" type="curve" smooth="yes"/>
      <point x="631" y="363"/>
      <point x="662" y="329"/>
      <point x="662" y="269" type="curve" smooth="yes"/>
      <point x="662" y="260"/>
      <point x="661" y="251"/>
      <point x="660" y="241" type="curve" smooth="yes"/>
      <point x="649" y="163"/>
      <point x="606" y="119"/>
    </contour>
  </outline>
</glyph>
<glyph name="approxequal" format="2">
  <advance width="451"/>
  <unicode hex="2248"/>
  <note>
approxequal
</note>
  <outline>
    <contour>
      <point x="321" y="329" type="curve" smooth="yes"/>
      <point x="374" y="329"/>
      <point x="411" y="352"/>
      <point x="422" y="391" type="curve"/>
      <point x="406" y="391" type="line"/>
      <point x="396" y="361"/>
      <point x="368" y="345"/>
      <point x="323" y="345" type="curve" smooth="yes"/>
      <point x="290" y="345"/>
      <point x="269" y="356"/>
      <point x="246" y="367" type="curve" smooth="yes"/>
      <point x="223" y="379"/>
      <point x="198" y="391"/>
      <point x="159" y="391" type="curve" smooth="yes"/>
      <point x="110" y="391"/>
      <point x="74" y="369"/>
      <point x="62" y="330" type="curve"/>
      <point x="79" y="330" type="line"/>
      <point x="89" y="359"/>
      <point x="116" y="375"/>
      <point x="156" y="375" type="curve" smooth="yes"/>
      <point x="191" y="375"/>
      <point x="214" y="364"/>
      <point x="237" y="352" type="curve" smooth="yes"/>
      <point x="261" y="341"/>
      <point x="285" y="329"/>
    </contour>
    <contour>
      <point x="292" y="127" type="curve" smooth="yes"/>
      <point x="345" y="127"/>
      <point x="383" y="150"/>
      <point x="393" y="189" type="curve"/>
      <point x="377" y="189" type="line"/>
      <point x="368" y="159"/>
      <point x="340" y="143"/>
      <point x="295" y="143" type="curve" smooth="yes"/>
      <point x="262" y="143"/>
      <point x="240" y="154"/>
      <point x="218" y="165" type="curve" smooth="yes"/>
      <point x="194" y="177"/>
      <point x="169" y="189"/>
      <point x="130" y="189" type="curve" smooth="yes"/>
      <point x="81" y="189"/>
      <point x="46" y="167"/>
      <point x="34" y="128" type="curve"/>
      <point x="51" y="128" type="line"/>
      <point x="61" y="157"/>
      <point x="88" y="173"/>
      <point x="128" y="173" type="curve" smooth="yes"/>
      <point x="163" y="173"/>
      <point x="185" y="162"/>
      <point x="209" y="150" type="curve" smooth="yes"/>
      <point x="232" y="139"/>
      <point x="256" y="127"/>
    </contour>
  </outline>
</glyph>
<glyph name="rightanglebracket-math" format="2">
  <advance width="250"/>
  <unicode hex="27E9"/>
  <outline>
    <contour>
      <point x="-5" y="-142" type="line"/>
      <point x="9" y="-142" type="line"/>
      <point x="198" y="233" type="line"/>
      <point x="107" y="628" type="line"/>
      <point x="93" y="628" type="line"/>
      <point x="178" y="233" type="line"/>
    </contour>
  </outline>
</glyph>
<glyph name="acutecomb.case" format="2">
  <note>
acutecomb
</note>
  <guideline x="86" y="528" angle="82"/>
  <anchor x="278" y="591" name="_top"/>
  <anchor x="216" y="532" name="_topviet"/>
  <anchor x="307" y="690" name="top"/>
  <outline>
    <contour>
      <point x="250" y="625" type="line"/>
      <point x="265" y="625" type="line"/>
      <point x="365" y="700" type="line"/>
      <point x="342" y="700" type="line"/>
    </contour>
  </outline>
</glyph>
<glyph name="ampersand.ss01" format="2">
  <advance width="489"/>
  <note>
ampersand.001
</note>
  <outline>
    <contour>
      <point x="166" y="-8" type="curve" smooth="yes"/>
      <point x="228" y="-8"/>
      <point x="275" y="17"/>
      <point x="303" y="63" type="curve"/>
      <point x="303" y="21"/>
      <point x="322" y="0"/>
      <point x="365" y="0" type="curve" smooth="yes"/>
      <point x="390" y="0"/>
      <point x="415" y="3"/>
      <point x="424" y="4" type="curve"/>
      <point x="427" y="20" type="line"/>
      <point x="402" y="17"/>
      <point x="385" y="15"/>
      <point x="366" y="15" type="curve" smooth="yes"/>
      <point x="329" y="15"/>
      <point x="319" y="39"/>
      <point x="319" y="68" type="curve" smooth="yes"/>
      <point x="319" y="74"/>
      <point x="319" y="81"/>
      <point x="320" y="88" type="curve" smooth="yes"/>
      <point x="350" y="301" type="line"/>
      <point x="466" y="301" type="line"/>
      <point x="468" y="317" type="line"/>
      <point x="352" y="317" type="line"/>
      <point x="366" y="414" type="line"/>
      <point x="353" y="414" type="line"/>
      <point x="336" y="317" type="line"/>
      <point x="211" y="317" type="line" smooth="yes"/>
      <point x="147" y="317"/>
      <point x="109" y="359"/>
      <point x="109" y="418" type="curve" smooth="yes"/>
      <point x="109" y="425"/>
      <point x="110" y="433"/>
      <point x="111" y="440" type="curve" smooth="yes"/>
      <point x="113" y="459" type="line" smooth="yes"/>
      <point x="124" y="534"/>
      <point x="164" y="579"/>
      <point x="248" y="579" type="curve" smooth="yes"/>
      <point x="294" y="579"/>
      <point x="339" y="570"/>
      <point x="368" y="549" type="curve"/>
      <point x="370" y="567" type="line"/>
      <point x="338" y="586"/>
      <point x="294" y="595"/>
      <point x="250" y="595" type="curve" smooth="yes"/>
      <point x="161" y="595"/>
      <point x="108" y="543"/>
      <point x="96" y="460" type="curve" smooth="yes"/>
      <point x="94" y="442" type="line" smooth="yes"/>
      <point x="93" y="434"/>
      <point x="92" y="426"/>
      <point x="92" y="419" type="curve" smooth="yes"/>
      <point x="92" y="361"/>
      <point x="125" y="320"/>
      <point x="180" y="309" type="curve"/>
      <point x="99" y="298"/>
      <point x="58" y="232"/>
      <point x="49" y="163" type="curve" smooth="yes"/>
      <point x="45" y="137" type="line" smooth="yes"/>
      <point x="44" y="126"/>
      <point x="43" y="116"/>
      <point x="43" y="107" type="curve" smooth="yes"/>
      <point x="43" y="31"/>
      <point x="89" y="-8"/>
    </contour>
    <contour>
      <point x="168" y="7" type="curve" smooth="yes"/>
      <point x="94" y="9"/>
      <point x="59" y="41"/>
      <point x="59" y="106" type="curve" smooth="yes"/>
      <point x="59" y="115"/>
      <point x="59" y="126"/>
      <point x="61" y="137" type="curve" smooth="yes"/>
      <point x="65" y="163" type="line" smooth="yes"/>
      <point x="76" y="247"/>
      <point x="126" y="301"/>
      <point x="209" y="301" type="curve" smooth="yes"/>
      <point x="334" y="301" type="line"/>
      <point x="311" y="137" type="line" smooth="yes"/>
      <point x="298" y="48"/>
      <point x="250" y="9"/>
    </contour>
  </outline>
</glyph>
<glyph name="ampersand.ss02" format="2">
  <advance width="490"/>
  <note>
ampersand.002
</note>
  <outline>
    <contour>
      <point x="165" y="-8" type="curve" smooth="yes"/>
      <point x="225" y="-8"/>
      <point x="306" y="21"/>
      <point x="322" y="110" type="curve"/>
      <point x="347" y="75"/>
      <point x="403" y="-3"/>
      <point x="424" y="-3" type="curve"/>
      <point x="427" y="15" type="line"/>
      <point x="412" y="15"/>
      <point x="353" y="98"/>
      <point x="326" y="135" type="curve"/>
      <point x="349" y="301" type="line"/>
      <point x="462" y="301" type="line"/>
      <point x="464" y="317" type="line"/>
      <point x="335" y="317" type="line"/>
      <point x="312" y="152" type="line"/>
      <point x="196" y="319" type="line" smooth="yes"/>
      <point x="177" y="346"/>
      <point x="152" y="394"/>
      <point x="152" y="436" type="curve" smooth="yes"/>
      <point x="152" y="440"/>
      <point x="152" y="445"/>
      <point x="153" y="449" type="curve" smooth="yes"/>
      <point x="156" y="470" type="line" smooth="yes"/>
      <point x="165" y="534"/>
      <point x="205" y="579"/>
      <point x="289" y="579" type="curve" smooth="yes"/>
      <point x="335" y="579"/>
      <point x="380" y="570"/>
      <point x="409" y="549" type="curve"/>
      <point x="411" y="567" type="line"/>
      <point x="379" y="586"/>
      <point x="335" y="595"/>
      <point x="291" y="595" type="curve" smooth="yes"/>
      <point x="202" y="595"/>
      <point x="149" y="543"/>
      <point x="139" y="470" type="curve" smooth="yes"/>
      <point x="136" y="449" type="line" smooth="yes"/>
      <point x="135" y="443"/>
      <point x="135" y="437"/>
      <point x="135" y="431" type="curve" smooth="yes"/>
      <point x="135" y="373"/>
      <point x="172" y="322"/>
      <point x="179" y="309" type="curve"/>
      <point x="98" y="298"/>
      <point x="57" y="232"/>
      <point x="48" y="163" type="curve" smooth="yes"/>
      <point x="44" y="137" type="line" smooth="yes"/>
      <point x="43" y="126"/>
      <point x="42" y="116"/>
      <point x="42" y="107" type="curve" smooth="yes"/>
      <point x="42" y="31"/>
      <point x="88" y="-8"/>
    </contour>
    <contour>
      <point x="167" y="7" type="curve" smooth="yes"/>
      <point x="93" y="9"/>
      <point x="58" y="41"/>
      <point x="58" y="106" type="curve" smooth="yes"/>
      <point x="58" y="115"/>
      <point x="58" y="126"/>
      <point x="60" y="137" type="curve" smooth="yes"/>
      <point x="64" y="163" type="line" smooth="yes"/>
      <point x="75" y="247"/>
      <point x="127" y="290"/>
      <point x="189" y="298" type="curve"/>
      <point x="309" y="127" type="line"/>
      <point x="299" y="56"/>
      <point x="249" y="9"/>
    </contour>
  </outline>
</glyph>
<glyph name="brevecomb.case" format="2">
  <note>
brevecomb
</note>
  <guideline x="115" y="518" angle="82"/>
  <anchor x="302" y="591" name="_top"/>
  <anchor x="314" y="672" name="top"/>
  <outline>
    <contour>
      <point x="297" y="622" type="curve" smooth="yes"/>
      <point x="356" y="622"/>
      <point x="392" y="661"/>
      <point x="397" y="699" type="curve"/>
      <point x="381" y="699" type="line"/>
      <point x="376" y="658"/>
      <point x="335" y="638"/>
      <point x="300" y="638" type="curve" smooth="yes"/>
      <point x="266" y="638"/>
      <point x="241" y="655"/>
      <point x="246" y="699" type="curve"/>
      <point x="230" y="699" type="line"/>
      <point x="225" y="662"/>
      <point x="239" y="622"/>
    </contour>
  </outline>
</glyph>
<glyph name="dotaccentcomb.case" format="2">
  <guideline x="57" y="553" angle="82"/>
  <anchor x="298" y="591" name="_top"/>
  <anchor x="306" y="630" name="top"/>
  <outline>
    <contour>
      <point x="305" y="636" type="curve" smooth="yes"/>
      <point x="316" y="636"/>
      <point x="321" y="641"/>
      <point x="321" y="653" type="curve" smooth="yes"/>
      <point x="321" y="661"/>
      <point x="318" y="664"/>
      <point x="309" y="664" type="curve" smooth="yes"/>
      <point x="298" y="664"/>
      <point x="293" y="659"/>
      <point x="293" y="647" type="curve" smooth="yes"/>
      <point x="293" y="639"/>
      <point x="296" y="636"/>
    </contour>
  </outline>
</glyph>
<glyph name="gravecomb.case" format="2">
  <note>
gravecomb
</note>
  <guideline x="69" y="528" angle="82"/>
  <anchor x="315" y="591" name="_top"/>
  <anchor x="278" y="532" name="_topviet"/>
  <anchor x="311" y="672" name="top"/>
  <outline>
    <contour>
      <point x="338" y="626" type="line"/>
      <point x="353" y="626" type="line"/>
      <point x="284" y="693" type="line"/>
      <point x="264" y="693" type="line"/>
    </contour>
  </outline>
</glyph>
<glyph name="hookabovecomb.case" format="2">
  <note>
hookabovecomb
</note>
  <guideline x="83" y="518" angle="82"/>
  <anchor x="294" y="591" name="_top"/>
  <anchor x="237" y="522" name="_topviet"/>
  <anchor x="314" y="708" name="top"/>
  <outline>
    <contour>
      <point x="288" y="620" type="line"/>
      <point x="303" y="620" type="line"/>
      <point x="304" y="628" type="line" smooth="yes"/>
      <point x="307" y="650"/>
      <point x="353" y="652"/>
      <point x="358" y="689" type="curve" smooth="yes"/>
      <point x="359" y="693" type="line" smooth="yes"/>
      <point x="363" y="715"/>
      <point x="349" y="728"/>
      <point x="321" y="728" type="curve" smooth="yes"/>
      <point x="291" y="728"/>
      <point x="274" y="716"/>
      <point x="267" y="697" type="curve"/>
      <point x="280" y="692" type="line"/>
      <point x="285" y="708"/>
      <point x="297" y="714"/>
      <point x="318" y="714" type="curve" smooth="yes"/>
      <point x="343" y="714"/>
      <point x="345" y="702"/>
      <point x="345" y="692" type="curve"/>
      <point x="344" y="689" type="line"/>
      <point x="340" y="660"/>
      <point x="294" y="661"/>
      <point x="289" y="626" type="curve" smooth="yes"/>
    </contour>
  </outline>
</glyph>
<glyph name="hungarumlautcomb.case" format="2">
  <guideline x="106" y="528" angle="82"/>
  <anchor x="253" y="591" name="_top"/>
  <anchor x="306" y="690" name="top"/>
  <outline>
    <contour>
      <point x="274" y="625" type="line"/>
      <point x="287" y="625" type="line"/>
      <point x="390" y="700" type="line"/>
      <point x="365" y="700" type="line"/>
    </contour>
    <contour>
      <point x="228" y="625" type="line"/>
      <point x="241" y="625" type="line"/>
      <point x="344" y="700" type="line"/>
      <point x="319" y="700" type="line"/>
    </contour>
  </outline>
</glyph>
<glyph name="periodcentered.loclCAT.case" format="2">
  <outline>
    <contour>
      <point x="-57" y="288" type="curve" smooth="yes"/>
      <point x="-45" y="288"/>
      <point x="-39" y="294"/>
      <point x="-39" y="308" type="curve" smooth="yes"/>
      <point x="-39" y="316"/>
      <point x="-44" y="320"/>
      <point x="-53" y="320" type="curve" smooth="yes"/>
      <point x="-65" y="320"/>
      <point x="-71" y="314"/>
      <point x="-71" y="300" type="curve" smooth="yes"/>
      <point x="-71" y="292"/>
      <point x="-66" y="288"/>
    </contour>
  </outline>
</glyph>
<glyph name="ringcomb.case" format="2">
  <guideline x="92" y="518" angle="82"/>
  <anchor x="299" y="591" name="_top"/>
  <anchor x="315" y="702" name="top"/>
  <outline>
    <contour>
      <point x="303" y="617" type="curve" smooth="yes"/>
      <point x="335" y="617"/>
      <point x="364" y="645"/>
      <point x="364" y="677" type="curve" smooth="yes"/>
      <point x="364" y="703"/>
      <point x="344" y="723"/>
      <point x="316" y="723" type="curve" smooth="yes"/>
      <point x="284" y="723"/>
      <point x="255" y="695"/>
      <point x="255" y="663" type="curve" smooth="yes"/>
      <point x="255" y="637"/>
      <point x="275" y="617"/>
    </contour>
    <contour>
      <point x="304" y="633" type="curve" smooth="yes"/>
      <point x="285" y="633"/>
      <point x="271" y="646"/>
      <point x="271" y="664" type="curve" smooth="yes"/>
      <point x="271" y="689"/>
      <point x="291" y="707"/>
      <point x="314" y="707" type="curve" smooth="yes"/>
      <point x="333" y="707"/>
      <point x="347" y="694"/>
      <point x="347" y="676" type="curve" smooth="yes"/>
      <point x="347" y="651"/>
      <point x="327" y="633"/>
    </contour>
  </outline>
</glyph>
<glyph name="s_t" format="2">
  <advance width="525"/>
  <note>
s_t
</note>
  <anchor x="263" y="0" name="caret_1"/>
  <outline>
    <contour>
      <point x="125" y="-6" type="curve" smooth="yes"/>
      <point x="188" y="-6"/>
      <point x="253" y="19"/>
      <point x="265" y="96" type="curve" smooth="yes"/>
      <point x="271" y="134" type="line" smooth="yes"/>
      <point x="272" y="141"/>
      <point x="273" y="148"/>
      <point x="273" y="155" type="curve" smooth="yes"/>
      <point x="273" y="221"/>
      <point x="214" y="244"/>
      <point x="164" y="269" type="curve" smooth="yes"/>
      <point x="123" y="290"/>
      <point x="75" y="302"/>
      <point x="75" y="361" type="curve" smooth="yes"/>
      <point x="75" y="368"/>
      <point x="75" y="375"/>
      <point x="77" y="384" type="curve" smooth="yes"/>
      <point x="79" y="395" type="line" smooth="yes"/>
      <point x="89" y="449"/>
      <point x="129" y="486"/>
      <point x="196" y="486" type="curve" smooth="yes"/>
      <point x="248" y="486"/>
      <point x="289" y="468"/>
      <point x="289" y="423" type="curve" smooth="yes"/>
      <point x="289" y="410"/>
      <point x="285" y="394"/>
      <point x="277" y="376" type="curve" smooth="yes"/>
      <point x="263" y="344" type="line"/>
      <point x="281" y="344" type="line"/>
      <point x="299" y="386" type="line" smooth="yes"/>
      <point x="304" y="398"/>
      <point x="307" y="409"/>
      <point x="308" y="419" type="curve" smooth="yes"/>
      <point x="323" y="548" type="line" smooth="yes"/>
      <point x="328" y="585"/>
      <point x="345" y="618"/>
      <point x="398" y="618" type="curve" smooth="yes"/>
      <point x="413" y="618"/>
      <point x="425" y="616"/>
      <point x="436" y="612" type="curve"/>
      <point x="416" y="495" type="line"/>
      <point x="378" y="493" type="line"/>
      <point x="376" y="479" type="line"/>
      <point x="414" y="479" type="line"/>
      <point x="359" y="93" type="line" smooth="yes"/>
      <point x="358" y="83"/>
      <point x="357" y="74"/>
      <point x="357" y="66" type="curve" smooth="yes"/>
      <point x="357" y="22"/>
      <point x="375" y="0"/>
      <point x="419" y="0" type="curve" smooth="yes"/>
      <point x="444" y="0"/>
      <point x="470" y="3"/>
      <point x="479" y="4" type="curve"/>
      <point x="481" y="20" type="line"/>
      <point x="457" y="17"/>
      <point x="440" y="15"/>
      <point x="421" y="15" type="curve" smooth="yes"/>
      <point x="384" y="15"/>
      <point x="374" y="39"/>
      <point x="374" y="68" type="curve" smooth="yes"/>
      <point x="374" y="74"/>
      <point x="374" y="81"/>
      <point x="375" y="88" type="curve" smooth="yes"/>
      <point x="430" y="479" type="line"/>
      <point x="546" y="479" type="line"/>
      <point x="548" y="495" type="line"/>
      <point x="432" y="495" type="line"/>
      <point x="450" y="621" type="line"/>
      <point x="436" y="628"/>
      <point x="418" y="633"/>
      <point x="398" y="633" type="curve" smooth="yes"/>
      <point x="341" y="633"/>
      <point x="314" y="605"/>
      <point x="307" y="543" type="curve" smooth="yes"/>
      <point x="298" y="462" type="line"/>
      <point x="280" y="489"/>
      <point x="240" y="502"/>
      <point x="199" y="502" type="curve" smooth="yes"/>
      <point x="123" y="502"/>
      <point x="73" y="460"/>
      <point x="64" y="404" type="curve" smooth="yes"/>
      <point x="60" y="380" type="line" smooth="yes"/>
      <point x="59" y="372"/>
      <point x="58" y="364"/>
      <point x="58" y="357" type="curve" smooth="yes"/>
      <point x="58" y="299"/>
      <point x="104" y="279"/>
      <point x="157" y="254" type="curve" smooth="yes"/>
      <point x="202" y="233"/>
      <point x="258" y="214"/>
      <point x="258" y="152" type="curve" smooth="yes"/>
      <point x="258" y="144"/>
      <point x="257" y="136"/>
      <point x="255" y="127" type="curve" smooth="yes"/>
      <point x="249" y="96" type="line" smooth="yes"/>
      <point x="239" y="43"/>
      <point x="194" y="10"/>
      <point x="128" y="10" type="curve" smooth="yes"/>
      <point x="73" y="10"/>
      <point x="36" y="32"/>
      <point x="36" y="77" type="curve" smooth="yes"/>
      <point x="36" y="112"/>
      <point x="65" y="151"/>
      <point x="79" y="166" type="curve"/>
      <point x="59" y="166" type="line"/>
      <point x="50" y="153"/>
      <point x="27" y="124"/>
      <point x="22" y="99" type="curve" smooth="yes"/>
      <point x="21" y="91"/>
      <point x="20" y="84"/>
      <point x="20" y="76" type="curve" smooth="yes"/>
      <point x="20" y="21"/>
      <point x="64" y="-6"/>
    </contour>
  </outline>
</glyph>
